<svg width="989" height="58" viewBox="0 0 989 58" fill="none" xmlns="http://www.w3.org/2000/svg">
<mask id="path-2-inside-1_84_1555" fill="white">
<path d="M0 8C0 3.58172 3.58172 0 8 0H313V58H8.00001C3.58173 58 0 54.4183 0 50V8Z"/>
</mask>
<path d="M0 8C0 3.58172 3.58172 0 8 0H313V58H8.00001C3.58173 58 0 54.4183 0 50V8Z" fill="white"/>
<path d="M0 0H313H0ZM313 59H9C4.02944 59 0 54.9706 0 50C0 53.866 3.58172 57 8 57H313V59ZM0 58V0V58ZM313 0V58V0Z" fill="#DAE0E3" mask="url(#path-2-inside-1_84_1555)"/>
<path d="M24.72 28.512C24.72 27.128 24.952 26.048 25.416 25.272C25.888 24.488 26.696 24.096 27.84 24.096C28.984 24.096 29.788 24.488 30.252 25.272C30.724 26.048 30.96 27.128 30.96 28.512C30.96 29.912 30.724 31.008 30.252 31.8C29.788 32.584 28.984 32.976 27.84 32.976C26.696 32.976 25.888 32.584 25.416 31.8C24.952 31.008 24.72 29.912 24.72 28.512ZM29.616 28.512C29.616 27.864 29.572 27.316 29.484 26.868C29.404 26.42 29.236 26.056 28.98 25.776C28.724 25.488 28.344 25.344 27.84 25.344C27.336 25.344 26.956 25.488 26.7 25.776C26.444 26.056 26.272 26.42 26.184 26.868C26.104 27.316 26.064 27.864 26.064 28.512C26.064 29.184 26.104 29.748 26.184 30.204C26.264 30.66 26.432 31.028 26.688 31.308C26.952 31.588 27.336 31.728 27.84 31.728C28.344 31.728 28.724 31.588 28.98 31.308C29.244 31.028 29.416 30.66 29.496 30.204C29.576 29.748 29.616 29.184 29.616 28.512ZM32.2275 25.5V24.252H34.7235V33H33.3435V25.5H32.2275Z" fill="#CCDDE5"/>
<path d="M57.928 31.296H54.436L53.836 33H52.408L55.396 24.648H56.98L59.968 33H58.528L57.928 31.296ZM57.544 30.18L56.188 26.304L54.82 30.18H57.544ZM63.9912 24.66C64.8792 24.66 65.6552 24.832 66.3192 25.176C66.9912 25.512 67.5072 26 67.8672 26.64C68.2352 27.272 68.4192 28.012 68.4192 28.86C68.4192 29.708 68.2352 30.444 67.8672 31.068C67.5072 31.692 66.9912 32.172 66.3192 32.508C65.6552 32.836 64.8792 33 63.9912 33H61.2672V24.66H63.9912ZM63.9912 31.884C64.9672 31.884 65.7152 31.62 66.2352 31.092C66.7552 30.564 67.0152 29.82 67.0152 28.86C67.0152 27.892 66.7552 27.136 66.2352 26.592C65.7152 26.048 64.9672 25.776 63.9912 25.776H62.6352V31.884H63.9912ZM75.6402 33.084C75.0802 33.084 74.5762 32.988 74.1282 32.796C73.6802 32.596 73.3282 32.316 73.0722 31.956C72.8162 31.596 72.6882 31.176 72.6882 30.696H74.1522C74.1842 31.056 74.3242 31.352 74.5722 31.584C74.8282 31.816 75.1842 31.932 75.6402 31.932C76.1122 31.932 76.4802 31.82 76.7442 31.596C77.0082 31.364 77.1402 31.068 77.1402 30.708C77.1402 30.428 77.0562 30.2 76.8882 30.024C76.7282 29.848 76.5242 29.712 76.2762 29.616C76.0362 29.52 75.7002 29.416 75.2682 29.304C74.7242 29.16 74.2802 29.016 73.9362 28.872C73.6002 28.72 73.3122 28.488 73.0722 28.176C72.8322 27.864 72.7122 27.448 72.7122 26.928C72.7122 26.448 72.8322 26.028 73.0722 25.668C73.3122 25.308 73.6482 25.032 74.0802 24.84C74.5122 24.648 75.0122 24.552 75.5802 24.552C76.3882 24.552 77.0482 24.756 77.5602 25.164C78.0802 25.564 78.3682 26.116 78.4242 26.82H76.9122C76.8882 26.516 76.7442 26.256 76.4802 26.04C76.2162 25.824 75.8682 25.716 75.4362 25.716C75.0442 25.716 74.7242 25.816 74.4762 26.016C74.2282 26.216 74.1042 26.504 74.1042 26.88C74.1042 27.136 74.1802 27.348 74.3322 27.516C74.4922 27.676 74.6922 27.804 74.9322 27.9C75.1722 27.996 75.5002 28.1 75.9162 28.212C76.4682 28.364 76.9162 28.516 77.2602 28.668C77.6122 28.82 77.9082 29.056 78.1482 29.376C78.3962 29.688 78.5202 30.108 78.5202 30.636C78.5202 31.06 78.4042 31.46 78.1722 31.836C77.9482 32.212 77.6162 32.516 77.1762 32.748C76.7442 32.972 76.2322 33.084 75.6402 33.084ZM81.5024 25.764V28.212H84.3824V29.328H81.5024V31.884H84.7424V33H80.1344V24.648H84.7424V25.764H81.5024ZM91.8153 24.66V25.776H89.5953V33H88.2273V25.776H85.9953V24.66H91.8153ZM103.17 33H101.802L97.686 26.772V33H96.318V24.648H97.686L101.802 30.864V24.648H103.17V33ZM109.994 31.296H106.502L105.902 33H104.474L107.462 24.648H109.046L112.034 33H110.594L109.994 31.296ZM109.61 30.18L108.254 26.304L106.886 30.18H109.61ZM122.118 24.66V33H120.75V27.288L118.206 33H117.258L114.702 27.288V33H113.334V24.66H114.81L117.738 31.2L120.654 24.66H122.118ZM125.284 25.764V28.212H128.164V29.328H125.284V31.884H128.524V33H123.916V24.648H128.524V25.764H125.284Z" fill="#1C252A"/>
<mask id="path-8-inside-2_84_1555" fill="white">
<path d="M313 0H482V58H313V0Z"/>
</mask>
<path d="M313 0H482V58H313V0Z" fill="white"/>
<path d="M482 57H313V59H482V57Z" fill="#DAE0E3" mask="url(#path-8-inside-2_84_1555)"/>
<path d="M384.944 28.812C384.944 27.996 385.132 27.264 385.508 26.616C385.892 25.968 386.408 25.464 387.056 25.104C387.712 24.736 388.428 24.552 389.204 24.552C390.092 24.552 390.88 24.772 391.568 25.212C392.264 25.644 392.768 26.26 393.08 27.06H391.436C391.22 26.62 390.92 26.292 390.536 26.076C390.152 25.86 389.708 25.752 389.204 25.752C388.652 25.752 388.16 25.876 387.728 26.124C387.296 26.372 386.956 26.728 386.708 27.192C386.468 27.656 386.348 28.196 386.348 28.812C386.348 29.428 386.468 29.968 386.708 30.432C386.956 30.896 387.296 31.256 387.728 31.512C388.16 31.76 388.652 31.884 389.204 31.884C389.708 31.884 390.152 31.776 390.536 31.56C390.92 31.344 391.22 31.016 391.436 30.576H393.08C392.768 31.376 392.264 31.992 391.568 32.424C390.88 32.856 390.092 33.072 389.204 33.072C388.42 33.072 387.704 32.892 387.056 32.532C386.408 32.164 385.892 31.656 385.508 31.008C385.132 30.36 384.944 29.628 384.944 28.812ZM400.513 27.144C400.513 27.568 400.413 27.968 400.213 28.344C400.013 28.72 399.693 29.028 399.253 29.268C398.813 29.5 398.249 29.616 397.561 29.616H396.049V33H394.681V24.66H397.561C398.201 24.66 398.741 24.772 399.181 24.996C399.629 25.212 399.961 25.508 400.177 25.884C400.401 26.26 400.513 26.68 400.513 27.144ZM397.561 28.5C398.081 28.5 398.469 28.384 398.725 28.152C398.981 27.912 399.109 27.576 399.109 27.144C399.109 26.232 398.593 25.776 397.561 25.776H396.049V28.5H397.561ZM401.362 28.812C401.362 27.996 401.55 27.264 401.926 26.616C402.31 25.968 402.826 25.464 403.474 25.104C404.13 24.736 404.846 24.552 405.622 24.552C406.51 24.552 407.298 24.772 407.986 25.212C408.682 25.644 409.186 26.26 409.498 27.06H407.854C407.638 26.62 407.338 26.292 406.954 26.076C406.57 25.86 406.126 25.752 405.622 25.752C405.07 25.752 404.578 25.876 404.146 26.124C403.714 26.372 403.374 26.728 403.126 27.192C402.886 27.656 402.766 28.196 402.766 28.812C402.766 29.428 402.886 29.968 403.126 30.432C403.374 30.896 403.714 31.256 404.146 31.512C404.578 31.76 405.07 31.884 405.622 31.884C406.126 31.884 406.57 31.776 406.954 31.56C407.338 31.344 407.638 31.016 407.854 30.576H409.498C409.186 31.376 408.682 31.992 407.986 32.424C407.298 32.856 406.51 33.072 405.622 33.072C404.838 33.072 404.122 32.892 403.474 32.532C402.826 32.164 402.31 31.656 401.926 31.008C401.55 30.36 401.362 29.628 401.362 28.812Z" fill="#222222"/>
<mask id="path-12-inside-3_84_1555" fill="white">
<path d="M482 0H651V58H482V0Z"/>
</mask>
<path d="M482 0H651V58H482V0Z" fill="white"/>
<path d="M651 57H482V59H651V57Z" fill="#DAE0E3" mask="url(#path-12-inside-3_84_1555)"/>
<path d="M553.444 28.812C553.444 27.996 553.632 27.264 554.008 26.616C554.392 25.968 554.908 25.464 555.556 25.104C556.212 24.736 556.928 24.552 557.704 24.552C558.592 24.552 559.38 24.772 560.068 25.212C560.764 25.644 561.268 26.26 561.58 27.06H559.936C559.72 26.62 559.42 26.292 559.036 26.076C558.652 25.86 558.208 25.752 557.704 25.752C557.152 25.752 556.66 25.876 556.228 26.124C555.796 26.372 555.456 26.728 555.208 27.192C554.968 27.656 554.848 28.196 554.848 28.812C554.848 29.428 554.968 29.968 555.208 30.432C555.456 30.896 555.796 31.256 556.228 31.512C556.66 31.76 557.152 31.884 557.704 31.884C558.208 31.884 558.652 31.776 559.036 31.56C559.42 31.344 559.72 31.016 559.936 30.576H561.58C561.268 31.376 560.764 31.992 560.068 32.424C559.38 32.856 558.592 33.072 557.704 33.072C556.92 33.072 556.204 32.892 555.556 32.532C554.908 32.164 554.392 31.656 554.008 31.008C553.632 30.36 553.444 29.628 553.444 28.812ZM569.013 27.144C569.013 27.568 568.913 27.968 568.713 28.344C568.513 28.72 568.193 29.028 567.753 29.268C567.313 29.5 566.749 29.616 566.061 29.616H564.549V33H563.181V24.66H566.061C566.701 24.66 567.241 24.772 567.681 24.996C568.129 25.212 568.461 25.508 568.677 25.884C568.901 26.26 569.013 26.68 569.013 27.144ZM566.061 28.5C566.581 28.5 566.969 28.384 567.225 28.152C567.481 27.912 567.609 27.576 567.609 27.144C567.609 26.232 567.093 25.776 566.061 25.776H564.549V28.5H566.061ZM579.102 24.66V33H577.734V27.288L575.19 33H574.242L571.686 27.288V33H570.318V24.66H571.794L574.722 31.2L577.638 24.66H579.102Z" fill="#09A610"/>
<mask id="path-16-inside-4_84_1555" fill="white">
<path d="M651 0H820V58H651V0Z"/>
</mask>
<path d="M651 0H820V58H651V0Z" fill="white"/>
<path d="M820 57H651V59H820V57Z" fill="#DAE0E3" mask="url(#path-16-inside-4_84_1555)"/>
<path d="M698.768 24.66V33H697.4V24.66H698.768ZM709.348 24.66V33H707.98V27.288L705.436 33H704.488L701.932 27.288V33H700.564V24.66H702.04L704.968 31.2L707.884 24.66H709.348ZM716.978 27.144C716.978 27.568 716.878 27.968 716.678 28.344C716.478 28.72 716.158 29.028 715.718 29.268C715.278 29.5 714.714 29.616 714.026 29.616H712.514V33H711.146V24.66H714.026C714.666 24.66 715.206 24.772 715.646 24.996C716.094 25.212 716.426 25.508 716.642 25.884C716.866 26.26 716.978 26.68 716.978 27.144ZM714.026 28.5C714.546 28.5 714.934 28.384 715.19 28.152C715.446 27.912 715.574 27.576 715.574 27.144C715.574 26.232 715.058 25.776 714.026 25.776H712.514V28.5H714.026ZM722.615 33L720.695 29.664H719.651V33H718.283V24.66H721.163C721.803 24.66 722.343 24.772 722.783 24.996C723.231 25.22 723.563 25.52 723.779 25.896C724.003 26.272 724.115 26.692 724.115 27.156C724.115 27.7 723.955 28.196 723.635 28.644C723.323 29.084 722.839 29.384 722.183 29.544L724.247 33H722.615ZM719.651 28.572H721.163C721.675 28.572 722.059 28.444 722.315 28.188C722.579 27.932 722.711 27.588 722.711 27.156C722.711 26.724 722.583 26.388 722.327 26.148C722.071 25.9 721.683 25.776 721.163 25.776H719.651V28.572ZM727.233 25.764V28.212H730.113V29.328H727.233V31.884H730.473V33H725.865V24.648H730.473V25.764H727.233ZM734.906 33.084C734.346 33.084 733.842 32.988 733.394 32.796C732.946 32.596 732.594 32.316 732.338 31.956C732.082 31.596 731.954 31.176 731.954 30.696H733.418C733.45 31.056 733.59 31.352 733.838 31.584C734.094 31.816 734.45 31.932 734.906 31.932C735.378 31.932 735.746 31.82 736.01 31.596C736.274 31.364 736.406 31.068 736.406 30.708C736.406 30.428 736.322 30.2 736.154 30.024C735.994 29.848 735.79 29.712 735.542 29.616C735.302 29.52 734.966 29.416 734.534 29.304C733.99 29.16 733.546 29.016 733.202 28.872C732.866 28.72 732.578 28.488 732.338 28.176C732.098 27.864 731.978 27.448 731.978 26.928C731.978 26.448 732.098 26.028 732.338 25.668C732.578 25.308 732.914 25.032 733.346 24.84C733.778 24.648 734.278 24.552 734.846 24.552C735.654 24.552 736.314 24.756 736.826 25.164C737.346 25.564 737.634 26.116 737.69 26.82H736.178C736.154 26.516 736.01 26.256 735.746 26.04C735.482 25.824 735.134 25.716 734.702 25.716C734.31 25.716 733.99 25.816 733.742 26.016C733.494 26.216 733.37 26.504 733.37 26.88C733.37 27.136 733.446 27.348 733.598 27.516C733.758 27.676 733.958 27.804 734.198 27.9C734.438 27.996 734.766 28.1 735.182 28.212C735.734 28.364 736.182 28.516 736.526 28.668C736.878 28.82 737.174 29.056 737.414 29.376C737.662 29.688 737.786 30.108 737.786 30.636C737.786 31.06 737.67 31.46 737.438 31.836C737.214 32.212 736.882 32.516 736.442 32.748C736.01 32.972 735.498 33.084 734.906 33.084ZM742.148 33.084C741.588 33.084 741.084 32.988 740.636 32.796C740.188 32.596 739.836 32.316 739.58 31.956C739.324 31.596 739.196 31.176 739.196 30.696H740.66C740.692 31.056 740.832 31.352 741.08 31.584C741.336 31.816 741.692 31.932 742.148 31.932C742.62 31.932 742.988 31.82 743.252 31.596C743.516 31.364 743.648 31.068 743.648 30.708C743.648 30.428 743.564 30.2 743.396 30.024C743.236 29.848 743.032 29.712 742.784 29.616C742.544 29.52 742.208 29.416 741.776 29.304C741.232 29.16 740.788 29.016 740.444 28.872C740.108 28.72 739.82 28.488 739.58 28.176C739.34 27.864 739.22 27.448 739.22 26.928C739.22 26.448 739.34 26.028 739.58 25.668C739.82 25.308 740.156 25.032 740.588 24.84C741.02 24.648 741.52 24.552 742.088 24.552C742.896 24.552 743.556 24.756 744.068 25.164C744.588 25.564 744.876 26.116 744.932 26.82H743.42C743.396 26.516 743.252 26.256 742.988 26.04C742.724 25.824 742.376 25.716 741.944 25.716C741.552 25.716 741.232 25.816 740.984 26.016C740.736 26.216 740.612 26.504 740.612 26.88C740.612 27.136 740.688 27.348 740.84 27.516C741 27.676 741.2 27.804 741.44 27.9C741.68 27.996 742.008 28.1 742.424 28.212C742.976 28.364 743.424 28.516 743.768 28.668C744.12 28.82 744.416 29.056 744.656 29.376C744.904 29.688 745.028 30.108 745.028 30.636C745.028 31.06 744.912 31.46 744.68 31.836C744.456 32.212 744.124 32.516 743.684 32.748C743.252 32.972 742.74 33.084 742.148 33.084ZM748.01 24.66V33H746.642V24.66H748.01ZM753.61 33.084C752.834 33.084 752.118 32.904 751.462 32.544C750.814 32.176 750.298 31.668 749.914 31.02C749.538 30.364 749.35 29.628 749.35 28.812C749.35 27.996 749.538 27.264 749.914 26.616C750.298 25.968 750.814 25.464 751.462 25.104C752.118 24.736 752.834 24.552 753.61 24.552C754.394 24.552 755.11 24.736 755.758 25.104C756.414 25.464 756.93 25.968 757.306 26.616C757.682 27.264 757.87 27.996 757.87 28.812C757.87 29.628 757.682 30.364 757.306 31.02C756.93 31.668 756.414 32.176 755.758 32.544C755.11 32.904 754.394 33.084 753.61 33.084ZM753.61 31.896C754.162 31.896 754.654 31.772 755.086 31.524C755.518 31.268 755.854 30.908 756.094 30.444C756.342 29.972 756.466 29.428 756.466 28.812C756.466 28.196 756.342 27.656 756.094 27.192C755.854 26.728 755.518 26.372 755.086 26.124C754.654 25.876 754.162 25.752 753.61 25.752C753.058 25.752 752.566 25.876 752.134 26.124C751.702 26.372 751.362 26.728 751.114 27.192C750.874 27.656 750.754 28.196 750.754 28.812C750.754 29.428 750.874 29.972 751.114 30.444C751.362 30.908 751.702 31.268 752.134 31.524C752.566 31.772 753.058 31.896 753.61 31.896ZM766.068 33H764.7L760.584 26.772V33H759.216V24.648H760.584L764.7 30.864V24.648H766.068V33ZM770.613 33.084C770.053 33.084 769.549 32.988 769.101 32.796C768.653 32.596 768.301 32.316 768.045 31.956C767.789 31.596 767.661 31.176 767.661 30.696H769.125C769.157 31.056 769.297 31.352 769.545 31.584C769.801 31.816 770.157 31.932 770.613 31.932C771.085 31.932 771.453 31.82 771.717 31.596C771.981 31.364 772.113 31.068 772.113 30.708C772.113 30.428 772.029 30.2 771.861 30.024C771.701 29.848 771.497 29.712 771.249 29.616C771.009 29.52 770.673 29.416 770.241 29.304C769.697 29.16 769.253 29.016 768.909 28.872C768.573 28.72 768.285 28.488 768.045 28.176C767.805 27.864 767.685 27.448 767.685 26.928C767.685 26.448 767.805 26.028 768.045 25.668C768.285 25.308 768.621 25.032 769.053 24.84C769.485 24.648 769.985 24.552 770.553 24.552C771.361 24.552 772.021 24.756 772.533 25.164C773.053 25.564 773.341 26.116 773.397 26.82H771.885C771.861 26.516 771.717 26.256 771.453 26.04C771.189 25.824 770.841 25.716 770.409 25.716C770.017 25.716 769.697 25.816 769.449 26.016C769.201 26.216 769.077 26.504 769.077 26.88C769.077 27.136 769.153 27.348 769.305 27.516C769.465 27.676 769.665 27.804 769.905 27.9C770.145 27.996 770.473 28.1 770.889 28.212C771.441 28.364 771.889 28.516 772.233 28.668C772.585 28.82 772.881 29.056 773.121 29.376C773.369 29.688 773.493 30.108 773.493 30.636C773.493 31.06 773.377 31.46 773.145 31.836C772.921 32.212 772.589 32.516 772.149 32.748C771.717 32.972 771.205 33.084 770.613 33.084Z" fill="#222222"/>
<mask id="path-20-inside-5_84_1555" fill="white">
<path d="M820 0H981C985.418 0 989 3.58172 989 8V50C989 54.4183 985.418 58 981 58H820V0Z"/>
</mask>
<path d="M820 0H981C985.418 0 989 3.58172 989 8V50C989 54.4183 985.418 58 981 58H820V0Z" fill="white"/>
<path d="M820 0H989H820ZM989 50C989 54.9706 984.971 59 980 59H820V57H981C985.418 57 989 53.866 989 50ZM820 58V0V58ZM989 0V58V0Z" fill="#DAE0E3" mask="url(#path-20-inside-5_84_1555)"/>
<path d="M878 20C878 17.7909 879.791 16 882 16H927C929.209 16 931 17.7909 931 20V38C931 40.2091 929.209 42 927 42H882C879.791 42 878 40.2091 878 38V20Z" fill="#FFEFEF"/>
<path d="M889.648 33.084C889.088 33.084 888.584 32.988 888.136 32.796C887.688 32.596 887.336 32.316 887.08 31.956C886.824 31.596 886.696 31.176 886.696 30.696H888.16C888.192 31.056 888.332 31.352 888.58 31.584C888.836 31.816 889.192 31.932 889.648 31.932C890.12 31.932 890.488 31.82 890.752 31.596C891.016 31.364 891.148 31.068 891.148 30.708C891.148 30.428 891.064 30.2 890.896 30.024C890.736 29.848 890.532 29.712 890.284 29.616C890.044 29.52 889.708 29.416 889.276 29.304C888.732 29.16 888.288 29.016 887.944 28.872C887.608 28.72 887.32 28.488 887.08 28.176C886.84 27.864 886.72 27.448 886.72 26.928C886.72 26.448 886.84 26.028 887.08 25.668C887.32 25.308 887.656 25.032 888.088 24.84C888.52 24.648 889.02 24.552 889.588 24.552C890.396 24.552 891.056 24.756 891.568 25.164C892.088 25.564 892.376 26.116 892.432 26.82H890.92C890.896 26.516 890.752 26.256 890.488 26.04C890.224 25.824 889.876 25.716 889.444 25.716C889.052 25.716 888.732 25.816 888.484 26.016C888.236 26.216 888.112 26.504 888.112 26.88C888.112 27.136 888.188 27.348 888.34 27.516C888.5 27.676 888.7 27.804 888.94 27.9C889.18 27.996 889.508 28.1 889.924 28.212C890.476 28.364 890.924 28.516 891.268 28.668C891.62 28.82 891.916 29.056 892.156 29.376C892.404 29.688 892.528 30.108 892.528 30.636C892.528 31.06 892.412 31.46 892.18 31.836C891.956 32.212 891.624 32.516 891.184 32.748C890.752 32.972 890.24 33.084 889.648 33.084ZM899.974 27.144C899.974 27.568 899.874 27.968 899.674 28.344C899.474 28.72 899.154 29.028 898.714 29.268C898.274 29.5 897.71 29.616 897.022 29.616H895.51V33H894.142V24.66H897.022C897.662 24.66 898.202 24.772 898.642 24.996C899.09 25.212 899.422 25.508 899.638 25.884C899.862 26.26 899.974 26.68 899.974 27.144ZM897.022 28.5C897.542 28.5 897.93 28.384 898.186 28.152C898.442 27.912 898.57 27.576 898.57 27.144C898.57 26.232 898.054 25.776 897.022 25.776H895.51V28.5H897.022ZM902.647 25.764V28.212H905.527V29.328H902.647V31.884H905.887V33H901.279V24.648H905.887V25.764H902.647ZM914.424 33H913.056L908.94 26.772V33H907.572V24.648H908.94L913.056 30.864V24.648H914.424V33ZM921.608 24.66V25.776H919.388V33H918.02V25.776H915.788V24.66H921.608Z" fill="#C70E0E"/>
</svg>
