<svg xmlns="http://www.w3.org/2000/svg" xmlns:xlink="http://www.w3.org/1999/xlink" width="2240" zoomAndPan="magnify" viewBox="0 0 1680 944.999993" height="1260" preserveAspectRatio="xMidYMid meet" version="1.0"><defs><filter x="0%" y="0%" width="100%" height="100%" id="326fe57737"><feColorMatrix values="0 0 0 0 1 0 0 0 0 1 0 0 0 0 1 0 0 0 1 0" color-interpolation-filters="sRGB"/></filter><mask id="462cb4238f"><g filter="url(#326fe57737)"><rect x="-168" width="2016" fill="#000000" y="-94.499999" height="1133.999992" fill-opacity="0.37"/></g></mask><clipPath id="0f7edd0f0a"><path d="M 1 0.398438 L 1120 0.398438 L 1120 761 L 1 761 Z M 1 0.398438 " clip-rule="nonzero"/></clipPath><clipPath id="aff7d6fffc"><path d="M 1118.574219 175.0625 C 1110.847656 80.980469 1033.128906 5.988281 939.046875 0.988281 C 866.328125 -3.101562 801.789062 33.714844 766.339844 90.523438 C 748.613281 118.703125 713.617188 130.519531 681.800781 120.066406 C 657.261719 111.886719 630.445312 107.339844 603.175781 107.339844 C 523.183594 107.339844 451.828125 144.609375 405.46875 203.242188 C 378.652344 237.328125 335.019531 252.78125 292.296875 245.964844 C 273.664062 242.78125 254.121094 241.871094 234.578125 243.238281 C 107.773438 251.871094 6.875 355.953125 1.421875 482.757812 C -4.941406 626.832031 110.046875 745.910156 252.757812 745.910156 C 311.84375 745.910156 365.925781 725.457031 408.648438 691.824219 C 451.828125 657.738281 512.730469 659.554688 553.632812 696.371094 C 601.355469 739.09375 665.441406 764.089844 735.433594 760.453125 C 864.054688 753.636719 968.136719 648.195312 973.136719 519.570312 C 973.589844 504.574219 973.136719 490.484375 971.316406 475.9375 C 964.953125 427.308594 986.769531 380.039062 1028.585938 354.132812 C 1087.214844 318.226562 1124.9375 250.507812 1118.574219 175.0625 Z M 1118.574219 175.0625 " clip-rule="nonzero"/></clipPath><clipPath id="658810e52a"><rect x="0" width="1124" y="0" height="765"/></clipPath></defs><g mask="url(#462cb4238f)"><g transform="matrix(1, 0, 0, 1, 280, 92)"><g clip-path="url(#658810e52a)"><g clip-path="url(#0f7edd0f0a)"><g clip-path="url(#aff7d6fffc)"><path fill="#2fda77" d="M 0.800781 0.398438 L 0.800781 764.089844 L 1123.761719 764.089844 L 1123.761719 0.398438 Z M 0.800781 0.398438 " fill-opacity="1" fill-rule="nonzero"/></g></g></g></g></g></svg>