<svg width="242" height="161" viewBox="0 0 242 161" fill="none" xmlns="http://www.w3.org/2000/svg">
<path d="M1 16C1 7.43959 7.93959 0.5 16.5 0.5H226C234.56 0.5 241.5 7.43959 241.5 16V145C241.5 153.56 234.56 160.5 226 160.5H16.5C7.93959 160.5 1 153.56 1 145V16Z" fill="white"/>
<path d="M1 16C1 7.43959 7.93959 0.5 16.5 0.5H226C234.56 0.5 241.5 7.43959 241.5 16V145C241.5 153.56 234.56 160.5 226 160.5H16.5C7.93959 160.5 1 153.56 1 145V16Z" stroke="#E1E8EB"/>
<rect x="16.5" y="16" width="40" height="40" rx="20" fill="#D3346E"/>
<path d="M33.1046 45L31.8944 43.8181L33.9882 41.7243H33.1046C31.0571 41.7243 29.3192 41.0082 27.8906 39.5761C26.4621 38.144 25.7478 36.4042 25.7478 34.3568C25.7478 32.3093 26.4621 30.5713 27.8906 29.1428C29.3192 27.7143 31.0571 27 33.1046 27H39.8954C41.9429 27 43.6809 27.7143 45.1094 29.1428C46.5379 30.5713 47.2522 32.3093 47.2522 34.3568C47.2522 36.4042 46.5379 38.144 45.1094 39.5761C43.6809 41.0082 41.9429 41.7243 39.8954 41.7243V40.0266C41.4683 40.0266 42.8047 39.4748 43.9046 38.3713C45.0045 37.2678 45.5545 35.9296 45.5545 34.3568C45.5545 32.7839 45.0045 31.4475 43.9046 30.3476C42.8047 29.2477 41.4683 28.6977 39.8954 28.6977H33.1046C31.5318 28.6977 30.1954 29.2477 29.0954 30.3476C27.9955 31.4475 27.4455 32.7839 27.4455 34.3568C27.4455 35.9296 27.9955 37.2736 29.0954 38.3888C30.1954 39.504 31.5318 40.0964 33.1046 40.166H34.145L31.9227 37.9327L33.1046 36.7511L37.2292 40.8754L33.1046 45Z" fill="white"/>
<rect x="186" y="16" width="40" height="40" rx="20" fill="#F2F4F5"/>
<path d="M210.501 44H201.45V33.6752L207.158 28L207.886 28.7279C207.976 28.8172 208.05 28.9355 208.109 29.0828C208.168 29.2301 208.197 29.3688 208.197 29.499V29.7174L207.284 33.6752H213.049C213.458 33.6752 213.819 33.8322 214.133 34.1461C214.447 34.4598 214.604 34.8213 214.604 35.2306V36.6203C214.604 36.7097 214.592 36.8062 214.569 36.9099C214.546 37.0136 214.52 37.1101 214.492 37.1996L212.026 43.0172C211.903 43.293 211.696 43.5257 211.406 43.7154C211.116 43.9051 210.814 44 210.501 44ZM202.74 42.7094H210.501C210.561 42.7094 210.623 42.6928 210.687 42.6597C210.75 42.6266 210.798 42.5714 210.832 42.4943L213.313 36.6866V35.2306C213.313 35.1533 213.289 35.0898 213.239 35.0402C213.189 34.9906 213.126 34.9658 213.049 34.9658H205.653L206.731 30.2502L202.74 34.2246V42.7094ZM201.45 33.6752V34.9658H198.687V42.7094H201.45V44H197.396V33.6752H201.45Z" fill="#526067"/>
<path d="M16.488 84L20.292 75.6H21.48L25.296 84H24.036L20.64 76.272H21.12L17.724 84H16.488ZM18.108 81.9L18.432 80.94H23.16L23.508 81.9H18.108ZM26.5491 84V75.6H30.0891C30.9851 75.6 31.7731 75.776 32.4531 76.128C33.1411 76.48 33.6731 76.972 34.0491 77.604C34.4331 78.236 34.6251 78.968 34.6251 79.8C34.6251 80.632 34.4331 81.364 34.0491 81.996C33.6731 82.628 33.1411 83.12 32.4531 83.472C31.7731 83.824 30.9851 84 30.0891 84H26.5491ZM27.7491 82.956H30.0171C30.7131 82.956 31.3131 82.824 31.8171 82.56C32.3291 82.296 32.7251 81.928 33.0051 81.456C33.2851 80.976 33.4251 80.424 33.4251 79.8C33.4251 79.168 33.2851 78.616 33.0051 78.144C32.7251 77.672 32.3291 77.304 31.8171 77.04C31.3131 76.776 30.7131 76.644 30.0171 76.644H27.7491V82.956ZM38.9111 84.096C38.2711 84.096 37.6591 84 37.0751 83.808C36.4911 83.608 36.0311 83.352 35.6951 83.04L36.1391 82.104C36.4591 82.384 36.8671 82.616 37.3631 82.8C37.8591 82.984 38.3751 83.076 38.9111 83.076C39.3991 83.076 39.7951 83.02 40.0991 82.908C40.4031 82.796 40.6271 82.644 40.7711 82.452C40.9151 82.252 40.9871 82.028 40.9871 81.78C40.9871 81.492 40.8911 81.26 40.6991 81.084C40.5151 80.908 40.2711 80.768 39.9671 80.664C39.6711 80.552 39.3431 80.456 38.9831 80.376C38.6231 80.296 38.2591 80.204 37.8911 80.1C37.5311 79.988 37.1991 79.848 36.8951 79.68C36.5991 79.512 36.3591 79.288 36.1751 79.008C35.9911 78.72 35.8991 78.352 35.8991 77.904C35.8991 77.472 36.0111 77.076 36.2351 76.716C36.4671 76.348 36.8191 76.056 37.2911 75.84C37.7711 75.616 38.3791 75.504 39.1151 75.504C39.6031 75.504 40.0871 75.568 40.5671 75.696C41.0471 75.824 41.4631 76.008 41.8151 76.248L41.4191 77.208C41.0591 76.968 40.6791 76.796 40.2791 76.692C39.8791 76.58 39.4911 76.524 39.1151 76.524C38.6431 76.524 38.2551 76.584 37.9511 76.704C37.6471 76.824 37.4231 76.984 37.2791 77.184C37.1431 77.384 37.0751 77.608 37.0751 77.856C37.0751 78.152 37.1671 78.388 37.3511 78.564C37.5431 78.74 37.7871 78.88 38.0831 78.984C38.3871 79.088 38.7191 79.184 39.0791 79.272C39.4391 79.352 39.7991 79.444 40.1591 79.548C40.5271 79.652 40.8591 79.788 41.1551 79.956C41.4591 80.124 41.7031 80.348 41.8871 80.628C42.0711 80.908 42.1631 81.268 42.1631 81.708C42.1631 82.132 42.0471 82.528 41.8151 82.896C41.5831 83.256 41.2231 83.548 40.7351 83.772C40.2551 83.988 39.6471 84.096 38.9111 84.096ZM47.1389 84V75.6H50.4149C51.1509 75.6 51.7789 75.716 52.2989 75.948C52.8189 76.18 53.2189 76.516 53.4989 76.956C53.7789 77.396 53.9189 77.92 53.9189 78.528C53.9189 79.136 53.7789 79.66 53.4989 80.1C53.2189 80.532 52.8189 80.864 52.2989 81.096C51.7789 81.328 51.1509 81.444 50.4149 81.444H47.7989L48.3389 80.892V84H47.1389ZM52.7549 84L50.6189 80.952H51.9029L54.0629 84H52.7549ZM48.3389 81.012L47.7989 80.424H50.3789C51.1469 80.424 51.7269 80.26 52.1189 79.932C52.5189 79.596 52.7189 79.128 52.7189 78.528C52.7189 77.928 52.5189 77.464 52.1189 77.136C51.7269 76.808 51.1469 76.644 50.3789 76.644H47.7989L48.3389 76.044V81.012ZM59.3377 84.096C58.2337 84.096 57.3657 83.78 56.7337 83.148C56.1017 82.516 55.7857 81.592 55.7857 80.376V75.6H56.9857V80.328C56.9857 81.264 57.1897 81.948 57.5977 82.38C58.0137 82.812 58.5977 83.028 59.3497 83.028C60.1097 83.028 60.6937 82.812 61.1017 82.38C61.5177 81.948 61.7257 81.264 61.7257 80.328V75.6H62.8897V80.376C62.8897 81.592 62.5737 82.516 61.9417 83.148C61.3177 83.78 60.4497 84.096 59.3377 84.096ZM65.3498 84V75.6H66.3338L71.8898 82.5H71.3738V75.6H72.5738V84H71.5898L66.0338 77.1H66.5498V84H65.3498ZM75.0881 84V75.6H76.0721L81.6281 82.5H81.1121V75.6H82.3121V84H81.3281L75.7721 77.1H76.2881V84H75.0881ZM84.8264 84V75.6H86.0264V84H84.8264ZM88.5413 84V75.6H89.5253L95.0813 82.5H94.5653V75.6H95.7653V84H94.7812L89.2253 77.1H89.7413V84H88.5413ZM102.072 84.096C101.424 84.096 100.828 83.992 100.284 83.784C99.7395 83.568 99.2675 83.268 98.8675 82.884C98.4675 82.492 98.1555 82.036 97.9315 81.516C97.7075 80.996 97.5955 80.424 97.5955 79.8C97.5955 79.176 97.7075 78.604 97.9315 78.084C98.1555 77.564 98.4675 77.112 98.8675 76.728C99.2755 76.336 99.7515 76.036 100.296 75.828C100.84 75.612 101.44 75.504 102.096 75.504C102.76 75.504 103.368 75.612 103.92 75.828C104.472 76.044 104.94 76.368 105.324 76.8L104.58 77.544C104.236 77.208 103.86 76.964 103.452 76.812C103.052 76.652 102.616 76.572 102.144 76.572C101.664 76.572 101.216 76.652 100.8 76.812C100.392 76.972 100.036 77.196 99.7315 77.484C99.4355 77.772 99.2035 78.116 99.0355 78.516C98.8755 78.908 98.7955 79.336 98.7955 79.8C98.7955 80.256 98.8755 80.684 99.0355 81.084C99.2035 81.476 99.4355 81.82 99.7315 82.116C100.036 82.404 100.392 82.628 100.8 82.788C101.208 82.948 101.652 83.028 102.132 83.028C102.58 83.028 103.008 82.96 103.416 82.824C103.832 82.68 104.216 82.444 104.568 82.116L105.252 83.028C104.836 83.38 104.348 83.648 103.788 83.832C103.236 84.008 102.664 84.096 102.072 84.096ZM104.1 82.872V79.752H105.252V83.028L104.1 82.872Z" fill="#3E4C54"/>
<path d="M17.34 114V111.912L24.012 105.576C24.572 105.048 24.988 104.584 25.26 104.184C25.532 103.784 25.708 103.416 25.788 103.08C25.884 102.728 25.932 102.4 25.932 102.096C25.932 101.328 25.668 100.736 25.14 100.32C24.612 99.888 23.836 99.672 22.812 99.672C21.996 99.672 21.252 99.816 20.58 100.104C19.924 100.392 19.356 100.832 18.876 101.424L16.692 99.744C17.348 98.864 18.228 98.184 19.332 97.704C20.452 97.208 21.7 96.96 23.076 96.96C24.292 96.96 25.348 97.16 26.244 97.56C27.156 97.944 27.852 98.496 28.332 99.216C28.828 99.936 29.076 100.792 29.076 101.784C29.076 102.328 29.004 102.872 28.86 103.416C28.716 103.944 28.444 104.504 28.044 105.096C27.644 105.688 27.06 106.352 26.292 107.088L20.556 112.536L19.908 111.36H29.724V114H17.34ZM30.9332 110.184V108.024L39.2132 97.2H42.5492L34.3892 108.024L32.8292 107.544H46.1492V110.184H30.9332ZM40.1492 114V110.184L40.2452 107.544V104.16H43.1732V114H40.1492Z" fill="#1C252A"/>
<path d="M24.8333 130.994V141.751L28.2718 138.317L28.7308 138.776L24.5 143.006L20.2692 138.776L20.7282 138.3L24.1667 141.738V130.994H24.8333Z" fill="#C70E0E"/>
<path d="M36.322 142.084C35.622 142.084 34.9547 141.972 34.32 141.748C33.6853 141.515 33.1813 141.207 32.808 140.824L33.298 140.026C33.606 140.353 34.026 140.623 34.558 140.838C35.0993 141.053 35.6827 141.16 36.308 141.16C37.1387 141.16 37.7687 140.978 38.198 140.614C38.6367 140.241 38.856 139.755 38.856 139.158C38.856 138.738 38.7533 138.379 38.548 138.08C38.352 137.772 38.016 137.534 37.54 137.366C37.064 137.198 36.4107 137.114 35.58 137.114H33.494L33.998 132.2H39.36V133.096H34.404L34.922 132.606L34.488 136.722L33.97 136.218H35.804C36.7933 136.218 37.5867 136.339 38.184 136.582C38.7813 136.825 39.2107 137.165 39.472 137.604C39.7427 138.033 39.878 138.537 39.878 139.116C39.878 139.667 39.7473 140.171 39.486 140.628C39.2247 141.076 38.8327 141.431 38.31 141.692C37.7873 141.953 37.1247 142.084 36.322 142.084ZM40.9073 142V141.286L44.9813 137.296C45.3547 136.932 45.6347 136.615 45.8213 136.344C46.008 136.064 46.134 135.803 46.1993 135.56C46.2647 135.317 46.2973 135.089 46.2973 134.874C46.2973 134.305 46.1013 133.857 45.7093 133.53C45.3267 133.203 44.7573 133.04 44.0013 133.04C43.4227 133.04 42.9093 133.129 42.4613 133.306C42.0227 133.483 41.6447 133.759 41.3273 134.132L40.6133 133.516C40.996 133.068 41.486 132.723 42.0833 132.48C42.6807 132.237 43.348 132.116 44.0853 132.116C44.748 132.116 45.322 132.223 45.8073 132.438C46.2927 132.643 46.666 132.947 46.9273 133.348C47.198 133.749 47.3333 134.221 47.3333 134.762C47.3333 135.079 47.2867 135.392 47.1933 135.7C47.1093 136.008 46.9507 136.335 46.7173 136.68C46.4933 137.016 46.162 137.399 45.7233 137.828L41.9853 141.496L41.7053 141.104H47.7813V142H40.9073ZM49.2391 144.044L49.8551 141.454L49.9671 142.056C49.7524 142.056 49.5704 141.986 49.4211 141.846C49.2811 141.706 49.2111 141.524 49.2111 141.3C49.2111 141.076 49.2811 140.894 49.4211 140.754C49.5704 140.614 49.7477 140.544 49.9531 140.544C50.1677 140.544 50.3404 140.619 50.4711 140.768C50.6111 140.917 50.6811 141.095 50.6811 141.3C50.6811 141.375 50.6764 141.449 50.6671 141.524C50.6577 141.599 50.6391 141.683 50.6111 141.776C50.5831 141.869 50.5457 141.981 50.4991 142.112L49.9111 144.044H49.2391ZM56.0175 142.084C55.1495 142.084 54.4168 141.893 53.8195 141.51C53.2222 141.118 52.7695 140.558 52.4615 139.83C52.1535 139.093 51.9995 138.211 51.9995 137.184C51.9995 136.073 52.1862 135.145 52.5595 134.398C52.9422 133.642 53.4695 133.073 54.1415 132.69C54.8135 132.307 55.5928 132.116 56.4795 132.116C56.9182 132.116 57.3382 132.158 57.7395 132.242C58.1408 132.326 58.4955 132.461 58.8035 132.648L58.3975 133.46C58.1455 133.292 57.8562 133.175 57.5295 133.11C57.2028 133.035 56.8575 132.998 56.4935 132.998C55.4388 132.998 54.5942 133.334 53.9595 134.006C53.3342 134.678 53.0215 135.681 53.0215 137.016C53.0215 137.221 53.0308 137.478 53.0495 137.786C53.0775 138.085 53.1335 138.383 53.2175 138.682L52.8675 138.416C52.9702 137.931 53.1708 137.52 53.4695 137.184C53.7682 136.839 54.1415 136.577 54.5895 136.4C55.0375 136.223 55.5275 136.134 56.0595 136.134C56.7128 136.134 57.2868 136.255 57.7815 136.498C58.2762 136.741 58.6635 137.081 58.9435 137.52C59.2235 137.959 59.3635 138.477 59.3635 139.074C59.3635 139.681 59.2188 140.213 58.9295 140.67C58.6402 141.118 58.2388 141.468 57.7255 141.72C57.2215 141.963 56.6522 142.084 56.0175 142.084ZM55.9755 141.23C56.4422 141.23 56.8528 141.146 57.2075 140.978C57.5715 140.801 57.8562 140.553 58.0615 140.236C58.2668 139.909 58.3695 139.531 58.3695 139.102C58.3695 138.458 58.1455 137.945 57.6975 137.562C57.2588 137.179 56.6615 136.988 55.9055 136.988C55.4015 136.988 54.9628 137.081 54.5895 137.268C54.2162 137.455 53.9222 137.711 53.7075 138.038C53.4928 138.355 53.3855 138.719 53.3855 139.13C53.3855 139.485 53.4835 139.825 53.6795 140.152C53.8755 140.469 54.1648 140.731 54.5475 140.936C54.9395 141.132 55.4155 141.23 55.9755 141.23ZM62.1434 142L66.3714 132.648L66.6794 133.096H60.6174L61.1354 132.606V134.93H60.1414V132.2H67.3374V132.914L63.2354 142H62.1434ZM69.9815 142L76.6735 132.2H77.4995L70.8075 142H69.9815ZM70.7375 137.45C70.2988 137.45 69.9115 137.343 69.5755 137.128C69.2395 136.904 68.9782 136.591 68.7915 136.19C68.6142 135.789 68.5255 135.322 68.5255 134.79C68.5255 134.258 68.6142 133.791 68.7915 133.39C68.9782 132.989 69.2395 132.681 69.5755 132.466C69.9115 132.242 70.2988 132.13 70.7375 132.13C71.1762 132.13 71.5588 132.242 71.8855 132.466C72.2215 132.681 72.4828 132.989 72.6695 133.39C72.8562 133.791 72.9495 134.258 72.9495 134.79C72.9495 135.322 72.8562 135.789 72.6695 136.19C72.4828 136.591 72.2215 136.904 71.8855 137.128C71.5588 137.343 71.1762 137.45 70.7375 137.45ZM70.7375 136.82C71.1948 136.82 71.5588 136.643 71.8295 136.288C72.1095 135.924 72.2495 135.425 72.2495 134.79C72.2495 134.155 72.1095 133.661 71.8295 133.306C71.5588 132.942 71.1948 132.76 70.7375 132.76C70.2708 132.76 69.9022 132.942 69.6315 133.306C69.3608 133.661 69.2255 134.155 69.2255 134.79C69.2255 135.425 69.3608 135.924 69.6315 136.288C69.9022 136.643 70.2708 136.82 70.7375 136.82ZM76.7435 142.07C76.3142 142.07 75.9315 141.963 75.5955 141.748C75.2595 141.524 74.9982 141.211 74.8115 140.81C74.6248 140.409 74.5315 139.942 74.5315 139.41C74.5315 138.878 74.6248 138.411 74.8115 138.01C74.9982 137.609 75.2595 137.301 75.5955 137.086C75.9315 136.862 76.3142 136.75 76.7435 136.75C77.1915 136.75 77.5788 136.862 77.9055 137.086C78.2415 137.301 78.4982 137.609 78.6755 138.01C78.8622 138.411 78.9555 138.878 78.9555 139.41C78.9555 139.942 78.8622 140.409 78.6755 140.81C78.4982 141.211 78.2415 141.524 77.9055 141.748C77.5788 141.963 77.1915 142.07 76.7435 142.07ZM76.7435 141.44C77.2008 141.44 77.5648 141.263 77.8355 140.908C78.1155 140.544 78.2555 140.045 78.2555 139.41C78.2555 138.775 78.1155 138.281 77.8355 137.926C77.5648 137.562 77.2008 137.38 76.7435 137.38C76.2862 137.38 75.9175 137.562 75.6375 137.926C75.3668 138.281 75.2315 138.775 75.2315 139.41C75.2315 140.045 75.3668 140.544 75.6375 140.908C75.9175 141.263 76.2862 141.44 76.7435 141.44Z" fill="#C70E0E"/>
<path d="M85.55 140.5V133.5H86.55V139.63H90.34V140.5H85.55ZM94.6375 140.5V139.38L94.5875 139.17V137.26C94.5875 136.853 94.4675 136.54 94.2275 136.32C93.9942 136.093 93.6408 135.98 93.1675 135.98C92.8542 135.98 92.5475 136.033 92.2475 136.14C91.9475 136.24 91.6942 136.377 91.4875 136.55L91.0875 135.83C91.3608 135.61 91.6875 135.443 92.0675 135.33C92.4542 135.21 92.8575 135.15 93.2775 135.15C94.0042 135.15 94.5642 135.327 94.9575 135.68C95.3508 136.033 95.5475 136.573 95.5475 137.3V140.5H94.6375ZM92.8975 140.56C92.5042 140.56 92.1575 140.493 91.8575 140.36C91.5642 140.227 91.3375 140.043 91.1775 139.81C91.0175 139.57 90.9375 139.3 90.9375 139C90.9375 138.713 91.0042 138.453 91.1375 138.22C91.2775 137.987 91.5008 137.8 91.8075 137.66C92.1208 137.52 92.5408 137.45 93.0675 137.45H94.7475V138.14H93.1075C92.6275 138.14 92.3042 138.22 92.1375 138.38C91.9708 138.54 91.8875 138.733 91.8875 138.96C91.8875 139.22 91.9908 139.43 92.1975 139.59C92.4042 139.743 92.6908 139.82 93.0575 139.82C93.4175 139.82 93.7308 139.74 93.9975 139.58C94.2708 139.42 94.4675 139.187 94.5875 138.88L94.7775 139.54C94.6508 139.853 94.4275 140.103 94.1075 140.29C93.7875 140.47 93.3842 140.56 92.8975 140.56ZM98.8441 140.56C98.4041 140.56 97.9841 140.5 97.5841 140.38C97.1907 140.26 96.8807 140.113 96.6541 139.94L97.0541 139.18C97.2807 139.333 97.5607 139.463 97.8941 139.57C98.2274 139.677 98.5674 139.73 98.9141 139.73C99.3607 139.73 99.6807 139.667 99.8741 139.54C100.074 139.413 100.174 139.237 100.174 139.01C100.174 138.843 100.114 138.713 99.9941 138.62C99.8741 138.527 99.7141 138.457 99.5141 138.41C99.3207 138.363 99.1041 138.323 98.8641 138.29C98.6241 138.25 98.3841 138.203 98.1441 138.15C97.9041 138.09 97.6841 138.01 97.4841 137.91C97.2841 137.803 97.1241 137.66 97.0041 137.48C96.8841 137.293 96.8241 137.047 96.8241 136.74C96.8241 136.42 96.9141 136.14 97.0941 135.9C97.2741 135.66 97.5274 135.477 97.8541 135.35C98.1874 135.217 98.5807 135.15 99.0341 135.15C99.3807 135.15 99.7307 135.193 100.084 135.28C100.444 135.36 100.737 135.477 100.964 135.63L100.554 136.39C100.314 136.23 100.064 136.12 99.8041 136.06C99.5441 136 99.2841 135.97 99.0241 135.97C98.6041 135.97 98.2907 136.04 98.0841 136.18C97.8774 136.313 97.7741 136.487 97.7741 136.7C97.7741 136.88 97.8341 137.02 97.9541 137.12C98.0807 137.213 98.2407 137.287 98.4341 137.34C98.6341 137.393 98.8541 137.44 99.0941 137.48C99.3341 137.513 99.5741 137.56 99.8141 137.62C100.054 137.673 100.271 137.75 100.464 137.85C100.664 137.95 100.824 138.09 100.944 138.27C101.071 138.45 101.134 138.69 101.134 138.99C101.134 139.31 101.041 139.587 100.854 139.82C100.667 140.053 100.404 140.237 100.064 140.37C99.7241 140.497 99.3174 140.56 98.8441 140.56ZM104.154 140.56C103.62 140.56 103.207 140.417 102.914 140.13C102.62 139.843 102.474 139.433 102.474 138.9V134.04H103.434V138.86C103.434 139.147 103.504 139.367 103.644 139.52C103.79 139.673 103.997 139.75 104.264 139.75C104.564 139.75 104.814 139.667 105.014 139.5L105.314 140.19C105.167 140.317 104.99 140.41 104.784 140.47C104.584 140.53 104.374 140.56 104.154 140.56ZM101.574 135.99V135.2H104.954V135.99H101.574ZM115.79 135.15C116.217 135.15 116.593 135.233 116.92 135.4C117.247 135.567 117.5 135.82 117.68 136.16C117.867 136.5 117.96 136.93 117.96 137.45V140.5H117V137.56C117 137.047 116.88 136.66 116.64 136.4C116.4 136.14 116.063 136.01 115.63 136.01C115.31 136.01 115.03 136.077 114.79 136.21C114.55 136.343 114.363 136.54 114.23 136.8C114.103 137.06 114.04 137.383 114.04 137.77V140.5H113.08V137.56C113.08 137.047 112.96 136.66 112.72 136.4C112.487 136.14 112.15 136.01 111.71 136.01C111.397 136.01 111.12 136.077 110.88 136.21C110.64 136.343 110.453 136.54 110.32 136.8C110.187 137.06 110.12 137.383 110.12 137.77V140.5H109.16V135.2H110.08V136.61L109.93 136.25C110.097 135.903 110.353 135.633 110.7 135.44C111.047 135.247 111.45 135.15 111.91 135.15C112.417 135.15 112.853 135.277 113.22 135.53C113.587 135.777 113.827 136.153 113.94 136.66L113.55 136.5C113.71 136.093 113.99 135.767 114.39 135.52C114.79 135.273 115.257 135.15 115.79 135.15ZM121.996 140.56C121.463 140.56 120.99 140.443 120.576 140.21C120.163 139.977 119.836 139.657 119.596 139.25C119.356 138.837 119.236 138.37 119.236 137.85C119.236 137.323 119.356 136.857 119.596 136.45C119.836 136.043 120.163 135.727 120.576 135.5C120.99 135.267 121.463 135.15 121.996 135.15C122.523 135.15 122.993 135.267 123.406 135.5C123.826 135.727 124.153 136.043 124.386 136.45C124.626 136.85 124.746 137.317 124.746 137.85C124.746 138.377 124.626 138.843 124.386 139.25C124.153 139.657 123.826 139.977 123.406 140.21C122.993 140.443 122.523 140.56 121.996 140.56ZM121.996 139.72C122.336 139.72 122.64 139.643 122.906 139.49C123.18 139.337 123.393 139.12 123.546 138.84C123.7 138.553 123.776 138.223 123.776 137.85C123.776 137.47 123.7 137.143 123.546 136.87C123.393 136.59 123.18 136.373 122.906 136.22C122.64 136.067 122.336 135.99 121.996 135.99C121.656 135.99 121.353 136.067 121.086 136.22C120.82 136.373 120.606 136.59 120.446 136.87C120.286 137.143 120.206 137.47 120.206 137.85C120.206 138.223 120.286 138.553 120.446 138.84C120.606 139.12 120.82 139.337 121.086 139.49C121.353 139.643 121.656 139.72 121.996 139.72ZM128.904 135.15C129.337 135.15 129.717 135.233 130.044 135.4C130.377 135.567 130.637 135.82 130.824 136.16C131.011 136.5 131.104 136.93 131.104 137.45V140.5H130.144V137.56C130.144 137.047 130.017 136.66 129.764 136.4C129.517 136.14 129.167 136.01 128.714 136.01C128.374 136.01 128.077 136.077 127.824 136.21C127.571 136.343 127.374 136.54 127.234 136.8C127.101 137.06 127.034 137.383 127.034 137.77V140.5H126.074V135.2H126.994V136.63L126.844 136.25C127.017 135.903 127.284 135.633 127.644 135.44C128.004 135.247 128.424 135.15 128.904 135.15ZM134.701 140.56C134.167 140.56 133.754 140.417 133.461 140.13C133.167 139.843 133.021 139.433 133.021 138.9V134.04H133.981V138.86C133.981 139.147 134.051 139.367 134.191 139.52C134.337 139.673 134.544 139.75 134.811 139.75C135.111 139.75 135.361 139.667 135.561 139.5L135.861 140.19C135.714 140.317 135.537 140.41 135.331 140.47C135.131 140.53 134.921 140.56 134.701 140.56ZM132.121 135.99V135.2H135.501V135.99H132.121ZM139.851 135.15C140.285 135.15 140.665 135.233 140.991 135.4C141.325 135.567 141.585 135.82 141.771 136.16C141.958 136.5 142.051 136.93 142.051 137.45V140.5H141.091V137.56C141.091 137.047 140.965 136.66 140.711 136.4C140.465 136.14 140.115 136.01 139.661 136.01C139.321 136.01 139.025 136.077 138.771 136.21C138.518 136.343 138.321 136.54 138.181 136.8C138.048 137.06 137.981 137.383 137.981 137.77V140.5H137.021V133.08H137.981V136.63L137.791 136.25C137.965 135.903 138.231 135.633 138.591 135.44C138.951 135.247 139.371 135.15 139.851 135.15Z" fill="#859096"/>
</svg>
