<svg xmlns="http://www.w3.org/2000/svg" xmlns:xlink="http://www.w3.org/1999/xlink" width="40" zoomAndPan="magnify" viewBox="0 0 30 30.000001" height="40" preserveAspectRatio="xMidYMid meet" version="1.0"><defs><clipPath id="7180e9841e"><path d="M 2.886719 7.648438 L 26.839844 7.648438 L 26.839844 21.4375 L 2.886719 21.4375 Z M 2.886719 7.648438 " clip-rule="nonzero"/></clipPath></defs><g clip-path="url(#7180e9841e)"><path fill="#38ef7d" d="M 15.917969 11.375 C 15.921875 11.375 15.925781 11.371094 15.925781 11.363281 C 15.878906 10.632812 15.839844 9.894531 15.832031 9.160156 C 15.832031 8.957031 15.839844 8.769531 15.855469 8.589844 C 15.898438 8.132812 16.097656 7.648438 16.648438 7.660156 C 16.902344 7.664062 17.175781 7.769531 17.421875 7.890625 C 17.621094 7.984375 17.839844 8.105469 18.089844 8.25 C 18.628906 8.5625 19.164062 8.878906 19.695312 9.199219 C 20.742188 9.828125 21.78125 10.464844 22.820312 11.105469 C 22.890625 11.152344 22.964844 11.195312 23.035156 11.238281 C 24.1875 11.941406 25.003906 12.4375 25.96875 13.066406 C 26.214844 13.226562 26.429688 13.386719 26.613281 13.550781 C 26.757812 13.675781 26.890625 13.859375 26.945312 14.039062 C 27.109375 14.566406 26.679688 15.035156 26.3125 15.355469 C 26.058594 15.574219 25.785156 15.796875 25.484375 16.015625 C 23.8125 17.25 22.105469 18.492188 20.429688 19.664062 C 19.863281 20.058594 19.261719 20.449219 18.640625 20.785156 C 18.402344 20.917969 18.140625 21.035156 17.851562 21.144531 C 17.671875 21.210938 17.5 21.257812 17.335938 21.285156 C 16.726562 21.382812 16.410156 20.863281 16.277344 20.363281 C 16.210938 20.125 16.167969 19.875 16.144531 19.609375 C 16.085938 18.980469 16.046875 18.214844 16.023438 17.742188 C 16.019531 17.640625 16.007812 17.542969 15.984375 17.453125 C 15.957031 17.34375 15.886719 17.261719 15.78125 17.214844 C 15.578125 17.132812 15.335938 17.109375 15.113281 17.09375 C 15.042969 17.089844 14.960938 17.085938 14.863281 17.082031 C 14.484375 17.074219 14.089844 17.078125 13.6875 17.09375 C 13.289062 17.109375 12.613281 17.132812 11.65625 17.164062 C 11.363281 17.171875 10.71875 17.179688 9.722656 17.1875 C 8.902344 17.195312 8.050781 17.222656 7.167969 17.269531 C 6.355469 17.316406 5.550781 17.398438 4.738281 17.433594 C 4.472656 17.441406 4.175781 17.4375 3.929688 17.355469 C 3.546875 17.230469 3.316406 16.921875 3.183594 16.550781 C 3.101562 16.324219 3.042969 16.085938 3.003906 15.835938 C 2.910156 15.203125 2.890625 14.558594 2.910156 13.917969 C 2.917969 13.675781 2.941406 13.449219 3.015625 13.222656 C 3.308594 12.328125 4.277344 12.160156 5.085938 12.070312 C 5.28125 12.050781 5.539062 12.027344 5.855469 12.003906 C 7.488281 11.871094 8.941406 11.765625 10.222656 11.683594 C 10.308594 11.679688 10.390625 11.675781 10.472656 11.667969 C 11.285156 11.609375 12.097656 11.550781 12.914062 11.496094 C 13.914062 11.425781 14.914062 11.402344 15.917969 11.375 Z M 15.917969 11.375 " fill-opacity="1" fill-rule="nonzero"/></g></svg>