<svg width="242" height="160" viewBox="0 0 242 160" fill="none" xmlns="http://www.w3.org/2000/svg">
<rect x="0.5" y="0.5" width="240.5" height="159" rx="15.5" fill="white"/>
<rect x="0.5" y="0.5" width="240.5" height="159" rx="15.5" stroke="#E1E8EB"/>
<rect x="16" y="16" width="40" height="40" rx="20" fill="#02B194"/>
<path d="M35.025 45V42.85C34.1416 42.65 33.3791 42.2667 32.7375 41.7C32.0958 41.1333 31.625 40.3333 31.325 39.3L33.175 38.55C33.425 39.35 33.7958 39.9583 34.2875 40.375C34.7791 40.7917 35.425 41 36.225 41C36.9083 41 37.4875 40.8458 37.9625 40.5375C38.4375 40.2292 38.675 39.75 38.675 39.1C38.675 38.5167 38.4916 38.0542 38.125 37.7125C37.7583 37.3708 36.9083 36.9833 35.575 36.55C34.1416 36.1 33.1583 35.5625 32.625 34.9375C32.0916 34.3125 31.825 33.55 31.825 32.65C31.825 31.5667 32.175 30.725 32.875 30.125C33.575 29.525 34.2916 29.1833 35.025 29.1V27H37.025V29.1C37.8583 29.2333 38.5458 29.5375 39.0875 30.0125C39.6291 30.4875 40.025 31.0667 40.275 31.75L38.425 32.55C38.225 32.0167 37.9416 31.6167 37.575 31.35C37.2083 31.0833 36.7083 30.95 36.075 30.95C35.3416 30.95 34.7833 31.1125 34.4 31.4375C34.0166 31.7625 33.825 32.1667 33.825 32.65C33.825 33.2 34.075 33.6333 34.575 33.95C35.075 34.2667 35.9416 34.6 37.175 34.95C38.325 35.2833 39.1958 35.8125 39.7875 36.5375C40.3791 37.2625 40.675 38.1 40.675 39.05C40.675 40.2333 40.325 41.1333 39.625 41.75C38.925 42.3667 38.0583 42.75 37.025 42.9V45H35.025Z" fill="white"/>
<rect x="185.5" y="16" width="40" height="40" rx="20" fill="#F2F4F5"/>
<path d="M210.001 44H200.95V33.6752L206.658 28L207.386 28.7279C207.476 28.8172 207.55 28.9355 207.609 29.0828C207.668 29.2301 207.697 29.3688 207.697 29.499V29.7174L206.784 33.6752H212.549C212.958 33.6752 213.319 33.8322 213.633 34.1461C213.947 34.4598 214.104 34.8213 214.104 35.2306V36.6203C214.104 36.7097 214.092 36.8062 214.069 36.9099C214.046 37.0136 214.02 37.1101 213.992 37.1996L211.526 43.0172C211.403 43.293 211.196 43.5257 210.906 43.7154C210.616 43.9051 210.314 44 210.001 44ZM202.24 42.7094H210.001C210.061 42.7094 210.123 42.6928 210.187 42.6597C210.25 42.6266 210.298 42.5714 210.332 42.4943L212.813 36.6866V35.2306C212.813 35.1533 212.789 35.0898 212.739 35.0402C212.689 34.9906 212.626 34.9658 212.549 34.9658H205.153L206.231 30.2502L202.24 34.2246V42.7094ZM200.95 33.6752V34.9658H198.187V42.7094H200.95V44H196.896V33.6752H200.95Z" fill="#526067"/>
<path d="M17.26 84V75.6H21.028C21.996 75.6 22.74 75.796 23.26 76.188C23.78 76.572 24.04 77.1 24.04 77.772C24.04 78.228 23.936 78.612 23.728 78.924C23.528 79.236 23.256 79.476 22.912 79.644C22.568 79.812 22.196 79.896 21.796 79.896L22.012 79.536C22.492 79.536 22.916 79.62 23.284 79.788C23.652 79.956 23.944 80.204 24.16 80.532C24.376 80.852 24.484 81.252 24.484 81.732C24.484 82.452 24.212 83.012 23.668 83.412C23.132 83.804 22.332 84 21.268 84H17.26ZM18.46 83.028H21.22C21.884 83.028 22.392 82.916 22.744 82.692C23.096 82.468 23.272 82.116 23.272 81.636C23.272 81.148 23.096 80.792 22.744 80.568C22.392 80.344 21.884 80.232 21.22 80.232H18.352V79.26H20.92C21.528 79.26 22 79.148 22.336 78.924C22.672 78.7 22.84 78.364 22.84 77.916C22.84 77.468 22.672 77.132 22.336 76.908C22 76.684 21.528 76.572 20.92 76.572H18.46V83.028ZM29.822 84.096C28.718 84.096 27.85 83.78 27.218 83.148C26.586 82.516 26.27 81.592 26.27 80.376V75.6H27.47V80.328C27.47 81.264 27.674 81.948 28.082 82.38C28.498 82.812 29.082 83.028 29.834 83.028C30.594 83.028 31.178 82.812 31.586 82.38C32.002 81.948 32.21 81.264 32.21 80.328V75.6H33.374V80.376C33.374 81.592 33.058 82.516 32.426 83.148C31.802 83.78 30.934 84.096 29.822 84.096ZM35.8342 84V75.6H39.3742C40.2702 75.6 41.0582 75.776 41.7382 76.128C42.4262 76.48 42.9582 76.972 43.3342 77.604C43.7182 78.236 43.9102 78.968 43.9102 79.8C43.9102 80.632 43.7182 81.364 43.3342 81.996C42.9582 82.628 42.4262 83.12 41.7382 83.472C41.0582 83.824 40.2702 84 39.3742 84H35.8342ZM37.0342 82.956H39.3022C39.9982 82.956 40.5982 82.824 41.1022 82.56C41.6142 82.296 42.0102 81.928 42.2902 81.456C42.5702 80.976 42.7102 80.424 42.7102 79.8C42.7102 79.168 42.5702 78.616 42.2902 78.144C42.0102 77.672 41.6142 77.304 41.1022 77.04C40.5982 76.776 39.9982 76.644 39.3022 76.644H37.0342V82.956ZM49.5403 84.096C48.8923 84.096 48.2963 83.992 47.7523 83.784C47.2083 83.568 46.7363 83.268 46.3363 82.884C45.9363 82.492 45.6243 82.036 45.4003 81.516C45.1763 80.996 45.0643 80.424 45.0643 79.8C45.0643 79.176 45.1763 78.604 45.4003 78.084C45.6243 77.564 45.9363 77.112 46.3363 76.728C46.7443 76.336 47.2203 76.036 47.7643 75.828C48.3083 75.612 48.9083 75.504 49.5643 75.504C50.2283 75.504 50.8363 75.612 51.3883 75.828C51.9403 76.044 52.4083 76.368 52.7923 76.8L52.0483 77.544C51.7043 77.208 51.3283 76.964 50.9203 76.812C50.5203 76.652 50.0843 76.572 49.6123 76.572C49.1323 76.572 48.6843 76.652 48.2683 76.812C47.8603 76.972 47.5043 77.196 47.2003 77.484C46.9043 77.772 46.6723 78.116 46.5043 78.516C46.3443 78.908 46.2643 79.336 46.2643 79.8C46.2643 80.256 46.3443 80.684 46.5043 81.084C46.6723 81.476 46.9043 81.82 47.2003 82.116C47.5043 82.404 47.8603 82.628 48.2683 82.788C48.6763 82.948 49.1203 83.028 49.6003 83.028C50.0483 83.028 50.4763 82.96 50.8843 82.824C51.3003 82.68 51.6843 82.444 52.0363 82.116L52.7203 83.028C52.3043 83.38 51.8163 83.648 51.2563 83.832C50.7043 84.008 50.1323 84.096 49.5403 84.096ZM51.5683 82.872V79.752H52.7203V83.028L51.5683 82.872ZM56.1098 79.224H60.4298V80.244H56.1098V79.224ZM56.2178 82.956H61.1138V84H55.0178V75.6H60.9458V76.644H56.2178V82.956ZM64.7249 84V76.644H61.8449V75.6H68.7929V76.644H65.9129V84H64.7249Z" fill="#3E4C54"/>
<path d="M22.72 116.88V94.32H24.688V116.88H22.72ZM23.464 114.24C22.152 114.24 20.896 114.056 19.696 113.688C18.496 113.304 17.544 112.816 16.84 112.224L17.92 109.8C18.592 110.328 19.424 110.768 20.416 111.12C21.408 111.472 22.424 111.648 23.464 111.648C24.344 111.648 25.056 111.552 25.6 111.36C26.144 111.168 26.544 110.912 26.8 110.592C27.056 110.256 27.184 109.88 27.184 109.464C27.184 108.952 27 108.544 26.632 108.24C26.264 107.92 25.784 107.672 25.192 107.496C24.616 107.304 23.968 107.128 23.248 106.968C22.544 106.808 21.832 106.624 21.112 106.416C20.408 106.192 19.76 105.912 19.168 105.576C18.592 105.224 18.12 104.76 17.752 104.184C17.384 103.608 17.2 102.872 17.2 101.976C17.2 101.064 17.44 100.232 17.92 99.48C18.416 98.712 19.16 98.104 20.152 97.656C21.16 97.192 22.432 96.96 23.968 96.96C24.976 96.96 25.976 97.088 26.968 97.344C27.96 97.6 28.824 97.968 29.56 98.448L28.576 100.872C27.824 100.424 27.048 100.096 26.248 99.888C25.448 99.664 24.68 99.552 23.944 99.552C23.08 99.552 22.376 99.656 21.832 99.864C21.304 100.072 20.912 100.344 20.656 100.68C20.416 101.016 20.296 101.4 20.296 101.832C20.296 102.344 20.472 102.76 20.824 103.08C21.192 103.384 21.664 103.624 22.24 103.8C22.832 103.976 23.488 104.152 24.208 104.328C24.928 104.488 25.64 104.672 26.344 104.88C27.064 105.088 27.712 105.36 28.288 105.696C28.88 106.032 29.352 106.488 29.704 107.064C30.072 107.64 30.256 108.368 30.256 109.248C30.256 110.144 30.008 110.976 29.512 111.744C29.032 112.496 28.288 113.104 27.28 113.568C26.272 114.016 25 114.24 23.464 114.24ZM37.7178 114.24C36.5338 114.24 35.3738 114.072 34.2378 113.736C33.1178 113.384 32.1738 112.904 31.4058 112.296L32.7258 109.872C33.3338 110.368 34.0698 110.768 34.9338 111.072C35.8138 111.376 36.7258 111.528 37.6698 111.528C38.7738 111.528 39.6378 111.296 40.2618 110.832C40.9018 110.368 41.2218 109.744 41.2218 108.96C41.2218 108.432 41.0858 107.968 40.8138 107.568C40.5578 107.168 40.0938 106.864 39.4218 106.656C38.7658 106.448 37.8618 106.344 36.7098 106.344H32.6538L33.5178 97.2H43.3818V99.816H34.6698L36.3018 98.328L35.6538 105.168L34.0218 103.704H37.4058C39.0698 103.704 40.4058 103.928 41.4138 104.376C42.4378 104.808 43.1818 105.416 43.6458 106.2C44.1258 106.968 44.3658 107.848 44.3658 108.84C44.3658 109.816 44.1258 110.712 43.6458 111.528C43.1658 112.344 42.4298 113 41.4378 113.496C40.4618 113.992 39.2218 114.24 37.7178 114.24ZM45.8322 114V111.912L52.5042 105.576C53.0642 105.048 53.4802 104.584 53.7522 104.184C54.0242 103.784 54.2002 103.416 54.2802 103.08C54.3762 102.728 54.4242 102.4 54.4242 102.096C54.4242 101.328 54.1602 100.736 53.6322 100.32C53.1042 99.888 52.3282 99.672 51.3042 99.672C50.4882 99.672 49.7442 99.816 49.0722 100.104C48.4162 100.392 47.8482 100.832 47.3682 101.424L45.1842 99.744C45.8402 98.864 46.7202 98.184 47.8242 97.704C48.9442 97.208 50.1922 96.96 51.5682 96.96C52.7842 96.96 53.8402 97.16 54.7362 97.56C55.6482 97.944 56.3442 98.496 56.8242 99.216C57.3202 99.936 57.5682 100.792 57.5682 101.784C57.5682 102.328 57.4962 102.872 57.3522 103.416C57.2082 103.944 56.9362 104.504 56.5362 105.096C56.1362 105.688 55.5522 106.352 54.7842 107.088L49.0482 112.536L48.4002 111.36H58.2162V114H45.8322ZM62.1233 114.168C61.5793 114.168 61.1153 113.984 60.7313 113.616C60.3473 113.232 60.1553 112.752 60.1553 112.176C60.1553 111.568 60.3473 111.088 60.7313 110.736C61.1153 110.368 61.5793 110.184 62.1233 110.184C62.6673 110.184 63.1313 110.368 63.5153 110.736C63.8993 111.088 64.0913 111.568 64.0913 112.176C64.0913 112.752 63.8993 113.232 63.5153 113.616C63.1313 113.984 62.6673 114.168 62.1233 114.168ZM66.1291 114V111.912L72.8011 105.576C73.3611 105.048 73.7771 104.584 74.0491 104.184C74.3211 103.784 74.4971 103.416 74.5771 103.08C74.6731 102.728 74.7211 102.4 74.7211 102.096C74.7211 101.328 74.4571 100.736 73.9291 100.32C73.4011 99.888 72.6251 99.672 71.6011 99.672C70.7851 99.672 70.0411 99.816 69.3691 100.104C68.7131 100.392 68.1451 100.832 67.6651 101.424L65.4811 99.744C66.1371 98.864 67.0171 98.184 68.1211 97.704C69.2411 97.208 70.4891 96.96 71.8651 96.96C73.0811 96.96 74.1371 97.16 75.0331 97.56C75.9451 97.944 76.6411 98.496 77.1211 99.216C77.6171 99.936 77.8651 100.792 77.8651 101.784C77.8651 102.328 77.7931 102.872 77.6491 103.416C77.5051 103.944 77.2331 104.504 76.8331 105.096C76.4331 105.688 75.8491 106.352 75.0811 107.088L69.3451 112.536L68.6971 111.36H78.5131V114H66.1291ZM87.0578 114.24C85.6658 114.24 84.4578 114.032 83.4338 113.616C82.4098 113.2 81.6178 112.616 81.0578 111.864C80.4978 111.096 80.2178 110.2 80.2178 109.176C80.2178 108.152 80.4898 107.288 81.0338 106.584C81.5778 105.88 82.3618 105.344 83.3858 104.976C84.4098 104.608 85.6338 104.424 87.0578 104.424C88.4818 104.424 89.7058 104.608 90.7298 104.976C91.7698 105.344 92.5618 105.888 93.1058 106.608C93.6658 107.312 93.9458 108.168 93.9458 109.176C93.9458 110.2 93.6578 111.096 93.0818 111.864C92.5218 112.616 91.7218 113.2 90.6818 113.616C89.6578 114.032 88.4498 114.24 87.0578 114.24ZM87.0578 111.792C88.2098 111.792 89.1218 111.552 89.7938 111.072C90.4658 110.592 90.8018 109.928 90.8018 109.08C90.8018 108.248 90.4658 107.592 89.7938 107.112C89.1218 106.632 88.2098 106.392 87.0578 106.392C85.9058 106.392 85.0018 106.632 84.3458 107.112C83.6898 107.592 83.3618 108.248 83.3618 109.08C83.3618 109.928 83.6898 110.592 84.3458 111.072C85.0018 111.552 85.9058 111.792 87.0578 111.792ZM87.0578 106.056C85.7618 106.056 84.6498 105.888 83.7218 105.552C82.7938 105.2 82.0738 104.696 81.5618 104.04C81.0658 103.368 80.8178 102.568 80.8178 101.64C80.8178 100.68 81.0738 99.856 81.5858 99.168C82.1138 98.464 82.8498 97.92 83.7938 97.536C84.7378 97.152 85.8258 96.96 87.0578 96.96C88.3058 96.96 89.4018 97.152 90.3458 97.536C91.2898 97.92 92.0258 98.464 92.5538 99.168C93.0818 99.856 93.3458 100.68 93.3458 101.64C93.3458 102.568 93.0898 103.368 92.5778 104.04C92.0818 104.696 91.3618 105.2 90.4178 105.552C89.4738 105.888 88.3538 106.056 87.0578 106.056ZM87.0578 104.136C88.0498 104.136 88.8338 103.928 89.4098 103.512C89.9858 103.08 90.2738 102.504 90.2738 101.784C90.2738 101.032 89.9778 100.448 89.3858 100.032C88.7938 99.616 88.0178 99.408 87.0578 99.408C86.0978 99.408 85.3298 99.616 84.7538 100.032C84.1778 100.448 83.8898 101.032 83.8898 101.784C83.8898 102.504 84.1698 103.08 84.7298 103.512C85.3058 103.928 86.0818 104.136 87.0578 104.136ZM101.634 96.96C103.17 96.96 104.474 97.288 105.546 97.944C106.634 98.584 107.466 99.52 108.042 100.752C108.618 101.984 108.906 103.504 108.906 105.312C108.906 107.232 108.554 108.856 107.85 110.184C107.162 111.512 106.202 112.52 104.97 113.208C103.738 113.896 102.306 114.24 100.674 114.24C99.8261 114.24 99.0181 114.152 98.2501 113.976C97.4821 113.8 96.8181 113.528 96.2581 113.16L97.4101 110.808C97.8741 111.112 98.3781 111.328 98.9221 111.456C99.4661 111.568 100.026 111.624 100.602 111.624C102.186 111.624 103.442 111.136 104.37 110.16C105.298 109.184 105.762 107.744 105.762 105.84C105.762 105.536 105.754 105.184 105.738 104.784C105.722 104.368 105.666 103.952 105.57 103.536L106.53 104.592C106.258 105.248 105.866 105.8 105.354 106.248C104.842 106.68 104.242 107.008 103.554 107.232C102.866 107.456 102.106 107.568 101.274 107.568C100.186 107.568 99.2021 107.36 98.3221 106.944C97.4581 106.512 96.7701 105.912 96.2581 105.144C95.7461 104.36 95.4901 103.448 95.4901 102.408C95.4901 101.288 95.7621 100.328 96.3061 99.528C96.8501 98.712 97.5861 98.08 98.5141 97.632C99.4581 97.184 100.498 96.96 101.634 96.96ZM101.802 99.408C101.162 99.408 100.594 99.528 100.098 99.768C99.6021 99.992 99.2101 100.32 98.9221 100.752C98.6501 101.168 98.5141 101.672 98.5141 102.264C98.5141 103.144 98.8181 103.84 99.4261 104.352C100.034 104.864 100.85 105.12 101.874 105.12C102.546 105.12 103.138 105 103.65 104.76C104.162 104.504 104.562 104.16 104.85 103.728C105.138 103.28 105.282 102.784 105.282 102.24C105.282 101.712 105.146 101.24 104.874 100.824C104.602 100.392 104.21 100.048 103.698 99.792C103.186 99.536 102.554 99.408 101.802 99.408ZM110.856 117.624L112.248 112.32L112.656 114.096C112.096 114.096 111.624 113.928 111.24 113.592C110.872 113.24 110.688 112.768 110.688 112.176C110.688 111.568 110.872 111.088 111.24 110.736C111.624 110.368 112.088 110.184 112.632 110.184C113.192 110.184 113.656 110.368 114.024 110.736C114.392 111.104 114.576 111.584 114.576 112.176C114.576 112.336 114.56 112.512 114.528 112.704C114.496 112.88 114.44 113.088 114.36 113.328C114.296 113.568 114.184 113.872 114.024 114.24L112.8 117.624H110.856ZM123.573 114.24C122.181 114.24 120.973 114.032 119.949 113.616C118.925 113.2 118.133 112.616 117.573 111.864C117.013 111.096 116.733 110.2 116.733 109.176C116.733 108.152 117.005 107.288 117.549 106.584C118.093 105.88 118.877 105.344 119.901 104.976C120.925 104.608 122.149 104.424 123.573 104.424C124.997 104.424 126.221 104.608 127.245 104.976C128.285 105.344 129.077 105.888 129.621 106.608C130.181 107.312 130.461 108.168 130.461 109.176C130.461 110.2 130.173 111.096 129.597 111.864C129.037 112.616 128.237 113.2 127.197 113.616C126.173 114.032 124.965 114.24 123.573 114.24ZM123.573 111.792C124.725 111.792 125.637 111.552 126.309 111.072C126.981 110.592 127.317 109.928 127.317 109.08C127.317 108.248 126.981 107.592 126.309 107.112C125.637 106.632 124.725 106.392 123.573 106.392C122.421 106.392 121.517 106.632 120.861 107.112C120.205 107.592 119.877 108.248 119.877 109.08C119.877 109.928 120.205 110.592 120.861 111.072C121.517 111.552 122.421 111.792 123.573 111.792ZM123.573 106.056C122.277 106.056 121.165 105.888 120.237 105.552C119.309 105.2 118.589 104.696 118.077 104.04C117.581 103.368 117.333 102.568 117.333 101.64C117.333 100.68 117.589 99.856 118.101 99.168C118.629 98.464 119.365 97.92 120.309 97.536C121.253 97.152 122.341 96.96 123.573 96.96C124.821 96.96 125.917 97.152 126.861 97.536C127.805 97.92 128.541 98.464 129.069 99.168C129.597 99.856 129.861 100.68 129.861 101.64C129.861 102.568 129.605 103.368 129.093 104.04C128.597 104.696 127.877 105.2 126.933 105.552C125.989 105.888 124.869 106.056 123.573 106.056ZM123.573 104.136C124.565 104.136 125.349 103.928 125.925 103.512C126.501 103.08 126.789 102.504 126.789 101.784C126.789 101.032 126.493 100.448 125.901 100.032C125.309 99.616 124.533 99.408 123.573 99.408C122.613 99.408 121.845 99.616 121.269 100.032C120.693 100.448 120.405 101.032 120.405 101.784C120.405 102.504 120.685 103.08 121.245 103.512C121.821 103.928 122.597 104.136 123.573 104.136ZM137.766 114.24C136.582 114.24 135.422 114.072 134.286 113.736C133.166 113.384 132.222 112.904 131.454 112.296L132.798 109.872C133.406 110.368 134.142 110.768 135.006 111.072C135.87 111.376 136.774 111.528 137.718 111.528C138.838 111.528 139.71 111.304 140.334 110.856C140.958 110.392 141.27 109.768 141.27 108.984C141.27 108.216 140.982 107.608 140.406 107.16C139.83 106.712 138.902 106.488 137.622 106.488H136.086V104.352L140.886 98.64L141.294 99.816H132.27V97.2H143.718V99.288L138.918 105L137.286 104.04H138.222C140.286 104.04 141.83 104.504 142.854 105.432C143.894 106.344 144.414 107.52 144.414 108.96C144.414 109.904 144.174 110.776 143.694 111.576C143.214 112.376 142.478 113.024 141.486 113.52C140.51 114 139.27 114.24 137.766 114.24Z" fill="#1C252A"/>
<path d="M24.3333 129.994V140.751L27.7718 137.317L28.2308 137.776L24 142.006L19.7692 137.776L20.2282 137.3L23.6667 140.738V129.994H24.3333Z" fill="#C70E0E"/>
<path d="M34.088 141V132.96L34.472 133.368H32.108V132.6H34.952V141H34.088ZM36.8159 138.792V138.168L41.2679 132.6H42.2279L37.8119 138.168L37.3439 138.024H44.0999V138.792H36.8159ZM41.5559 141V138.792L41.5799 138.024V136.08H42.4199V141H41.5559ZM45.6583 141L51.3943 132.6H52.1023L46.3663 141H45.6583ZM46.3063 137.1C45.9303 137.1 45.5983 137.008 45.3103 136.824C45.0223 136.632 44.7983 136.364 44.6383 136.02C44.4863 135.676 44.4103 135.276 44.4103 134.82C44.4103 134.364 44.4863 133.964 44.6383 133.62C44.7983 133.276 45.0223 133.012 45.3103 132.828C45.5983 132.636 45.9303 132.54 46.3063 132.54C46.6823 132.54 47.0103 132.636 47.2903 132.828C47.5783 133.012 47.8023 133.276 47.9623 133.62C48.1223 133.964 48.2023 134.364 48.2023 134.82C48.2023 135.276 48.1223 135.676 47.9623 136.02C47.8023 136.364 47.5783 136.632 47.2903 136.824C47.0103 137.008 46.6823 137.1 46.3063 137.1ZM46.3063 136.56C46.6983 136.56 47.0103 136.408 47.2423 136.104C47.4823 135.792 47.6023 135.364 47.6023 134.82C47.6023 134.276 47.4823 133.852 47.2423 133.548C47.0103 133.236 46.6983 133.08 46.3063 133.08C45.9063 133.08 45.5903 133.236 45.3583 133.548C45.1263 133.852 45.0103 134.276 45.0103 134.82C45.0103 135.364 45.1263 135.792 45.3583 136.104C45.5903 136.408 45.9063 136.56 46.3063 136.56ZM51.4543 141.06C51.0863 141.06 50.7583 140.968 50.4703 140.784C50.1823 140.592 49.9583 140.324 49.7983 139.98C49.6383 139.636 49.5583 139.236 49.5583 138.78C49.5583 138.324 49.6383 137.924 49.7983 137.58C49.9583 137.236 50.1823 136.972 50.4703 136.788C50.7583 136.596 51.0863 136.5 51.4543 136.5C51.8383 136.5 52.1703 136.596 52.4503 136.788C52.7383 136.972 52.9583 137.236 53.1103 137.58C53.2703 137.924 53.3503 138.324 53.3503 138.78C53.3503 139.236 53.2703 139.636 53.1103 139.98C52.9583 140.324 52.7383 140.592 52.4503 140.784C52.1703 140.968 51.8383 141.06 51.4543 141.06ZM51.4543 140.52C51.8463 140.52 52.1583 140.368 52.3903 140.064C52.6303 139.752 52.7503 139.324 52.7503 138.78C52.7503 138.236 52.6303 137.812 52.3903 137.508C52.1583 137.196 51.8463 137.04 51.4543 137.04C51.0623 137.04 50.7463 137.196 50.5063 137.508C50.2743 137.812 50.1583 138.236 50.1583 138.78C50.1583 139.324 50.2743 139.752 50.5063 140.064C50.7463 140.368 51.0623 140.52 51.4543 140.52Z" fill="#C70E0E"/>
<path d="M63.05 140V133H64.05V139.13H67.84V140H63.05ZM72.1375 140V138.88L72.0875 138.67V136.76C72.0875 136.353 71.9675 136.04 71.7275 135.82C71.4942 135.593 71.1408 135.48 70.6675 135.48C70.3542 135.48 70.0475 135.533 69.7475 135.64C69.4475 135.74 69.1942 135.877 68.9875 136.05L68.5875 135.33C68.8608 135.11 69.1875 134.943 69.5675 134.83C69.9542 134.71 70.3575 134.65 70.7775 134.65C71.5042 134.65 72.0642 134.827 72.4575 135.18C72.8508 135.533 73.0475 136.073 73.0475 136.8V140H72.1375ZM70.3975 140.06C70.0042 140.06 69.6575 139.993 69.3575 139.86C69.0642 139.727 68.8375 139.543 68.6775 139.31C68.5175 139.07 68.4375 138.8 68.4375 138.5C68.4375 138.213 68.5042 137.953 68.6375 137.72C68.7775 137.487 69.0008 137.3 69.3075 137.16C69.6208 137.02 70.0408 136.95 70.5675 136.95H72.2475V137.64H70.6075C70.1275 137.64 69.8042 137.72 69.6375 137.88C69.4708 138.04 69.3875 138.233 69.3875 138.46C69.3875 138.72 69.4908 138.93 69.6975 139.09C69.9042 139.243 70.1908 139.32 70.5575 139.32C70.9175 139.32 71.2308 139.24 71.4975 139.08C71.7708 138.92 71.9675 138.687 72.0875 138.38L72.2775 139.04C72.1508 139.353 71.9275 139.603 71.6075 139.79C71.2875 139.97 70.8842 140.06 70.3975 140.06ZM76.3441 140.06C75.9041 140.06 75.4841 140 75.0841 139.88C74.6907 139.76 74.3807 139.613 74.1541 139.44L74.5541 138.68C74.7807 138.833 75.0607 138.963 75.3941 139.07C75.7274 139.177 76.0674 139.23 76.4141 139.23C76.8607 139.23 77.1807 139.167 77.3741 139.04C77.5741 138.913 77.6741 138.737 77.6741 138.51C77.6741 138.343 77.6141 138.213 77.4941 138.12C77.3741 138.027 77.2141 137.957 77.0141 137.91C76.8207 137.863 76.6041 137.823 76.3641 137.79C76.1241 137.75 75.8841 137.703 75.6441 137.65C75.4041 137.59 75.1841 137.51 74.9841 137.41C74.7841 137.303 74.6241 137.16 74.5041 136.98C74.3841 136.793 74.3241 136.547 74.3241 136.24C74.3241 135.92 74.4141 135.64 74.5941 135.4C74.7741 135.16 75.0274 134.977 75.3541 134.85C75.6874 134.717 76.0807 134.65 76.5341 134.65C76.8807 134.65 77.2307 134.693 77.5841 134.78C77.9441 134.86 78.2374 134.977 78.4641 135.13L78.0541 135.89C77.8141 135.73 77.5641 135.62 77.3041 135.56C77.0441 135.5 76.7841 135.47 76.5241 135.47C76.1041 135.47 75.7907 135.54 75.5841 135.68C75.3774 135.813 75.2741 135.987 75.2741 136.2C75.2741 136.38 75.3341 136.52 75.4541 136.62C75.5807 136.713 75.7407 136.787 75.9341 136.84C76.1341 136.893 76.3541 136.94 76.5941 136.98C76.8341 137.013 77.0741 137.06 77.3141 137.12C77.5541 137.173 77.7707 137.25 77.9641 137.35C78.1641 137.45 78.3241 137.59 78.4441 137.77C78.5707 137.95 78.6341 138.19 78.6341 138.49C78.6341 138.81 78.5407 139.087 78.3541 139.32C78.1674 139.553 77.9041 139.737 77.5641 139.87C77.2241 139.997 76.8174 140.06 76.3441 140.06ZM81.6538 140.06C81.1205 140.06 80.7072 139.917 80.4138 139.63C80.1205 139.343 79.9738 138.933 79.9738 138.4V133.54H80.9338V138.36C80.9338 138.647 81.0038 138.867 81.1438 139.02C81.2905 139.173 81.4972 139.25 81.7638 139.25C82.0638 139.25 82.3138 139.167 82.5138 139L82.8138 139.69C82.6672 139.817 82.4905 139.91 82.2838 139.97C82.0838 140.03 81.8738 140.06 81.6538 140.06ZM79.0738 135.49V134.7H82.4538V135.49H79.0738ZM93.29 134.65C93.7167 134.65 94.0933 134.733 94.42 134.9C94.7467 135.067 95 135.32 95.18 135.66C95.3667 136 95.46 136.43 95.46 136.95V140H94.5V137.06C94.5 136.547 94.38 136.16 94.14 135.9C93.9 135.64 93.5633 135.51 93.13 135.51C92.81 135.51 92.53 135.577 92.29 135.71C92.05 135.843 91.8633 136.04 91.73 136.3C91.6033 136.56 91.54 136.883 91.54 137.27V140H90.58V137.06C90.58 136.547 90.46 136.16 90.22 135.9C89.9867 135.64 89.65 135.51 89.21 135.51C88.8967 135.51 88.62 135.577 88.38 135.71C88.14 135.843 87.9533 136.04 87.82 136.3C87.6867 136.56 87.62 136.883 87.62 137.27V140H86.66V134.7H87.58V136.11L87.43 135.75C87.5967 135.403 87.8533 135.133 88.2 134.94C88.5467 134.747 88.95 134.65 89.41 134.65C89.9167 134.65 90.3533 134.777 90.72 135.03C91.0867 135.277 91.3267 135.653 91.44 136.16L91.05 136C91.21 135.593 91.49 135.267 91.89 135.02C92.29 134.773 92.7567 134.65 93.29 134.65ZM99.4964 140.06C98.9631 140.06 98.4897 139.943 98.0764 139.71C97.6631 139.477 97.3364 139.157 97.0964 138.75C96.8564 138.337 96.7364 137.87 96.7364 137.35C96.7364 136.823 96.8564 136.357 97.0964 135.95C97.3364 135.543 97.6631 135.227 98.0764 135C98.4897 134.767 98.9631 134.65 99.4964 134.65C100.023 134.65 100.493 134.767 100.906 135C101.326 135.227 101.653 135.543 101.886 135.95C102.126 136.35 102.246 136.817 102.246 137.35C102.246 137.877 102.126 138.343 101.886 138.75C101.653 139.157 101.326 139.477 100.906 139.71C100.493 139.943 100.023 140.06 99.4964 140.06ZM99.4964 139.22C99.8364 139.22 100.14 139.143 100.406 138.99C100.68 138.837 100.893 138.62 101.046 138.34C101.2 138.053 101.276 137.723 101.276 137.35C101.276 136.97 101.2 136.643 101.046 136.37C100.893 136.09 100.68 135.873 100.406 135.72C100.14 135.567 99.8364 135.49 99.4964 135.49C99.1564 135.49 98.8531 135.567 98.5864 135.72C98.3197 135.873 98.1064 136.09 97.9464 136.37C97.7864 136.643 97.7064 136.97 97.7064 137.35C97.7064 137.723 97.7864 138.053 97.9464 138.34C98.1064 138.62 98.3197 138.837 98.5864 138.99C98.8531 139.143 99.1564 139.22 99.4964 139.22ZM106.404 134.65C106.837 134.65 107.217 134.733 107.544 134.9C107.877 135.067 108.137 135.32 108.324 135.66C108.511 136 108.604 136.43 108.604 136.95V140H107.644V137.06C107.644 136.547 107.517 136.16 107.264 135.9C107.017 135.64 106.667 135.51 106.214 135.51C105.874 135.51 105.577 135.577 105.324 135.71C105.071 135.843 104.874 136.04 104.734 136.3C104.601 136.56 104.534 136.883 104.534 137.27V140H103.574V134.7H104.494V136.13L104.344 135.75C104.517 135.403 104.784 135.133 105.144 134.94C105.504 134.747 105.924 134.65 106.404 134.65ZM112.201 140.06C111.667 140.06 111.254 139.917 110.961 139.63C110.667 139.343 110.521 138.933 110.521 138.4V133.54H111.481V138.36C111.481 138.647 111.551 138.867 111.691 139.02C111.837 139.173 112.044 139.25 112.311 139.25C112.611 139.25 112.861 139.167 113.061 139L113.361 139.69C113.214 139.817 113.037 139.91 112.831 139.97C112.631 140.03 112.421 140.06 112.201 140.06ZM109.621 135.49V134.7H113.001V135.49H109.621ZM117.351 134.65C117.785 134.65 118.165 134.733 118.491 134.9C118.825 135.067 119.085 135.32 119.271 135.66C119.458 136 119.551 136.43 119.551 136.95V140H118.591V137.06C118.591 136.547 118.465 136.16 118.211 135.9C117.965 135.64 117.615 135.51 117.161 135.51C116.821 135.51 116.525 135.577 116.271 135.71C116.018 135.843 115.821 136.04 115.681 136.3C115.548 136.56 115.481 136.883 115.481 137.27V140H114.521V132.58H115.481V136.13L115.291 135.75C115.465 135.403 115.731 135.133 116.091 134.94C116.451 134.747 116.871 134.65 117.351 134.65Z" fill="#859096"/>
</svg>
