<svg xmlns="http://www.w3.org/2000/svg" xmlns:xlink="http://www.w3.org/1999/xlink" width="40" zoomAndPan="magnify" viewBox="0 0 30 30.000001" height="40" preserveAspectRatio="xMidYMid meet" version="1.0"><defs><g/><clipPath id="069a7cf71c"><path d="M 4 5.460938 L 25.75 5.460938 L 25.75 23.609375 L 4 23.609375 Z M 4 5.460938 " clip-rule="nonzero"/></clipPath></defs><g clip-path="url(#069a7cf71c)"><path fill="#38ef7d" d="M 4.03125 14.53125 C 5.296875 10.679688 10.324219 12.152344 11.523438 16.457031 C 11.523438 16.457031 16.738281 6.496094 25.96875 5.464844 C 23.03125 7.921875 18.523438 12.425781 16.347656 15.644531 C 13.878906 19.300781 11.59375 23.566406 10.328125 23.328125 C 9.324219 23.136719 8.347656 17.164062 4.03125 14.53125 Z M 4.03125 14.53125 " fill-opacity="1" fill-rule="evenodd"/></g><g fill="#ffffff" fill-opacity="1"><g transform="translate(10.181365, 19.301237)"><g><path d="M 0.265625 0.015625 C 0.234375 0.015625 0.203125 0.0078125 0.171875 0 C 0.148438 -0.0195312 0.128906 -0.0390625 0.109375 -0.0625 C 0.0976562 -0.09375 0.09375 -0.125 0.09375 -0.15625 C 0.09375 -0.175781 0.0976562 -0.195312 0.109375 -0.21875 C 0.128906 -0.25 0.148438 -0.269531 0.171875 -0.28125 C 0.203125 -0.300781 0.234375 -0.3125 0.265625 -0.3125 C 0.296875 -0.3125 0.320312 -0.300781 0.34375 -0.28125 C 0.375 -0.269531 0.394531 -0.253906 0.40625 -0.234375 C 0.425781 -0.210938 0.4375 -0.1875 0.4375 -0.15625 C 0.4375 -0.101562 0.421875 -0.0625 0.390625 -0.03125 C 0.359375 0 0.316406 0.015625 0.265625 0.015625 Z M 0.265625 0.015625 "/></g></g></g></svg>