<svg width="242" height="161" viewBox="0 0 242 161" fill="none" xmlns="http://www.w3.org/2000/svg">
<path d="M0.5 16C0.5 7.43959 7.43959 0.5 16 0.5H225.5C234.06 0.5 241 7.43959 241 16V145C241 153.56 234.06 160.5 225.5 160.5H16C7.43959 160.5 0.5 153.56 0.5 145V16Z" fill="white"/>
<path d="M0.5 16C0.5 7.43959 7.43959 0.5 16 0.5H225.5C234.06 0.5 241 7.43959 241 16V145C241 153.56 234.06 160.5 225.5 160.5H16C7.43959 160.5 0.5 153.56 0.5 145V16Z" stroke="#E1E8EB"/>
<rect x="16" y="16" width="40" height="40" rx="20" fill="#FFC456"/>
<path d="M30.25 37.9807H37.75V36.4807H30.25V37.9807ZM30.25 34.9807H41.75V33.4807H30.25V34.9807ZM30.25 31.9807H41.75V30.4807H30.25V31.9807ZM26.5 45.2692V28.5385C26.5 28.0333 26.675 27.6057 27.025 27.2557C27.375 26.9057 27.8026 26.7307 28.3077 26.7307H43.6923C44.1974 26.7307 44.625 26.9057 44.975 27.2557C45.325 27.6057 45.5 28.0333 45.5 28.5385V39.923C45.5 40.4281 45.325 40.8557 44.975 41.2057C44.625 41.5557 44.1974 41.7307 43.6923 41.7307H30.0385L26.5 45.2692ZM29.4 40.2307H43.6923C43.7693 40.2307 43.8398 40.1986 43.9038 40.1345C43.9679 40.0705 44 40 44 39.923V28.5385C44 28.4615 43.9679 28.391 43.9038 28.327C43.8398 28.2628 43.7693 28.2307 43.6923 28.2307H28.3077C28.2307 28.2307 28.1603 28.2628 28.0963 28.327C28.0321 28.391 28 28.4615 28 28.5385V41.6155L29.4 40.2307Z" fill="white"/>
<rect x="185.5" y="16" width="40" height="40" rx="20" fill="#F2F4F5"/>
<path d="M210.001 44H200.95V33.6752L206.658 28L207.386 28.7279C207.476 28.8172 207.55 28.9355 207.609 29.0828C207.668 29.2301 207.697 29.3688 207.697 29.499V29.7174L206.784 33.6752H212.549C212.958 33.6752 213.319 33.8322 213.633 34.1461C213.947 34.4598 214.104 34.8213 214.104 35.2306V36.6203C214.104 36.7097 214.092 36.8062 214.069 36.9099C214.046 37.0136 214.02 37.1101 213.992 37.1996L211.526 43.0172C211.403 43.293 211.196 43.5257 210.906 43.7154C210.616 43.9051 210.314 44 210.001 44ZM202.24 42.7094H210.001C210.061 42.7094 210.123 42.6928 210.187 42.6597C210.25 42.6266 210.298 42.5714 210.332 42.4943L212.813 36.6866V35.2306C212.813 35.1533 212.789 35.0898 212.739 35.0402C212.689 34.9906 212.626 34.9658 212.549 34.9658H205.153L206.231 30.2502L202.24 34.2246V42.7094ZM200.95 33.6752V34.9658H198.187V42.7094H200.95V44H196.896V33.6752H200.95Z" fill="#526067"/>
<path d="M21.016 84.096C20.376 84.096 19.784 83.992 19.24 83.784C18.704 83.568 18.236 83.268 17.836 82.884C17.444 82.492 17.136 82.036 16.912 81.516C16.688 80.996 16.576 80.424 16.576 79.8C16.576 79.176 16.688 78.604 16.912 78.084C17.136 77.564 17.448 77.112 17.848 76.728C18.248 76.336 18.716 76.036 19.252 75.828C19.796 75.612 20.388 75.504 21.028 75.504C21.676 75.504 22.272 75.616 22.816 75.84C23.368 76.056 23.836 76.38 24.22 76.812L23.44 77.568C23.12 77.232 22.76 76.984 22.36 76.824C21.96 76.656 21.532 76.572 21.076 76.572C20.604 76.572 20.164 76.652 19.756 76.812C19.356 76.972 19.008 77.196 18.712 77.484C18.416 77.772 18.184 78.116 18.016 78.516C17.856 78.908 17.776 79.336 17.776 79.8C17.776 80.264 17.856 80.696 18.016 81.096C18.184 81.488 18.416 81.828 18.712 82.116C19.008 82.404 19.356 82.628 19.756 82.788C20.164 82.948 20.604 83.028 21.076 83.028C21.532 83.028 21.96 82.948 22.36 82.788C22.76 82.62 23.12 82.364 23.44 82.02L24.22 82.776C23.836 83.208 23.368 83.536 22.816 83.76C22.272 83.984 21.672 84.096 21.016 84.096ZM25.9319 84V75.6H27.1319V82.956H31.6799V84H25.9319ZM33.0569 84V75.6H34.2569V84H33.0569ZM40.5277 84.096C39.8877 84.096 39.2957 83.992 38.7517 83.784C38.2157 83.568 37.7477 83.268 37.3477 82.884C36.9557 82.492 36.6477 82.036 36.4237 81.516C36.1997 80.996 36.0877 80.424 36.0877 79.8C36.0877 79.176 36.1997 78.604 36.4237 78.084C36.6477 77.564 36.9597 77.112 37.3597 76.728C37.7597 76.336 38.2277 76.036 38.7637 75.828C39.3077 75.612 39.8997 75.504 40.5397 75.504C41.1877 75.504 41.7837 75.616 42.3277 75.84C42.8797 76.056 43.3477 76.38 43.7317 76.812L42.9517 77.568C42.6317 77.232 42.2717 76.984 41.8717 76.824C41.4717 76.656 41.0437 76.572 40.5877 76.572C40.1157 76.572 39.6757 76.652 39.2677 76.812C38.8677 76.972 38.5197 77.196 38.2237 77.484C37.9277 77.772 37.6957 78.116 37.5277 78.516C37.3677 78.908 37.2877 79.336 37.2877 79.8C37.2877 80.264 37.3677 80.696 37.5277 81.096C37.6957 81.488 37.9277 81.828 38.2237 82.116C38.5197 82.404 38.8677 82.628 39.2677 82.788C39.6757 82.948 40.1157 83.028 40.5877 83.028C41.0437 83.028 41.4717 82.948 41.8717 82.788C42.2717 82.62 42.6317 82.364 42.9517 82.02L43.7317 82.776C43.3477 83.208 42.8797 83.536 42.3277 83.76C41.7837 83.984 41.1837 84.096 40.5277 84.096ZM46.4996 81.972L46.4396 80.508L51.2036 75.6H52.5716L48.8876 79.488L48.2156 80.232L46.4996 81.972ZM45.4436 84V75.6H46.6436V84H45.4436ZM51.3956 84L47.9516 79.992L48.7556 79.104L52.7996 84H51.3956ZM58.9593 84V76.644H56.0793V75.6H63.0273V76.644H60.1473V84H58.9593ZM70.3582 75.6H71.5582V84H70.3582V75.6ZM65.5342 84H64.3342V75.6H65.5342V84ZM70.4662 80.256H65.4142V79.212H70.4662V80.256ZM74.0725 84V75.6H77.3485C78.0845 75.6 78.7125 75.716 79.2325 75.948C79.7525 76.18 80.1525 76.516 80.4325 76.956C80.7125 77.396 80.8525 77.92 80.8525 78.528C80.8525 79.136 80.7125 79.66 80.4325 80.1C80.1525 80.532 79.7525 80.864 79.2325 81.096C78.7125 81.328 78.0845 81.444 77.3485 81.444H74.7325L75.2725 80.892V84H74.0725ZM79.6885 84L77.5525 80.952H78.8365L80.9965 84H79.6885ZM75.2725 81.012L74.7325 80.424H77.3125C78.0805 80.424 78.6605 80.26 79.0525 79.932C79.4525 79.596 79.6525 79.128 79.6525 78.528C79.6525 77.928 79.4525 77.464 79.0525 77.136C78.6605 76.808 78.0805 76.644 77.3125 76.644H74.7325L75.2725 76.044V81.012ZM86.5833 84.096C85.9433 84.096 85.3473 83.988 84.7953 83.772C84.2513 83.556 83.7793 83.256 83.3793 82.872C82.9793 82.48 82.6673 82.024 82.4433 81.504C82.2193 80.984 82.1073 80.416 82.1073 79.8C82.1073 79.184 82.2193 78.616 82.4433 78.096C82.6673 77.576 82.9793 77.124 83.3793 76.74C83.7793 76.348 84.2513 76.044 84.7953 75.828C85.3393 75.612 85.9353 75.504 86.5833 75.504C87.2233 75.504 87.8113 75.612 88.3473 75.828C88.8913 76.036 89.3633 76.336 89.7633 76.728C90.1713 77.112 90.4833 77.564 90.6993 78.084C90.9233 78.604 91.0353 79.176 91.0353 79.8C91.0353 80.424 90.9233 80.996 90.6993 81.516C90.4833 82.036 90.1713 82.492 89.7633 82.884C89.3633 83.268 88.8913 83.568 88.3473 83.784C87.8113 83.992 87.2233 84.096 86.5833 84.096ZM86.5833 83.028C87.0473 83.028 87.4753 82.948 87.8672 82.788C88.2673 82.628 88.6113 82.404 88.8993 82.116C89.1953 81.82 89.4233 81.476 89.5833 81.084C89.7513 80.692 89.8353 80.264 89.8353 79.8C89.8353 79.336 89.7513 78.908 89.5833 78.516C89.4233 78.124 89.1953 77.784 88.8993 77.496C88.6113 77.2 88.2673 76.972 87.8672 76.812C87.4753 76.652 87.0473 76.572 86.5833 76.572C86.1113 76.572 85.6753 76.652 85.2753 76.812C84.8833 76.972 84.5393 77.2 84.2433 77.496C83.9473 77.784 83.7153 78.124 83.5473 78.516C83.3873 78.908 83.3073 79.336 83.3073 79.8C83.3073 80.264 83.3873 80.692 83.5473 81.084C83.7153 81.476 83.9473 81.82 84.2433 82.116C84.5393 82.404 84.8833 82.628 85.2753 82.788C85.6753 82.948 86.1113 83.028 86.5833 83.028ZM96.3494 84.096C95.2454 84.096 94.3774 83.78 93.7454 83.148C93.1134 82.516 92.7974 81.592 92.7974 80.376V75.6H93.9974V80.328C93.9974 81.264 94.2014 81.948 94.6094 82.38C95.0254 82.812 95.6094 83.028 96.3614 83.028C97.1214 83.028 97.7054 82.812 98.1134 82.38C98.5294 81.948 98.7374 81.264 98.7374 80.328V75.6H99.9014V80.376C99.9014 81.592 99.5854 82.516 98.9534 83.148C98.3294 83.78 97.4614 84.096 96.3494 84.096ZM106.154 84.096C105.506 84.096 104.91 83.992 104.366 83.784C103.822 83.568 103.35 83.268 102.95 82.884C102.55 82.492 102.238 82.036 102.014 81.516C101.79 80.996 101.678 80.424 101.678 79.8C101.678 79.176 101.79 78.604 102.014 78.084C102.238 77.564 102.55 77.112 102.95 76.728C103.358 76.336 103.834 76.036 104.378 75.828C104.922 75.612 105.522 75.504 106.178 75.504C106.842 75.504 107.45 75.612 108.002 75.828C108.554 76.044 109.022 76.368 109.406 76.8L108.662 77.544C108.318 77.208 107.942 76.964 107.534 76.812C107.134 76.652 106.698 76.572 106.226 76.572C105.746 76.572 105.298 76.652 104.882 76.812C104.474 76.972 104.118 77.196 103.814 77.484C103.518 77.772 103.286 78.116 103.118 78.516C102.958 78.908 102.878 79.336 102.878 79.8C102.878 80.256 102.958 80.684 103.118 81.084C103.286 81.476 103.518 81.82 103.814 82.116C104.118 82.404 104.474 82.628 104.882 82.788C105.29 82.948 105.734 83.028 106.214 83.028C106.662 83.028 107.09 82.96 107.498 82.824C107.914 82.68 108.298 82.444 108.65 82.116L109.334 83.028C108.918 83.38 108.43 83.648 107.87 83.832C107.318 84.008 106.746 84.096 106.154 84.096ZM108.182 82.872V79.752H109.334V83.028L108.182 82.872ZM117.655 75.6H118.855V84H117.655V75.6ZM112.831 84H111.631V75.6H112.831V84ZM117.763 80.256H112.711V79.212H117.763V80.256ZM124.592 84V75.6H127.868C128.604 75.6 129.232 75.716 129.752 75.948C130.272 76.18 130.672 76.516 130.952 76.956C131.232 77.396 131.372 77.92 131.372 78.528C131.372 79.136 131.232 79.66 130.952 80.1C130.672 80.532 130.272 80.864 129.752 81.096C129.232 81.328 128.604 81.444 127.868 81.444H125.252L125.792 80.892V84H124.592ZM130.208 84L128.072 80.952H129.356L131.516 84H130.208ZM125.792 81.012L125.252 80.424H127.832C128.6 80.424 129.18 80.26 129.572 79.932C129.972 79.596 130.172 79.128 130.172 78.528C130.172 77.928 129.972 77.464 129.572 77.136C129.18 76.808 128.6 76.644 127.832 76.644H125.252L125.792 76.044V81.012ZM132.039 84L135.843 75.6H137.031L140.847 84H139.587L136.191 76.272H136.671L133.275 84H132.039ZM133.659 81.9L133.983 80.94H138.711L139.059 81.9H133.659ZM143.346 84V76.644H140.466V75.6H147.414V76.644H144.534V84H143.346ZM149.813 79.224H154.133V80.244H149.813V79.224ZM149.921 82.956H154.817V84H148.721V75.6H154.649V76.644H149.921V82.956Z" fill="#3E4C54"/>
<path d="M22.624 114.24C21.44 114.24 20.28 114.072 19.144 113.736C18.024 113.384 17.08 112.904 16.312 112.296L17.632 109.872C18.24 110.368 18.976 110.768 19.84 111.072C20.72 111.376 21.632 111.528 22.576 111.528C23.68 111.528 24.544 111.296 25.168 110.832C25.808 110.368 26.128 109.744 26.128 108.96C26.128 108.432 25.992 107.968 25.72 107.568C25.464 107.168 25 106.864 24.328 106.656C23.672 106.448 22.768 106.344 21.616 106.344H17.56L18.424 97.2H28.288V99.816H19.576L21.208 98.328L20.56 105.168L18.928 103.704H22.312C23.976 103.704 25.312 103.928 26.32 104.376C27.344 104.808 28.088 105.416 28.552 106.2C29.032 106.968 29.272 107.848 29.272 108.84C29.272 109.816 29.032 110.712 28.552 111.528C28.072 112.344 27.336 113 26.344 113.496C25.368 113.992 24.128 114.24 22.624 114.24ZM33.1893 114L44.6613 97.2H47.0133L35.5413 114H33.1893ZM34.5813 106.248C33.7973 106.248 33.1013 106.056 32.4933 105.672C31.8853 105.288 31.4133 104.752 31.0773 104.064C30.7413 103.376 30.5732 102.568 30.5732 101.64C30.5732 100.712 30.7413 99.904 31.0773 99.216C31.4133 98.528 31.8853 97.992 32.4933 97.608C33.1013 97.224 33.7973 97.032 34.5813 97.032C35.3973 97.032 36.1013 97.224 36.6933 97.608C37.3013 97.992 37.7733 98.528 38.1093 99.216C38.4453 99.904 38.6133 100.712 38.6133 101.64C38.6133 102.568 38.4453 103.376 38.1093 104.064C37.7733 104.752 37.3013 105.288 36.6933 105.672C36.1013 106.056 35.3973 106.248 34.5813 106.248ZM34.6053 104.568C35.2453 104.568 35.7413 104.32 36.0933 103.824C36.4613 103.312 36.6453 102.584 36.6453 101.64C36.6453 100.696 36.4613 99.976 36.0933 99.48C35.7413 98.968 35.2453 98.712 34.6053 98.712C33.9653 98.712 33.4533 98.968 33.0693 99.48C32.7013 99.992 32.5173 100.712 32.5173 101.64C32.5173 102.568 32.7013 103.288 33.0693 103.8C33.4533 104.312 33.9653 104.568 34.6053 104.568ZM45.5973 114.168C44.8133 114.168 44.1173 113.976 43.5093 113.592C42.9013 113.208 42.4293 112.672 42.0933 111.984C41.7573 111.296 41.5893 110.488 41.5893 109.56C41.5893 108.632 41.7573 107.824 42.0933 107.136C42.4293 106.448 42.9013 105.912 43.5093 105.528C44.1173 105.144 44.8133 104.952 45.5973 104.952C46.4133 104.952 47.1173 105.144 47.7093 105.528C48.3173 105.912 48.7893 106.448 49.1253 107.136C49.4613 107.824 49.6293 108.632 49.6293 109.56C49.6293 110.488 49.4613 111.296 49.1253 111.984C48.7893 112.672 48.3173 113.208 47.7093 113.592C47.1173 113.976 46.4133 114.168 45.5973 114.168ZM45.5973 112.488C46.2373 112.488 46.7413 112.232 47.1093 111.72C47.4773 111.208 47.6613 110.488 47.6613 109.56C47.6613 108.632 47.4773 107.912 47.1093 107.4C46.7413 106.888 46.2373 106.632 45.5973 106.632C44.9733 106.632 44.4693 106.888 44.0853 107.4C43.7173 107.896 43.5333 108.616 43.5333 109.56C43.5333 110.504 43.7173 111.232 44.0853 111.744C44.4693 112.24 44.9733 112.488 45.5973 112.488Z" fill="#1C252A"/>
<path d="M24.3333 130.994V141.751L27.7718 138.317L28.2308 138.776L24 143.006L19.7692 138.776L20.2282 138.3L23.6667 141.738V130.994H24.3333Z" fill="#C70E0E"/>
<path d="M35.822 142.084C35.122 142.084 34.4547 141.972 33.82 141.748C33.1853 141.515 32.6813 141.207 32.308 140.824L32.798 140.026C33.106 140.353 33.526 140.623 34.058 140.838C34.5993 141.053 35.1827 141.16 35.808 141.16C36.6387 141.16 37.2687 140.978 37.698 140.614C38.1367 140.241 38.356 139.755 38.356 139.158C38.356 138.738 38.2533 138.379 38.048 138.08C37.852 137.772 37.516 137.534 37.04 137.366C36.564 137.198 35.9107 137.114 35.08 137.114H32.994L33.498 132.2H38.86V133.096H33.904L34.422 132.606L33.988 136.722L33.47 136.218H35.304C36.2933 136.218 37.0867 136.339 37.684 136.582C38.2813 136.825 38.7107 137.165 38.972 137.604C39.2427 138.033 39.378 138.537 39.378 139.116C39.378 139.667 39.2473 140.171 38.986 140.628C38.7247 141.076 38.3327 141.431 37.81 141.692C37.2873 141.953 36.6247 142.084 35.822 142.084ZM40.4073 142V141.286L44.4813 137.296C44.8547 136.932 45.1347 136.615 45.3213 136.344C45.508 136.064 45.634 135.803 45.6993 135.56C45.7647 135.317 45.7973 135.089 45.7973 134.874C45.7973 134.305 45.6013 133.857 45.2093 133.53C44.8267 133.203 44.2573 133.04 43.5013 133.04C42.9227 133.04 42.4093 133.129 41.9613 133.306C41.5227 133.483 41.1447 133.759 40.8273 134.132L40.1133 133.516C40.496 133.068 40.986 132.723 41.5833 132.48C42.1807 132.237 42.848 132.116 43.5853 132.116C44.248 132.116 44.822 132.223 45.3073 132.438C45.7927 132.643 46.166 132.947 46.4273 133.348C46.698 133.749 46.8333 134.221 46.8333 134.762C46.8333 135.079 46.7867 135.392 46.6933 135.7C46.6093 136.008 46.4507 136.335 46.2173 136.68C45.9933 137.016 45.662 137.399 45.2233 137.828L41.4853 141.496L41.2053 141.104H47.2813V142H40.4073ZM48.7391 144.044L49.3551 141.454L49.4671 142.056C49.2524 142.056 49.0704 141.986 48.9211 141.846C48.7811 141.706 48.7111 141.524 48.7111 141.3C48.7111 141.076 48.7811 140.894 48.9211 140.754C49.0704 140.614 49.2477 140.544 49.4531 140.544C49.6677 140.544 49.8404 140.619 49.9711 140.768C50.1111 140.917 50.1811 141.095 50.1811 141.3C50.1811 141.375 50.1764 141.449 50.1671 141.524C50.1577 141.599 50.1391 141.683 50.1111 141.776C50.0831 141.869 50.0457 141.981 49.9991 142.112L49.4111 144.044H48.7391ZM55.5175 142.084C54.6495 142.084 53.9168 141.893 53.3195 141.51C52.7222 141.118 52.2695 140.558 51.9615 139.83C51.6535 139.093 51.4995 138.211 51.4995 137.184C51.4995 136.073 51.6862 135.145 52.0595 134.398C52.4422 133.642 52.9695 133.073 53.6415 132.69C54.3135 132.307 55.0928 132.116 55.9795 132.116C56.4182 132.116 56.8382 132.158 57.2395 132.242C57.6408 132.326 57.9955 132.461 58.3035 132.648L57.8975 133.46C57.6455 133.292 57.3562 133.175 57.0295 133.11C56.7028 133.035 56.3575 132.998 55.9935 132.998C54.9388 132.998 54.0942 133.334 53.4595 134.006C52.8342 134.678 52.5215 135.681 52.5215 137.016C52.5215 137.221 52.5308 137.478 52.5495 137.786C52.5775 138.085 52.6335 138.383 52.7175 138.682L52.3675 138.416C52.4702 137.931 52.6708 137.52 52.9695 137.184C53.2682 136.839 53.6415 136.577 54.0895 136.4C54.5375 136.223 55.0275 136.134 55.5595 136.134C56.2128 136.134 56.7868 136.255 57.2815 136.498C57.7762 136.741 58.1635 137.081 58.4435 137.52C58.7235 137.959 58.8635 138.477 58.8635 139.074C58.8635 139.681 58.7188 140.213 58.4295 140.67C58.1402 141.118 57.7388 141.468 57.2255 141.72C56.7215 141.963 56.1522 142.084 55.5175 142.084ZM55.4755 141.23C55.9422 141.23 56.3528 141.146 56.7075 140.978C57.0715 140.801 57.3562 140.553 57.5615 140.236C57.7668 139.909 57.8695 139.531 57.8695 139.102C57.8695 138.458 57.6455 137.945 57.1975 137.562C56.7588 137.179 56.1615 136.988 55.4055 136.988C54.9015 136.988 54.4628 137.081 54.0895 137.268C53.7162 137.455 53.4222 137.711 53.2075 138.038C52.9928 138.355 52.8855 138.719 52.8855 139.13C52.8855 139.485 52.9835 139.825 53.1795 140.152C53.3755 140.469 53.6648 140.731 54.0475 140.936C54.4395 141.132 54.9155 141.23 55.4755 141.23ZM61.6434 142L65.8714 132.648L66.1794 133.096H60.1174L60.6354 132.606V134.93H59.6414V132.2H66.8374V132.914L62.7354 142H61.6434ZM69.4815 142L76.1735 132.2H76.9995L70.3075 142H69.4815ZM70.2375 137.45C69.7988 137.45 69.4115 137.343 69.0755 137.128C68.7395 136.904 68.4782 136.591 68.2915 136.19C68.1142 135.789 68.0255 135.322 68.0255 134.79C68.0255 134.258 68.1142 133.791 68.2915 133.39C68.4782 132.989 68.7395 132.681 69.0755 132.466C69.4115 132.242 69.7988 132.13 70.2375 132.13C70.6762 132.13 71.0588 132.242 71.3855 132.466C71.7215 132.681 71.9828 132.989 72.1695 133.39C72.3562 133.791 72.4495 134.258 72.4495 134.79C72.4495 135.322 72.3562 135.789 72.1695 136.19C71.9828 136.591 71.7215 136.904 71.3855 137.128C71.0588 137.343 70.6762 137.45 70.2375 137.45ZM70.2375 136.82C70.6948 136.82 71.0588 136.643 71.3295 136.288C71.6095 135.924 71.7495 135.425 71.7495 134.79C71.7495 134.155 71.6095 133.661 71.3295 133.306C71.0588 132.942 70.6948 132.76 70.2375 132.76C69.7708 132.76 69.4022 132.942 69.1315 133.306C68.8608 133.661 68.7255 134.155 68.7255 134.79C68.7255 135.425 68.8608 135.924 69.1315 136.288C69.4022 136.643 69.7708 136.82 70.2375 136.82ZM76.2435 142.07C75.8142 142.07 75.4315 141.963 75.0955 141.748C74.7595 141.524 74.4982 141.211 74.3115 140.81C74.1248 140.409 74.0315 139.942 74.0315 139.41C74.0315 138.878 74.1248 138.411 74.3115 138.01C74.4982 137.609 74.7595 137.301 75.0955 137.086C75.4315 136.862 75.8142 136.75 76.2435 136.75C76.6915 136.75 77.0788 136.862 77.4055 137.086C77.7415 137.301 77.9982 137.609 78.1755 138.01C78.3622 138.411 78.4555 138.878 78.4555 139.41C78.4555 139.942 78.3622 140.409 78.1755 140.81C77.9982 141.211 77.7415 141.524 77.4055 141.748C77.0788 141.963 76.6915 142.07 76.2435 142.07ZM76.2435 141.44C76.7008 141.44 77.0648 141.263 77.3355 140.908C77.6155 140.544 77.7555 140.045 77.7555 139.41C77.7555 138.775 77.6155 138.281 77.3355 137.926C77.0648 137.562 76.7008 137.38 76.2435 137.38C75.7862 137.38 75.4175 137.562 75.1375 137.926C74.8668 138.281 74.7315 138.775 74.7315 139.41C74.7315 140.045 74.8668 140.544 75.1375 140.908C75.4175 141.263 75.7862 141.44 76.2435 141.44Z" fill="#C70E0E"/>
<path d="M85.05 140.5V133.5H86.05V139.63H89.84V140.5H85.05ZM94.1375 140.5V139.38L94.0875 139.17V137.26C94.0875 136.853 93.9675 136.54 93.7275 136.32C93.4942 136.093 93.1408 135.98 92.6675 135.98C92.3542 135.98 92.0475 136.033 91.7475 136.14C91.4475 136.24 91.1942 136.377 90.9875 136.55L90.5875 135.83C90.8608 135.61 91.1875 135.443 91.5675 135.33C91.9542 135.21 92.3575 135.15 92.7775 135.15C93.5042 135.15 94.0642 135.327 94.4575 135.68C94.8508 136.033 95.0475 136.573 95.0475 137.3V140.5H94.1375ZM92.3975 140.56C92.0042 140.56 91.6575 140.493 91.3575 140.36C91.0642 140.227 90.8375 140.043 90.6775 139.81C90.5175 139.57 90.4375 139.3 90.4375 139C90.4375 138.713 90.5042 138.453 90.6375 138.22C90.7775 137.987 91.0008 137.8 91.3075 137.66C91.6208 137.52 92.0408 137.45 92.5675 137.45H94.2475V138.14H92.6075C92.1275 138.14 91.8042 138.22 91.6375 138.38C91.4708 138.54 91.3875 138.733 91.3875 138.96C91.3875 139.22 91.4908 139.43 91.6975 139.59C91.9042 139.743 92.1908 139.82 92.5575 139.82C92.9175 139.82 93.2308 139.74 93.4975 139.58C93.7708 139.42 93.9675 139.187 94.0875 138.88L94.2775 139.54C94.1508 139.853 93.9275 140.103 93.6075 140.29C93.2875 140.47 92.8842 140.56 92.3975 140.56ZM98.3441 140.56C97.9041 140.56 97.4841 140.5 97.0841 140.38C96.6907 140.26 96.3807 140.113 96.1541 139.94L96.5541 139.18C96.7807 139.333 97.0607 139.463 97.3941 139.57C97.7274 139.677 98.0674 139.73 98.4141 139.73C98.8607 139.73 99.1807 139.667 99.3741 139.54C99.5741 139.413 99.6741 139.237 99.6741 139.01C99.6741 138.843 99.6141 138.713 99.4941 138.62C99.3741 138.527 99.2141 138.457 99.0141 138.41C98.8207 138.363 98.6041 138.323 98.3641 138.29C98.1241 138.25 97.8841 138.203 97.6441 138.15C97.4041 138.09 97.1841 138.01 96.9841 137.91C96.7841 137.803 96.6241 137.66 96.5041 137.48C96.3841 137.293 96.3241 137.047 96.3241 136.74C96.3241 136.42 96.4141 136.14 96.5941 135.9C96.7741 135.66 97.0274 135.477 97.3541 135.35C97.6874 135.217 98.0807 135.15 98.5341 135.15C98.8807 135.15 99.2307 135.193 99.5841 135.28C99.9441 135.36 100.237 135.477 100.464 135.63L100.054 136.39C99.8141 136.23 99.5641 136.12 99.3041 136.06C99.0441 136 98.7841 135.97 98.5241 135.97C98.1041 135.97 97.7907 136.04 97.5841 136.18C97.3774 136.313 97.2741 136.487 97.2741 136.7C97.2741 136.88 97.3341 137.02 97.4541 137.12C97.5807 137.213 97.7407 137.287 97.9341 137.34C98.1341 137.393 98.3541 137.44 98.5941 137.48C98.8341 137.513 99.0741 137.56 99.3141 137.62C99.5541 137.673 99.7707 137.75 99.9641 137.85C100.164 137.95 100.324 138.09 100.444 138.27C100.571 138.45 100.634 138.69 100.634 138.99C100.634 139.31 100.541 139.587 100.354 139.82C100.167 140.053 99.9041 140.237 99.5641 140.37C99.2241 140.497 98.8174 140.56 98.3441 140.56ZM103.654 140.56C103.12 140.56 102.707 140.417 102.414 140.13C102.12 139.843 101.974 139.433 101.974 138.9V134.04H102.934V138.86C102.934 139.147 103.004 139.367 103.144 139.52C103.29 139.673 103.497 139.75 103.764 139.75C104.064 139.75 104.314 139.667 104.514 139.5L104.814 140.19C104.667 140.317 104.49 140.41 104.284 140.47C104.084 140.53 103.874 140.56 103.654 140.56ZM101.074 135.99V135.2H104.454V135.99H101.074ZM115.29 135.15C115.717 135.15 116.093 135.233 116.42 135.4C116.747 135.567 117 135.82 117.18 136.16C117.367 136.5 117.46 136.93 117.46 137.45V140.5H116.5V137.56C116.5 137.047 116.38 136.66 116.14 136.4C115.9 136.14 115.563 136.01 115.13 136.01C114.81 136.01 114.53 136.077 114.29 136.21C114.05 136.343 113.863 136.54 113.73 136.8C113.603 137.06 113.54 137.383 113.54 137.77V140.5H112.58V137.56C112.58 137.047 112.46 136.66 112.22 136.4C111.987 136.14 111.65 136.01 111.21 136.01C110.897 136.01 110.62 136.077 110.38 136.21C110.14 136.343 109.953 136.54 109.82 136.8C109.687 137.06 109.62 137.383 109.62 137.77V140.5H108.66V135.2H109.58V136.61L109.43 136.25C109.597 135.903 109.853 135.633 110.2 135.44C110.547 135.247 110.95 135.15 111.41 135.15C111.917 135.15 112.353 135.277 112.72 135.53C113.087 135.777 113.327 136.153 113.44 136.66L113.05 136.5C113.21 136.093 113.49 135.767 113.89 135.52C114.29 135.273 114.757 135.15 115.29 135.15ZM121.496 140.56C120.963 140.56 120.49 140.443 120.076 140.21C119.663 139.977 119.336 139.657 119.096 139.25C118.856 138.837 118.736 138.37 118.736 137.85C118.736 137.323 118.856 136.857 119.096 136.45C119.336 136.043 119.663 135.727 120.076 135.5C120.49 135.267 120.963 135.15 121.496 135.15C122.023 135.15 122.493 135.267 122.906 135.5C123.326 135.727 123.653 136.043 123.886 136.45C124.126 136.85 124.246 137.317 124.246 137.85C124.246 138.377 124.126 138.843 123.886 139.25C123.653 139.657 123.326 139.977 122.906 140.21C122.493 140.443 122.023 140.56 121.496 140.56ZM121.496 139.72C121.836 139.72 122.14 139.643 122.406 139.49C122.68 139.337 122.893 139.12 123.046 138.84C123.2 138.553 123.276 138.223 123.276 137.85C123.276 137.47 123.2 137.143 123.046 136.87C122.893 136.59 122.68 136.373 122.406 136.22C122.14 136.067 121.836 135.99 121.496 135.99C121.156 135.99 120.853 136.067 120.586 136.22C120.32 136.373 120.106 136.59 119.946 136.87C119.786 137.143 119.706 137.47 119.706 137.85C119.706 138.223 119.786 138.553 119.946 138.84C120.106 139.12 120.32 139.337 120.586 139.49C120.853 139.643 121.156 139.72 121.496 139.72ZM128.404 135.15C128.837 135.15 129.217 135.233 129.544 135.4C129.877 135.567 130.137 135.82 130.324 136.16C130.511 136.5 130.604 136.93 130.604 137.45V140.5H129.644V137.56C129.644 137.047 129.517 136.66 129.264 136.4C129.017 136.14 128.667 136.01 128.214 136.01C127.874 136.01 127.577 136.077 127.324 136.21C127.071 136.343 126.874 136.54 126.734 136.8C126.601 137.06 126.534 137.383 126.534 137.77V140.5H125.574V135.2H126.494V136.63L126.344 136.25C126.517 135.903 126.784 135.633 127.144 135.44C127.504 135.247 127.924 135.15 128.404 135.15ZM134.201 140.56C133.667 140.56 133.254 140.417 132.961 140.13C132.667 139.843 132.521 139.433 132.521 138.9V134.04H133.481V138.86C133.481 139.147 133.551 139.367 133.691 139.52C133.837 139.673 134.044 139.75 134.311 139.75C134.611 139.75 134.861 139.667 135.061 139.5L135.361 140.19C135.214 140.317 135.037 140.41 134.831 140.47C134.631 140.53 134.421 140.56 134.201 140.56ZM131.621 135.99V135.2H135.001V135.99H131.621ZM139.351 135.15C139.785 135.15 140.165 135.233 140.491 135.4C140.825 135.567 141.085 135.82 141.271 136.16C141.458 136.5 141.551 136.93 141.551 137.45V140.5H140.591V137.56C140.591 137.047 140.465 136.66 140.211 136.4C139.965 136.14 139.615 136.01 139.161 136.01C138.821 136.01 138.525 136.077 138.271 136.21C138.018 136.343 137.821 136.54 137.681 136.8C137.548 137.06 137.481 137.383 137.481 137.77V140.5H136.521V133.08H137.481V136.63L137.291 136.25C137.465 135.903 137.731 135.633 138.091 135.44C138.451 135.247 138.871 135.15 139.351 135.15Z" fill="#859096"/>
<path d="M193.344 122.128C192.469 122.128 191.685 121.904 190.992 121.456C190.309 121.008 189.765 120.357 189.36 119.504C188.965 118.651 188.768 117.616 188.768 116.4C188.768 115.184 188.965 114.149 189.36 113.296C189.765 112.443 190.309 111.792 190.992 111.344C191.685 110.896 192.469 110.672 193.344 110.672C194.208 110.672 194.987 110.896 195.68 111.344C196.373 111.792 196.917 112.443 197.312 113.296C197.707 114.149 197.904 115.184 197.904 116.4C197.904 117.616 197.707 118.651 197.312 119.504C196.917 120.357 196.373 121.008 195.68 121.456C194.987 121.904 194.208 122.128 193.344 122.128ZM193.344 120.704C193.931 120.704 194.443 120.544 194.88 120.224C195.328 119.904 195.675 119.424 195.92 118.784C196.176 118.144 196.304 117.349 196.304 116.4C196.304 115.451 196.176 114.656 195.92 114.016C195.675 113.376 195.328 112.896 194.88 112.576C194.443 112.256 193.931 112.096 193.344 112.096C192.757 112.096 192.24 112.256 191.792 112.576C191.344 112.896 190.992 113.376 190.736 114.016C190.491 114.656 190.368 115.451 190.368 116.4C190.368 117.349 190.491 118.144 190.736 118.784C190.992 119.424 191.344 119.904 191.792 120.224C192.24 120.544 192.757 120.704 193.344 120.704Z" fill="#859096"/>
<path d="M162.05 140V133H162.87L167.5 138.75H167.07V133H168.07V140H167.25L162.62 134.25H163.05V140H162.05ZM171.205 135.76C170.865 135.76 170.562 135.69 170.295 135.55C170.029 135.41 169.819 135.217 169.665 134.97C169.512 134.723 169.435 134.447 169.435 134.14C169.435 133.827 169.512 133.55 169.665 133.31C169.819 133.063 170.029 132.873 170.295 132.74C170.562 132.6 170.865 132.53 171.205 132.53C171.552 132.53 171.859 132.6 172.125 132.74C172.392 132.873 172.599 133.063 172.745 133.31C172.899 133.55 172.975 133.827 172.975 134.14C172.975 134.447 172.899 134.723 172.745 134.97C172.599 135.217 172.392 135.41 172.125 135.55C171.859 135.69 171.552 135.76 171.205 135.76ZM171.205 135.18C171.532 135.18 171.795 135.083 171.995 134.89C172.202 134.697 172.305 134.447 172.305 134.14C172.305 133.827 172.202 133.577 171.995 133.39C171.795 133.197 171.532 133.1 171.205 133.1C170.885 133.1 170.622 133.197 170.415 133.39C170.209 133.577 170.105 133.827 170.105 134.14C170.105 134.44 170.209 134.69 170.415 134.89C170.622 135.083 170.885 135.18 171.205 135.18ZM177.03 140V133H177.85L180.99 138.29H180.55L183.65 133H184.47L184.48 140H183.52L183.51 134.51H183.74L180.98 139.15H180.52L177.74 134.51H177.99V140H177.03ZM188.801 140.06C188.235 140.06 187.735 139.943 187.301 139.71C186.875 139.477 186.541 139.157 186.301 138.75C186.068 138.343 185.951 137.877 185.951 137.35C185.951 136.823 186.065 136.357 186.291 135.95C186.525 135.543 186.841 135.227 187.241 135C187.648 134.767 188.105 134.65 188.611 134.65C189.125 134.65 189.578 134.763 189.971 134.99C190.365 135.217 190.671 135.537 190.891 135.95C191.118 136.357 191.231 136.833 191.231 137.38C191.231 137.42 191.228 137.467 191.221 137.52C191.221 137.573 191.218 137.623 191.211 137.67H186.701V136.98H190.711L190.321 137.22C190.328 136.88 190.258 136.577 190.111 136.31C189.965 136.043 189.761 135.837 189.501 135.69C189.248 135.537 188.951 135.46 188.611 135.46C188.278 135.46 187.981 135.537 187.721 135.69C187.461 135.837 187.258 136.047 187.111 136.32C186.965 136.587 186.891 136.893 186.891 137.24V137.4C186.891 137.753 186.971 138.07 187.131 138.35C187.298 138.623 187.528 138.837 187.821 138.99C188.115 139.143 188.451 139.22 188.831 139.22C189.145 139.22 189.428 139.167 189.681 139.06C189.941 138.953 190.168 138.793 190.361 138.58L190.891 139.2C190.651 139.48 190.351 139.693 189.991 139.84C189.638 139.987 189.241 140.06 188.801 140.06ZM194.084 140.06C193.644 140.06 193.224 140 192.824 139.88C192.431 139.76 192.121 139.613 191.894 139.44L192.294 138.68C192.521 138.833 192.801 138.963 193.134 139.07C193.468 139.177 193.808 139.23 194.154 139.23C194.601 139.23 194.921 139.167 195.114 139.04C195.314 138.913 195.414 138.737 195.414 138.51C195.414 138.343 195.354 138.213 195.234 138.12C195.114 138.027 194.954 137.957 194.754 137.91C194.561 137.863 194.344 137.823 194.104 137.79C193.864 137.75 193.624 137.703 193.384 137.65C193.144 137.59 192.924 137.51 192.724 137.41C192.524 137.303 192.364 137.16 192.244 136.98C192.124 136.793 192.064 136.547 192.064 136.24C192.064 135.92 192.154 135.64 192.334 135.4C192.514 135.16 192.768 134.977 193.094 134.85C193.428 134.717 193.821 134.65 194.274 134.65C194.621 134.65 194.971 134.693 195.324 134.78C195.684 134.86 195.978 134.977 196.204 135.13L195.794 135.89C195.554 135.73 195.304 135.62 195.044 135.56C194.784 135.5 194.524 135.47 194.264 135.47C193.844 135.47 193.531 135.54 193.324 135.68C193.118 135.813 193.014 135.987 193.014 136.2C193.014 136.38 193.074 136.52 193.194 136.62C193.321 136.713 193.481 136.787 193.674 136.84C193.874 136.893 194.094 136.94 194.334 136.98C194.574 137.013 194.814 137.06 195.054 137.12C195.294 137.173 195.511 137.25 195.704 137.35C195.904 137.45 196.064 137.59 196.184 137.77C196.311 137.95 196.374 138.19 196.374 138.49C196.374 138.81 196.281 139.087 196.094 139.32C195.908 139.553 195.644 139.737 195.304 139.87C194.964 139.997 194.558 140.06 194.084 140.06ZM199.094 140.06C198.654 140.06 198.234 140 197.834 139.88C197.441 139.76 197.131 139.613 196.904 139.44L197.304 138.68C197.531 138.833 197.811 138.963 198.144 139.07C198.477 139.177 198.817 139.23 199.164 139.23C199.611 139.23 199.931 139.167 200.124 139.04C200.324 138.913 200.424 138.737 200.424 138.51C200.424 138.343 200.364 138.213 200.244 138.12C200.124 138.027 199.964 137.957 199.764 137.91C199.571 137.863 199.354 137.823 199.114 137.79C198.874 137.75 198.634 137.703 198.394 137.65C198.154 137.59 197.934 137.51 197.734 137.41C197.534 137.303 197.374 137.16 197.254 136.98C197.134 136.793 197.074 136.547 197.074 136.24C197.074 135.92 197.164 135.64 197.344 135.4C197.524 135.16 197.777 134.977 198.104 134.85C198.437 134.717 198.831 134.65 199.284 134.65C199.631 134.65 199.981 134.693 200.334 134.78C200.694 134.86 200.987 134.977 201.214 135.13L200.804 135.89C200.564 135.73 200.314 135.62 200.054 135.56C199.794 135.5 199.534 135.47 199.274 135.47C198.854 135.47 198.541 135.54 198.334 135.68C198.127 135.813 198.024 135.987 198.024 136.2C198.024 136.38 198.084 136.52 198.204 136.62C198.331 136.713 198.491 136.787 198.684 136.84C198.884 136.893 199.104 136.94 199.344 136.98C199.584 137.013 199.824 137.06 200.064 137.12C200.304 137.173 200.521 137.25 200.714 137.35C200.914 137.45 201.074 137.59 201.194 137.77C201.321 137.95 201.384 138.19 201.384 138.49C201.384 138.81 201.291 139.087 201.104 139.32C200.917 139.553 200.654 139.737 200.314 139.87C199.974 139.997 199.567 140.06 199.094 140.06ZM205.874 140V138.88L205.824 138.67V136.76C205.824 136.353 205.704 136.04 205.464 135.82C205.23 135.593 204.877 135.48 204.404 135.48C204.09 135.48 203.784 135.533 203.484 135.64C203.184 135.74 202.93 135.877 202.724 136.05L202.324 135.33C202.597 135.11 202.924 134.943 203.304 134.83C203.69 134.71 204.094 134.65 204.514 134.65C205.24 134.65 205.8 134.827 206.194 135.18C206.587 135.533 206.784 136.073 206.784 136.8V140H205.874ZM204.134 140.06C203.74 140.06 203.394 139.993 203.094 139.86C202.8 139.727 202.574 139.543 202.414 139.31C202.254 139.07 202.174 138.8 202.174 138.5C202.174 138.213 202.24 137.953 202.374 137.72C202.514 137.487 202.737 137.3 203.044 137.16C203.357 137.02 203.777 136.95 204.304 136.95H205.984V137.64H204.344C203.864 137.64 203.54 137.72 203.374 137.88C203.207 138.04 203.124 138.233 203.124 138.46C203.124 138.72 203.227 138.93 203.434 139.09C203.64 139.243 203.927 139.32 204.294 139.32C204.654 139.32 204.967 139.24 205.234 139.08C205.507 138.92 205.704 138.687 205.824 138.38L206.014 139.04C205.887 139.353 205.664 139.603 205.344 139.79C205.024 139.97 204.62 140.06 204.134 140.06ZM210.88 142C210.394 142 209.92 141.93 209.46 141.79C209.007 141.657 208.637 141.463 208.35 141.21L208.81 140.47C209.057 140.683 209.36 140.85 209.72 140.97C210.08 141.097 210.457 141.16 210.85 141.16C211.477 141.16 211.937 141.013 212.23 140.72C212.524 140.427 212.67 139.98 212.67 139.38V138.26L212.77 137.21L212.72 136.15V134.7H213.63V139.28C213.63 140.213 213.397 140.9 212.93 141.34C212.464 141.78 211.78 142 210.88 142ZM210.76 139.78C210.247 139.78 209.787 139.673 209.38 139.46C208.98 139.24 208.66 138.937 208.42 138.55C208.187 138.163 208.07 137.717 208.07 137.21C208.07 136.697 208.187 136.25 208.42 135.87C208.66 135.483 208.98 135.183 209.38 134.97C209.787 134.757 210.247 134.65 210.76 134.65C211.214 134.65 211.627 134.743 212 134.93C212.374 135.11 212.67 135.39 212.89 135.77C213.117 136.15 213.23 136.63 213.23 137.21C213.23 137.783 213.117 138.26 212.89 138.64C212.67 139.02 212.374 139.307 212 139.5C211.627 139.687 211.214 139.78 210.76 139.78ZM210.87 138.94C211.224 138.94 211.537 138.867 211.81 138.72C212.084 138.573 212.297 138.37 212.45 138.11C212.61 137.85 212.69 137.55 212.69 137.21C212.69 136.87 212.61 136.57 212.45 136.31C212.297 136.05 212.084 135.85 211.81 135.71C211.537 135.563 211.224 135.49 210.87 135.49C210.517 135.49 210.2 135.563 209.92 135.71C209.647 135.85 209.43 136.05 209.27 136.31C209.117 136.57 209.04 136.87 209.04 137.21C209.04 137.55 209.117 137.85 209.27 138.11C209.43 138.37 209.647 138.573 209.92 138.72C210.2 138.867 210.517 138.94 210.87 138.94ZM217.825 140.06C217.258 140.06 216.758 139.943 216.325 139.71C215.898 139.477 215.565 139.157 215.325 138.75C215.091 138.343 214.975 137.877 214.975 137.35C214.975 136.823 215.088 136.357 215.315 135.95C215.548 135.543 215.865 135.227 216.265 135C216.671 134.767 217.128 134.65 217.635 134.65C218.148 134.65 218.601 134.763 218.995 134.99C219.388 135.217 219.695 135.537 219.915 135.95C220.141 136.357 220.255 136.833 220.255 137.38C220.255 137.42 220.251 137.467 220.245 137.52C220.245 137.573 220.241 137.623 220.235 137.67H215.725V136.98H219.735L219.345 137.22C219.351 136.88 219.281 136.577 219.135 136.31C218.988 136.043 218.785 135.837 218.525 135.69C218.271 135.537 217.975 135.46 217.635 135.46C217.301 135.46 217.005 135.537 216.745 135.69C216.485 135.837 216.281 136.047 216.135 136.32C215.988 136.587 215.915 136.893 215.915 137.24V137.4C215.915 137.753 215.995 138.07 216.155 138.35C216.321 138.623 216.551 138.837 216.845 138.99C217.138 139.143 217.475 139.22 217.855 139.22C218.168 139.22 218.451 139.167 218.705 139.06C218.965 138.953 219.191 138.793 219.385 138.58L219.915 139.2C219.675 139.48 219.375 139.693 219.015 139.84C218.661 139.987 218.265 140.06 217.825 140.06ZM223.108 140.06C222.668 140.06 222.248 140 221.848 139.88C221.454 139.76 221.144 139.613 220.918 139.44L221.318 138.68C221.544 138.833 221.824 138.963 222.158 139.07C222.491 139.177 222.831 139.23 223.178 139.23C223.624 139.23 223.944 139.167 224.138 139.04C224.338 138.913 224.438 138.737 224.438 138.51C224.438 138.343 224.378 138.213 224.258 138.12C224.138 138.027 223.978 137.957 223.778 137.91C223.584 137.863 223.368 137.823 223.128 137.79C222.888 137.75 222.648 137.703 222.408 137.65C222.168 137.59 221.948 137.51 221.748 137.41C221.548 137.303 221.388 137.16 221.268 136.98C221.148 136.793 221.088 136.547 221.088 136.24C221.088 135.92 221.178 135.64 221.358 135.4C221.538 135.16 221.791 134.977 222.118 134.85C222.451 134.717 222.844 134.65 223.298 134.65C223.644 134.65 223.994 134.693 224.348 134.78C224.708 134.86 225.001 134.977 225.228 135.13L224.818 135.89C224.578 135.73 224.328 135.62 224.068 135.56C223.808 135.5 223.548 135.47 223.288 135.47C222.868 135.47 222.554 135.54 222.348 135.68C222.141 135.813 222.038 135.987 222.038 136.2C222.038 136.38 222.098 136.52 222.218 136.62C222.344 136.713 222.504 136.787 222.698 136.84C222.898 136.893 223.118 136.94 223.358 136.98C223.598 137.013 223.838 137.06 224.078 137.12C224.318 137.173 224.534 137.25 224.728 137.35C224.928 137.45 225.088 137.59 225.208 137.77C225.334 137.95 225.398 138.19 225.398 138.49C225.398 138.81 225.304 139.087 225.118 139.32C224.931 139.553 224.668 139.737 224.328 139.87C223.988 139.997 223.581 140.06 223.108 140.06Z" fill="#859096"/>
</svg>
