<svg width="242" height="160" viewBox="0 0 242 160" fill="none" xmlns="http://www.w3.org/2000/svg">
<path d="M1 16C1 7.43959 7.93959 0.5 16.5 0.5H226C234.56 0.5 241.5 7.43959 241.5 16V144C241.5 152.56 234.56 159.5 226 159.5H16.5C7.93959 159.5 1 152.56 1 144V16Z" fill="white"/>
<path d="M1 16C1 7.43959 7.93959 0.5 16.5 0.5H226C234.56 0.5 241.5 7.43959 241.5 16V144C241.5 152.56 234.56 159.5 226 159.5H16.5C7.93959 159.5 1 152.56 1 144V16Z" stroke="#E1E8EB"/>
<rect x="16.5" y="16" width="40" height="40" rx="20" fill="#E86A6D"/>
<path d="M35.9836 41.4086C34.5568 41.2868 33.3574 40.7054 32.3856 39.6644C31.4138 38.6234 30.9279 37.3779 30.9279 35.9279C30.9279 34.4 31.4626 33.1014 32.5321 32.0321C33.6014 30.9626 34.9 30.4279 36.4279 30.4279C37.8779 30.4279 39.1234 30.9122 40.1644 31.8809C41.2054 32.8494 41.7868 34.0471 41.9086 35.4741L40.3184 35.0029C40.1022 34.1029 39.6366 33.3654 38.9216 32.7904C38.2068 32.2154 37.3755 31.9279 36.4279 31.9279C35.3279 31.9279 34.3862 32.3195 33.6029 33.1029C32.8195 33.8862 32.4279 34.8279 32.4279 35.9279C32.4279 36.8779 32.7169 37.7112 33.2951 38.4279C33.8733 39.1445 34.6092 39.6112 35.5029 39.8279L35.9836 41.4086ZM37.1836 45.3874C37.0576 45.4144 36.9317 45.4279 36.8059 45.4279H36.4279C35.1137 45.4279 33.8787 45.1785 32.7229 44.6799C31.567 44.1812 30.5616 43.5044 29.7066 42.6496C28.8516 41.7948 28.1748 40.7895 27.6761 39.6339C27.1773 38.4782 26.9279 37.2434 26.9279 35.9296C26.9279 34.6156 27.1772 33.3805 27.6759 32.2244C28.1745 31.0682 28.8513 30.0625 29.7061 29.2074C30.5609 28.3522 31.5662 27.6751 32.7219 27.1761C33.8775 26.6773 35.1123 26.4279 36.4261 26.4279C37.7401 26.4279 38.9752 26.6773 40.1314 27.1761C41.2875 27.6748 42.2932 28.3516 43.1484 29.2066C44.0035 30.0616 44.6806 31.067 45.1796 32.2229C45.6784 33.3787 45.9279 34.6137 45.9279 35.9279V36.3009C45.9279 36.4252 45.9144 36.5496 45.8874 36.6741L44.4279 36.2279V35.9279C44.4279 33.6945 43.6529 31.8029 42.1029 30.2529C40.5529 28.7029 38.6612 27.9279 36.4279 27.9279C34.1945 27.9279 32.3029 28.7029 30.7529 30.2529C29.2029 31.8029 28.4279 33.6945 28.4279 35.9279C28.4279 38.1612 29.2029 40.0529 30.7529 41.6029C32.3029 43.1529 34.1945 43.9279 36.4279 43.9279H36.7279L37.1836 45.3874ZM44.5681 45.5721L40.0336 41.0279L38.9471 44.3124L36.4279 35.9279L44.8124 38.4471L41.5279 39.5336L46.0721 44.0681L44.5681 45.5721Z" fill="white"/>
<rect x="186" y="16" width="40" height="40" rx="20" fill="#F2F4F5"/>
<path d="M210.501 44H201.45V33.6752L207.158 28L207.886 28.7279C207.976 28.8172 208.05 28.9355 208.109 29.0828C208.168 29.2301 208.197 29.3688 208.197 29.499V29.7174L207.284 33.6752H213.049C213.458 33.6752 213.819 33.8322 214.133 34.1461C214.447 34.4598 214.604 34.8213 214.604 35.2306V36.6203C214.604 36.7097 214.592 36.8062 214.569 36.9099C214.546 37.0136 214.52 37.1101 214.492 37.1996L212.026 43.0172C211.903 43.293 211.696 43.5257 211.406 43.7154C211.116 43.9051 210.814 44 210.501 44ZM202.74 42.7094H210.501C210.561 42.7094 210.623 42.6928 210.687 42.6597C210.75 42.6266 210.798 42.5714 210.832 42.4943L213.313 36.6866V35.2306C213.313 35.1533 213.289 35.0898 213.239 35.0402C213.189 34.9906 213.126 34.9658 213.049 34.9658H205.653L206.731 30.2502L202.74 34.2246V42.7094ZM201.45 33.6752V34.9658H198.687V42.7094H201.45V44H197.396V33.6752H201.45Z" fill="#526067"/>
<path d="M17.76 84V75.6H18.96V84H17.76ZM21.4748 84V75.6H22.4588L26.2268 81.948H25.6988L29.4188 75.6H30.4028L30.4148 84H29.2628L29.2508 77.412H29.5268L26.2148 82.98H25.6628L22.3268 77.412H22.6268V84H21.4748ZM32.9358 84V75.6H36.2118C36.9478 75.6 37.5758 75.716 38.0958 75.948C38.6158 76.18 39.0158 76.516 39.2958 76.956C39.5758 77.396 39.7158 77.92 39.7158 78.528C39.7158 79.136 39.5758 79.66 39.2958 80.1C39.0158 80.532 38.6158 80.868 38.0958 81.108C37.5758 81.34 36.9478 81.456 36.2118 81.456H33.5958L34.1358 80.892V84H32.9358ZM34.1358 81.012L33.5958 80.412H36.1758C36.9438 80.412 37.5238 80.248 37.9158 79.92C38.3158 79.592 38.5158 79.128 38.5158 78.528C38.5158 77.928 38.3158 77.464 37.9158 77.136C37.5238 76.808 36.9438 76.644 36.1758 76.644H33.5958L34.1358 76.044V81.012ZM41.4788 84V75.6H44.7548C45.4908 75.6 46.1188 75.716 46.6388 75.948C47.1588 76.18 47.5588 76.516 47.8388 76.956C48.1188 77.396 48.2588 77.92 48.2588 78.528C48.2588 79.136 48.1188 79.66 47.8388 80.1C47.5588 80.532 47.1588 80.864 46.6388 81.096C46.1188 81.328 45.4908 81.444 44.7548 81.444H42.1388L42.6788 80.892V84H41.4788ZM47.0948 84L44.9588 80.952H46.2428L48.4028 84H47.0948ZM42.6788 81.012L42.1388 80.424H44.7188C45.4868 80.424 46.0668 80.26 46.4588 79.932C46.8588 79.596 47.0588 79.128 47.0588 78.528C47.0588 77.928 46.8588 77.464 46.4588 77.136C46.0668 76.808 45.4868 76.644 44.7188 76.644H42.1388L42.6788 76.044V81.012ZM51.2895 79.224H55.6095V80.244H51.2895V79.224ZM51.3975 82.956H56.2935V84H50.1975V75.6H56.1255V76.644H51.3975V82.956ZM60.6846 84.096C60.0446 84.096 59.4326 84 58.8486 83.808C58.2646 83.608 57.8046 83.352 57.4686 83.04L57.9126 82.104C58.2326 82.384 58.6406 82.616 59.1366 82.8C59.6326 82.984 60.1486 83.076 60.6846 83.076C61.1726 83.076 61.5686 83.02 61.8726 82.908C62.1766 82.796 62.4006 82.644 62.5446 82.452C62.6886 82.252 62.7606 82.028 62.7606 81.78C62.7606 81.492 62.6646 81.26 62.4726 81.084C62.2886 80.908 62.0446 80.768 61.7406 80.664C61.4446 80.552 61.1166 80.456 60.7566 80.376C60.3966 80.296 60.0326 80.204 59.6646 80.1C59.3046 79.988 58.9726 79.848 58.6686 79.68C58.3726 79.512 58.1326 79.288 57.9486 79.008C57.7646 78.72 57.6726 78.352 57.6726 77.904C57.6726 77.472 57.7846 77.076 58.0086 76.716C58.2406 76.348 58.5926 76.056 59.0646 75.84C59.5446 75.616 60.1526 75.504 60.8886 75.504C61.3766 75.504 61.8606 75.568 62.3406 75.696C62.8206 75.824 63.2366 76.008 63.5886 76.248L63.1926 77.208C62.8326 76.968 62.4526 76.796 62.0526 76.692C61.6526 76.58 61.2646 76.524 60.8886 76.524C60.4166 76.524 60.0286 76.584 59.7246 76.704C59.4206 76.824 59.1966 76.984 59.0526 77.184C58.9166 77.384 58.8486 77.608 58.8486 77.856C58.8486 78.152 58.9406 78.388 59.1246 78.564C59.3166 78.74 59.5606 78.88 59.8566 78.984C60.1606 79.088 60.4926 79.184 60.8526 79.272C61.2126 79.352 61.5726 79.444 61.9326 79.548C62.3006 79.652 62.6326 79.788 62.9286 79.956C63.2326 80.124 63.4766 80.348 63.6606 80.628C63.8446 80.908 63.9366 81.268 63.9366 81.708C63.9366 82.132 63.8206 82.528 63.5886 82.896C63.3566 83.256 62.9966 83.548 62.5086 83.772C62.0286 83.988 61.4206 84.096 60.6846 84.096ZM68.1377 84.096C67.4977 84.096 66.8857 84 66.3017 83.808C65.7177 83.608 65.2577 83.352 64.9217 83.04L65.3657 82.104C65.6857 82.384 66.0937 82.616 66.5897 82.8C67.0857 82.984 67.6017 83.076 68.1377 83.076C68.6257 83.076 69.0217 83.02 69.3257 82.908C69.6297 82.796 69.8537 82.644 69.9977 82.452C70.1417 82.252 70.2137 82.028 70.2137 81.78C70.2137 81.492 70.1177 81.26 69.9257 81.084C69.7417 80.908 69.4977 80.768 69.1937 80.664C68.8977 80.552 68.5697 80.456 68.2097 80.376C67.8497 80.296 67.4857 80.204 67.1177 80.1C66.7577 79.988 66.4257 79.848 66.1217 79.68C65.8257 79.512 65.5857 79.288 65.4017 79.008C65.2177 78.72 65.1257 78.352 65.1257 77.904C65.1257 77.472 65.2377 77.076 65.4617 76.716C65.6937 76.348 66.0457 76.056 66.5177 75.84C66.9977 75.616 67.6057 75.504 68.3417 75.504C68.8297 75.504 69.3137 75.568 69.7937 75.696C70.2737 75.824 70.6897 76.008 71.0417 76.248L70.6457 77.208C70.2857 76.968 69.9057 76.796 69.5057 76.692C69.1057 76.58 68.7177 76.524 68.3417 76.524C67.8697 76.524 67.4817 76.584 67.1777 76.704C66.8737 76.824 66.6497 76.984 66.5057 77.184C66.3697 77.384 66.3017 77.608 66.3017 77.856C66.3017 78.152 66.3937 78.388 66.5777 78.564C66.7697 78.74 67.0137 78.88 67.3097 78.984C67.6137 79.088 67.9457 79.184 68.3057 79.272C68.6657 79.352 69.0257 79.444 69.3857 79.548C69.7537 79.652 70.0857 79.788 70.3817 79.956C70.6857 80.124 70.9297 80.348 71.1137 80.628C71.2977 80.908 71.3897 81.268 71.3897 81.708C71.3897 82.132 71.2737 82.528 71.0417 82.896C70.8097 83.256 70.4497 83.548 69.9617 83.772C69.4817 83.988 68.8737 84.096 68.1377 84.096ZM73.1428 84V75.6H74.3428V84H73.1428ZM80.6497 84.096C80.0097 84.096 79.4137 83.988 78.8617 83.772C78.3177 83.556 77.8457 83.256 77.4457 82.872C77.0457 82.48 76.7337 82.024 76.5097 81.504C76.2857 80.984 76.1737 80.416 76.1737 79.8C76.1737 79.184 76.2857 78.616 76.5097 78.096C76.7337 77.576 77.0457 77.124 77.4457 76.74C77.8457 76.348 78.3177 76.044 78.8617 75.828C79.4057 75.612 80.0017 75.504 80.6497 75.504C81.2897 75.504 81.8777 75.612 82.4137 75.828C82.9577 76.036 83.4297 76.336 83.8297 76.728C84.2377 77.112 84.5497 77.564 84.7657 78.084C84.9897 78.604 85.1017 79.176 85.1017 79.8C85.1017 80.424 84.9897 80.996 84.7657 81.516C84.5497 82.036 84.2377 82.492 83.8297 82.884C83.4297 83.268 82.9577 83.568 82.4137 83.784C81.8777 83.992 81.2897 84.096 80.6497 84.096ZM80.6497 83.028C81.1137 83.028 81.5417 82.948 81.9337 82.788C82.3337 82.628 82.6777 82.404 82.9657 82.116C83.2617 81.82 83.4897 81.476 83.6497 81.084C83.8177 80.692 83.9017 80.264 83.9017 79.8C83.9017 79.336 83.8177 78.908 83.6497 78.516C83.4897 78.124 83.2617 77.784 82.9657 77.496C82.6777 77.2 82.3337 76.972 81.9337 76.812C81.5417 76.652 81.1137 76.572 80.6497 76.572C80.1777 76.572 79.7417 76.652 79.3417 76.812C78.9497 76.972 78.6057 77.2 78.3097 77.496C78.0137 77.784 77.7817 78.124 77.6137 78.516C77.4537 78.908 77.3737 79.336 77.3737 79.8C77.3737 80.264 77.4537 80.692 77.6137 81.084C77.7817 81.476 78.0137 81.82 78.3097 82.116C78.6057 82.404 78.9497 82.628 79.3417 82.788C79.7417 82.948 80.1777 83.028 80.6497 83.028ZM86.9358 84V75.6H87.9198L93.4758 82.5H92.9598V75.6H94.1598V84H93.1758L87.6198 77.1H88.1358V84H86.9358ZM99.1221 84.096C98.4821 84.096 97.8701 84 97.2861 83.808C96.7021 83.608 96.2421 83.352 95.9061 83.04L96.3501 82.104C96.6701 82.384 97.0781 82.616 97.5741 82.8C98.0701 82.984 98.5861 83.076 99.1221 83.076C99.6101 83.076 100.006 83.02 100.31 82.908C100.614 82.796 100.838 82.644 100.982 82.452C101.126 82.252 101.198 82.028 101.198 81.78C101.198 81.492 101.102 81.26 100.91 81.084C100.726 80.908 100.482 80.768 100.178 80.664C99.8821 80.552 99.5541 80.456 99.1941 80.376C98.8341 80.296 98.4701 80.204 98.1021 80.1C97.7421 79.988 97.4101 79.848 97.1061 79.68C96.8101 79.512 96.5701 79.288 96.3861 79.008C96.2021 78.72 96.1101 78.352 96.1101 77.904C96.1101 77.472 96.2221 77.076 96.4461 76.716C96.6781 76.348 97.0301 76.056 97.5021 75.84C97.9821 75.616 98.5901 75.504 99.3261 75.504C99.8141 75.504 100.298 75.568 100.778 75.696C101.258 75.824 101.674 76.008 102.026 76.248L101.63 77.208C101.27 76.968 100.89 76.796 100.49 76.692C100.09 76.58 99.7021 76.524 99.3261 76.524C98.8541 76.524 98.4661 76.584 98.1621 76.704C97.8581 76.824 97.6341 76.984 97.4901 77.184C97.3541 77.384 97.2861 77.608 97.2861 77.856C97.2861 78.152 97.3781 78.388 97.5621 78.564C97.7541 78.74 97.9981 78.88 98.2941 78.984C98.5981 79.088 98.9301 79.184 99.2901 79.272C99.6501 79.352 100.01 79.444 100.37 79.548C100.738 79.652 101.07 79.788 101.366 79.956C101.67 80.124 101.914 80.348 102.098 80.628C102.282 80.908 102.374 81.268 102.374 81.708C102.374 82.132 102.258 82.528 102.026 82.896C101.794 83.256 101.434 83.548 100.946 83.772C100.466 83.988 99.8581 84.096 99.1221 84.096Z" fill="#3E4C54"/>
<path d="M17.34 114V111.912L24.012 105.576C24.572 105.048 24.988 104.584 25.26 104.184C25.532 103.784 25.708 103.416 25.788 103.08C25.884 102.728 25.932 102.4 25.932 102.096C25.932 101.328 25.668 100.736 25.14 100.32C24.612 99.888 23.836 99.672 22.812 99.672C21.996 99.672 21.252 99.816 20.58 100.104C19.924 100.392 19.356 100.832 18.876 101.424L16.692 99.744C17.348 98.864 18.228 98.184 19.332 97.704C20.452 97.208 21.7 96.96 23.076 96.96C24.292 96.96 25.348 97.16 26.244 97.56C27.156 97.944 27.852 98.496 28.332 99.216C28.828 99.936 29.076 100.792 29.076 101.784C29.076 102.328 29.004 102.872 28.86 103.416C28.716 103.944 28.444 104.504 28.044 105.096C27.644 105.688 27.06 106.352 26.292 107.088L20.556 112.536L19.908 111.36H29.724V114H17.34ZM31.8791 117.624L33.2711 112.32L33.6791 114.096C33.1191 114.096 32.6471 113.928 32.2631 113.592C31.8951 113.24 31.7111 112.768 31.7111 112.176C31.7111 111.568 31.8951 111.088 32.2631 110.736C32.6471 110.368 33.1111 110.184 33.6551 110.184C34.2151 110.184 34.6791 110.368 35.0471 110.736C35.4151 111.104 35.5991 111.584 35.5991 112.176C35.5991 112.336 35.5831 112.512 35.5511 112.704C35.5191 112.88 35.4631 113.088 35.3831 113.328C35.3191 113.568 35.2071 113.872 35.0471 114.24L33.8231 117.624H31.8791ZM44.6093 114.24C43.0893 114.24 41.7853 113.92 40.6973 113.28C39.6093 112.624 38.7773 111.68 38.2013 110.448C37.6253 109.216 37.3373 107.696 37.3373 105.888C37.3373 103.968 37.6813 102.344 38.3693 101.016C39.0733 99.688 40.0413 98.68 41.2733 97.992C42.5213 97.304 43.9533 96.96 45.5693 96.96C46.4173 96.96 47.2253 97.048 47.9933 97.224C48.7773 97.4 49.4413 97.672 49.9853 98.04L48.8333 100.392C48.3693 100.088 47.8653 99.88 47.3213 99.768C46.7933 99.64 46.2333 99.576 45.6413 99.576C44.0573 99.576 42.8013 100.064 41.8733 101.04C40.9453 102.016 40.4813 103.456 40.4813 105.36C40.4813 105.664 40.4893 106.024 40.5053 106.44C40.5213 106.84 40.5773 107.248 40.6733 107.664L39.7133 106.608C40.0013 105.952 40.3933 105.408 40.8893 104.976C41.4013 104.528 42.0013 104.192 42.6893 103.968C43.3933 103.744 44.1533 103.632 44.9693 103.632C46.0733 103.632 47.0573 103.848 47.9213 104.28C48.7853 104.696 49.4733 105.296 49.9853 106.08C50.4973 106.848 50.7533 107.752 50.7533 108.792C50.7533 109.896 50.4813 110.856 49.9373 111.672C49.3933 112.488 48.6573 113.12 47.7293 113.568C46.8013 114.016 45.7613 114.24 44.6093 114.24ZM44.4413 111.792C45.0813 111.792 45.6493 111.68 46.1453 111.456C46.6413 111.216 47.0253 110.88 47.2973 110.448C47.5853 110.016 47.7293 109.512 47.7293 108.936C47.7293 108.056 47.4253 107.36 46.8173 106.848C46.2093 106.336 45.3933 106.08 44.3693 106.08C43.6973 106.08 43.1053 106.208 42.5933 106.464C42.0973 106.704 41.6973 107.04 41.3933 107.472C41.1053 107.904 40.9613 108.4 40.9613 108.96C40.9613 109.472 41.0973 109.944 41.3693 110.376C41.6413 110.808 42.0333 111.152 42.5453 111.408C43.0733 111.664 43.7053 111.792 44.4413 111.792ZM59.6561 114.24C58.1361 114.24 56.8321 113.92 55.7441 113.28C54.6561 112.624 53.8241 111.68 53.2481 110.448C52.6721 109.216 52.3841 107.696 52.3841 105.888C52.3841 103.968 52.7281 102.344 53.4161 101.016C54.1201 99.688 55.0881 98.68 56.3201 97.992C57.5681 97.304 59.0001 96.96 60.6161 96.96C61.4641 96.96 62.2721 97.048 63.0401 97.224C63.8241 97.4 64.4881 97.672 65.0321 98.04L63.8801 100.392C63.4161 100.088 62.9121 99.88 62.3681 99.768C61.8401 99.64 61.2801 99.576 60.6881 99.576C59.1041 99.576 57.8481 100.064 56.9201 101.04C55.9921 102.016 55.5281 103.456 55.5281 105.36C55.5281 105.664 55.5361 106.024 55.5521 106.44C55.5681 106.84 55.6241 107.248 55.7201 107.664L54.7601 106.608C55.0481 105.952 55.4401 105.408 55.9361 104.976C56.4481 104.528 57.0481 104.192 57.7361 103.968C58.4401 103.744 59.2001 103.632 60.0161 103.632C61.1201 103.632 62.1041 103.848 62.9681 104.28C63.8321 104.696 64.5201 105.296 65.0321 106.08C65.5441 106.848 65.8001 107.752 65.8001 108.792C65.8001 109.896 65.5281 110.856 64.9841 111.672C64.4401 112.488 63.7041 113.12 62.7761 113.568C61.8481 114.016 60.8081 114.24 59.6561 114.24ZM59.4881 111.792C60.1281 111.792 60.6961 111.68 61.1921 111.456C61.6881 111.216 62.0721 110.88 62.3441 110.448C62.6321 110.016 62.7761 109.512 62.7761 108.936C62.7761 108.056 62.4721 107.36 61.8641 106.848C61.2561 106.336 60.4401 106.08 59.4161 106.08C58.7441 106.08 58.1521 106.208 57.6401 106.464C57.1441 106.704 56.7441 107.04 56.4401 107.472C56.1521 107.904 56.0081 108.4 56.0081 108.96C56.0081 109.472 56.1441 109.944 56.4161 110.376C56.6881 110.808 57.0801 111.152 57.5921 111.408C58.1201 111.664 58.7521 111.792 59.4881 111.792ZM72.711 114.24C71.527 114.24 70.367 114.072 69.231 113.736C68.111 113.384 67.167 112.904 66.399 112.296L67.743 109.872C68.351 110.368 69.087 110.768 69.951 111.072C70.815 111.376 71.719 111.528 72.663 111.528C73.783 111.528 74.655 111.304 75.279 110.856C75.903 110.392 76.215 109.768 76.215 108.984C76.215 108.216 75.927 107.608 75.351 107.16C74.775 106.712 73.847 106.488 72.567 106.488H71.031V104.352L75.831 98.64L76.239 99.816H67.215V97.2H78.663V99.288L73.863 105L72.231 104.04H73.167C75.231 104.04 76.775 104.504 77.799 105.432C78.839 106.344 79.359 107.52 79.359 108.96C79.359 109.904 79.119 110.776 78.639 111.576C78.159 112.376 77.423 113.024 76.431 113.52C75.455 114 74.215 114.24 72.711 114.24ZM81.5198 117.624L82.9118 112.32L83.3198 114.096C82.7598 114.096 82.2878 113.928 81.9038 113.592C81.5358 113.24 81.3518 112.768 81.3518 112.176C81.3518 111.568 81.5358 111.088 81.9038 110.736C82.2878 110.368 82.7518 110.184 83.2958 110.184C83.8558 110.184 84.3198 110.368 84.6878 110.736C85.0558 111.104 85.2398 111.584 85.2398 112.176C85.2398 112.336 85.2238 112.512 85.1918 112.704C85.1598 112.88 85.1038 113.088 85.0238 113.328C84.9598 113.568 84.8478 113.872 84.6878 114.24L83.4638 117.624H81.5198ZM94.2499 114.24C92.7299 114.24 91.4259 113.92 90.3379 113.28C89.2499 112.624 88.4179 111.68 87.8419 110.448C87.2659 109.216 86.9779 107.696 86.9779 105.888C86.9779 103.968 87.3219 102.344 88.0099 101.016C88.7139 99.688 89.6819 98.68 90.9139 97.992C92.1619 97.304 93.5939 96.96 95.2099 96.96C96.0579 96.96 96.8659 97.048 97.6339 97.224C98.4179 97.4 99.0819 97.672 99.6259 98.04L98.4739 100.392C98.0099 100.088 97.5059 99.88 96.9619 99.768C96.4339 99.64 95.8739 99.576 95.2819 99.576C93.6979 99.576 92.4419 100.064 91.5139 101.04C90.5859 102.016 90.1219 103.456 90.1219 105.36C90.1219 105.664 90.1299 106.024 90.1459 106.44C90.1619 106.84 90.2179 107.248 90.3139 107.664L89.3539 106.608C89.6419 105.952 90.0339 105.408 90.5299 104.976C91.0419 104.528 91.6419 104.192 92.3299 103.968C93.0339 103.744 93.7939 103.632 94.6099 103.632C95.7139 103.632 96.6979 103.848 97.5619 104.28C98.4259 104.696 99.1139 105.296 99.6259 106.08C100.138 106.848 100.394 107.752 100.394 108.792C100.394 109.896 100.122 110.856 99.5779 111.672C99.0339 112.488 98.2979 113.12 97.3699 113.568C96.4419 114.016 95.4019 114.24 94.2499 114.24ZM94.0819 111.792C94.7219 111.792 95.2899 111.68 95.7859 111.456C96.2819 111.216 96.6659 110.88 96.9379 110.448C97.2259 110.016 97.3699 109.512 97.3699 108.936C97.3699 108.056 97.0659 107.36 96.4579 106.848C95.8499 106.336 95.0339 106.08 94.0099 106.08C93.3379 106.08 92.7459 106.208 92.2339 106.464C91.7379 106.704 91.3379 107.04 91.0339 107.472C90.7459 107.904 90.6019 108.4 90.6019 108.96C90.6019 109.472 90.7379 109.944 91.0099 110.376C91.2819 110.808 91.6739 111.152 92.1859 111.408C92.7139 111.664 93.3459 111.792 94.0819 111.792ZM107.593 114.24C106.409 114.24 105.249 114.072 104.113 113.736C102.993 113.384 102.049 112.904 101.281 112.296L102.601 109.872C103.209 110.368 103.945 110.768 104.809 111.072C105.689 111.376 106.601 111.528 107.545 111.528C108.649 111.528 109.513 111.296 110.137 110.832C110.777 110.368 111.097 109.744 111.097 108.96C111.097 108.432 110.961 107.968 110.689 107.568C110.433 107.168 109.969 106.864 109.297 106.656C108.641 106.448 107.737 106.344 106.585 106.344H102.529L103.393 97.2H113.257V99.816H104.545L106.177 98.328L105.529 105.168L103.897 103.704H107.281C108.945 103.704 110.281 103.928 111.289 104.376C112.313 104.808 113.057 105.416 113.521 106.2C114.001 106.968 114.241 107.848 114.241 108.84C114.241 109.816 114.001 110.712 113.521 111.528C113.041 112.344 112.305 113 111.313 113.496C110.337 113.992 109.097 114.24 107.593 114.24ZM121.203 114.24C120.019 114.24 118.859 114.072 117.723 113.736C116.603 113.384 115.659 112.904 114.891 112.296L116.235 109.872C116.843 110.368 117.579 110.768 118.443 111.072C119.307 111.376 120.211 111.528 121.155 111.528C122.275 111.528 123.147 111.304 123.771 110.856C124.395 110.392 124.707 109.768 124.707 108.984C124.707 108.216 124.419 107.608 123.843 107.16C123.267 106.712 122.339 106.488 121.059 106.488H119.523V104.352L124.323 98.64L124.731 99.816H115.707V97.2H127.155V99.288L122.355 105L120.723 104.04H121.659C123.723 104.04 125.267 104.504 126.291 105.432C127.331 106.344 127.851 107.52 127.851 108.96C127.851 109.904 127.611 110.776 127.131 111.576C126.651 112.376 125.915 113.024 124.923 113.52C123.947 114 122.707 114.24 121.203 114.24Z" fill="#1C252A"/>
<path d="M195.344 122.128C194.469 122.128 193.685 121.904 192.992 121.456C192.309 121.008 191.765 120.357 191.36 119.504C190.965 118.651 190.768 117.616 190.768 116.4C190.768 115.184 190.965 114.149 191.36 113.296C191.765 112.443 192.309 111.792 192.992 111.344C193.685 110.896 194.469 110.672 195.344 110.672C196.208 110.672 196.987 110.896 197.68 111.344C198.373 111.792 198.917 112.443 199.312 113.296C199.707 114.149 199.904 115.184 199.904 116.4C199.904 117.616 199.707 118.651 199.312 119.504C198.917 120.357 198.373 121.008 197.68 121.456C196.987 121.904 196.208 122.128 195.344 122.128ZM195.344 120.704C195.931 120.704 196.443 120.544 196.88 120.224C197.328 119.904 197.675 119.424 197.92 118.784C198.176 118.144 198.304 117.349 198.304 116.4C198.304 115.451 198.176 114.656 197.92 114.016C197.675 113.376 197.328 112.896 196.88 112.576C196.443 112.256 195.931 112.096 195.344 112.096C194.757 112.096 194.24 112.256 193.792 112.576C193.344 112.896 192.992 113.376 192.736 114.016C192.491 114.656 192.368 115.451 192.368 116.4C192.368 117.349 192.491 118.144 192.736 118.784C192.992 119.424 193.344 119.904 193.792 120.224C194.24 120.544 194.757 120.704 195.344 120.704Z" fill="#859096"/>
<path d="M174.05 140V133H174.87L179.5 138.75H179.07V133H180.07V140H179.25L174.62 134.25H175.05V140H174.05ZM183.205 135.76C182.865 135.76 182.562 135.69 182.295 135.55C182.029 135.41 181.819 135.217 181.665 134.97C181.512 134.723 181.435 134.447 181.435 134.14C181.435 133.827 181.512 133.55 181.665 133.31C181.819 133.063 182.029 132.873 182.295 132.74C182.562 132.6 182.865 132.53 183.205 132.53C183.552 132.53 183.859 132.6 184.125 132.74C184.392 132.873 184.599 133.063 184.745 133.31C184.899 133.55 184.975 133.827 184.975 134.14C184.975 134.447 184.899 134.723 184.745 134.97C184.599 135.217 184.392 135.41 184.125 135.55C183.859 135.69 183.552 135.76 183.205 135.76ZM183.205 135.18C183.532 135.18 183.795 135.083 183.995 134.89C184.202 134.697 184.305 134.447 184.305 134.14C184.305 133.827 184.202 133.577 183.995 133.39C183.795 133.197 183.532 133.1 183.205 133.1C182.885 133.1 182.622 133.197 182.415 133.39C182.209 133.577 182.105 133.827 182.105 134.14C182.105 134.44 182.209 134.69 182.415 134.89C182.622 135.083 182.885 135.18 183.205 135.18ZM192.16 140.08C191.627 140.08 191.134 139.993 190.68 139.82C190.234 139.64 189.844 139.39 189.51 139.07C189.184 138.743 188.927 138.363 188.74 137.93C188.554 137.497 188.46 137.02 188.46 136.5C188.46 135.98 188.554 135.503 188.74 135.07C188.927 134.637 189.187 134.26 189.52 133.94C189.854 133.613 190.244 133.363 190.69 133.19C191.144 133.01 191.637 132.92 192.17 132.92C192.71 132.92 193.207 133.013 193.66 133.2C194.12 133.38 194.51 133.65 194.83 134.01L194.18 134.64C193.914 134.36 193.614 134.153 193.28 134.02C192.947 133.88 192.59 133.81 192.21 133.81C191.817 133.81 191.45 133.877 191.11 134.01C190.777 134.143 190.487 134.33 190.24 134.57C189.994 134.81 189.8 135.097 189.66 135.43C189.527 135.757 189.46 136.113 189.46 136.5C189.46 136.887 189.527 137.247 189.66 137.58C189.8 137.907 189.994 138.19 190.24 138.43C190.487 138.67 190.777 138.857 191.11 138.99C191.45 139.123 191.817 139.19 192.21 139.19C192.59 139.19 192.947 139.123 193.28 138.99C193.614 138.85 193.914 138.637 194.18 138.35L194.83 138.98C194.51 139.34 194.12 139.613 193.66 139.8C193.207 139.987 192.707 140.08 192.16 140.08ZM196.117 140V132.58H197.077V140H196.117ZM198.91 140V134.7H199.87V140H198.91ZM199.39 133.68C199.203 133.68 199.047 133.62 198.92 133.5C198.8 133.38 198.74 133.233 198.74 133.06C198.74 132.88 198.8 132.73 198.92 132.61C199.047 132.49 199.203 132.43 199.39 132.43C199.577 132.43 199.73 132.49 199.85 132.61C199.977 132.723 200.04 132.867 200.04 133.04C200.04 133.22 199.98 133.373 199.86 133.5C199.74 133.62 199.583 133.68 199.39 133.68ZM204.013 140.06C203.473 140.06 202.99 139.943 202.563 139.71C202.143 139.477 201.813 139.157 201.573 138.75C201.333 138.343 201.213 137.877 201.213 137.35C201.213 136.823 201.333 136.357 201.573 135.95C201.813 135.543 202.143 135.227 202.563 135C202.99 134.767 203.473 134.65 204.013 134.65C204.493 134.65 204.92 134.747 205.293 134.94C205.673 135.127 205.966 135.407 206.173 135.78L205.443 136.25C205.27 135.99 205.056 135.8 204.803 135.68C204.556 135.553 204.29 135.49 204.003 135.49C203.656 135.49 203.346 135.567 203.073 135.72C202.8 135.873 202.583 136.09 202.423 136.37C202.263 136.643 202.183 136.97 202.183 137.35C202.183 137.73 202.263 138.06 202.423 138.34C202.583 138.62 202.8 138.837 203.073 138.99C203.346 139.143 203.656 139.22 204.003 139.22C204.29 139.22 204.556 139.16 204.803 139.04C205.056 138.913 205.27 138.72 205.443 138.46L206.173 138.92C205.966 139.287 205.673 139.57 205.293 139.77C204.92 139.963 204.493 140.06 204.013 140.06ZM208.128 138.72L208.148 137.49L211.198 134.7H212.358L210.018 137L209.498 137.44L208.128 138.72ZM207.348 140V132.58H208.308V140H207.348ZM211.398 140L209.318 137.42L209.938 136.65L212.578 140H211.398ZM214.864 140.06C214.424 140.06 214.004 140 213.604 139.88C213.21 139.76 212.9 139.613 212.674 139.44L213.074 138.68C213.3 138.833 213.58 138.963 213.914 139.07C214.247 139.177 214.587 139.23 214.934 139.23C215.38 139.23 215.7 139.167 215.894 139.04C216.094 138.913 216.194 138.737 216.194 138.51C216.194 138.343 216.134 138.213 216.014 138.12C215.894 138.027 215.734 137.957 215.534 137.91C215.34 137.863 215.124 137.823 214.884 137.79C214.644 137.75 214.404 137.703 214.164 137.65C213.924 137.59 213.704 137.51 213.504 137.41C213.304 137.303 213.144 137.16 213.024 136.98C212.904 136.793 212.844 136.547 212.844 136.24C212.844 135.92 212.934 135.64 213.114 135.4C213.294 135.16 213.547 134.977 213.874 134.85C214.207 134.717 214.6 134.65 215.054 134.65C215.4 134.65 215.75 134.693 216.104 134.78C216.464 134.86 216.757 134.977 216.984 135.13L216.574 135.89C216.334 135.73 216.084 135.62 215.824 135.56C215.564 135.5 215.304 135.47 215.044 135.47C214.624 135.47 214.31 135.54 214.104 135.68C213.897 135.813 213.794 135.987 213.794 136.2C213.794 136.38 213.854 136.52 213.974 136.62C214.1 136.713 214.26 136.787 214.454 136.84C214.654 136.893 214.874 136.94 215.114 136.98C215.354 137.013 215.594 137.06 215.834 137.12C216.074 137.173 216.29 137.25 216.484 137.35C216.684 137.45 216.844 137.59 216.964 137.77C217.09 137.95 217.154 138.19 217.154 138.49C217.154 138.81 217.06 139.087 216.874 139.32C216.687 139.553 216.424 139.737 216.084 139.87C215.744 139.997 215.337 140.06 214.864 140.06Z" fill="#859096"/>
<path d="M24.8333 129.994V140.751L28.2718 137.317L28.7308 137.776L24.5 142.006L20.2692 137.776L20.7282 137.3L24.1667 140.738V129.994H24.8333Z" fill="#C70E0E"/>
<path d="M35.776 141.072C35.176 141.072 34.604 140.976 34.06 140.784C33.516 140.584 33.084 140.32 32.764 139.992L33.184 139.308C33.448 139.588 33.808 139.82 34.264 140.004C34.728 140.188 35.228 140.28 35.764 140.28C36.476 140.28 37.016 140.124 37.384 139.812C37.76 139.492 37.948 139.076 37.948 138.564C37.948 138.204 37.86 137.896 37.684 137.64C37.516 137.376 37.228 137.172 36.82 137.028C36.412 136.884 35.852 136.812 35.14 136.812H33.352L33.784 132.6H38.38V133.368H34.132L34.576 132.948L34.204 136.476L33.76 136.044H35.332C36.18 136.044 36.86 136.148 37.372 136.356C37.884 136.564 38.252 136.856 38.476 137.232C38.708 137.6 38.824 138.032 38.824 138.528C38.824 139 38.712 139.432 38.488 139.824C38.264 140.208 37.928 140.512 37.48 140.736C37.032 140.96 36.464 141.072 35.776 141.072ZM39.7063 141V140.388L43.1983 136.968C43.5183 136.656 43.7583 136.384 43.9183 136.152C44.0783 135.912 44.1863 135.688 44.2423 135.48C44.2983 135.272 44.3263 135.076 44.3263 134.892C44.3263 134.404 44.1583 134.02 43.8223 133.74C43.4943 133.46 43.0063 133.32 42.3583 133.32C41.8623 133.32 41.4223 133.396 41.0383 133.548C40.6623 133.7 40.3383 133.936 40.0663 134.256L39.4543 133.728C39.7823 133.344 40.2023 133.048 40.7143 132.84C41.2263 132.632 41.7983 132.528 42.4303 132.528C42.9983 132.528 43.4903 132.62 43.9063 132.804C44.3223 132.98 44.6423 133.24 44.8663 133.584C45.0983 133.928 45.2143 134.332 45.2143 134.796C45.2143 135.068 45.1743 135.336 45.0943 135.6C45.0223 135.864 44.8863 136.144 44.6863 136.44C44.4943 136.728 44.2103 137.056 43.8343 137.424L40.6303 140.568L40.3903 140.232H45.5983V141H39.7063ZM46.8478 142.752L47.3758 140.532L47.4718 141.048C47.2878 141.048 47.1318 140.988 47.0038 140.868C46.8838 140.748 46.8238 140.592 46.8238 140.4C46.8238 140.208 46.8838 140.052 47.0038 139.932C47.1318 139.812 47.2838 139.752 47.4598 139.752C47.6438 139.752 47.7918 139.816 47.9038 139.944C48.0238 140.072 48.0838 140.224 48.0838 140.4C48.0838 140.464 48.0798 140.528 48.0718 140.592C48.0638 140.656 48.0478 140.728 48.0238 140.808C47.9998 140.888 47.9678 140.984 47.9278 141.096L47.4238 142.752H46.8478ZM52.6578 141.072C51.9138 141.072 51.2858 140.908 50.7738 140.58C50.2618 140.244 49.8738 139.764 49.6098 139.14C49.3458 138.508 49.2138 137.752 49.2138 136.872C49.2138 135.92 49.3738 135.124 49.6938 134.484C50.0218 133.836 50.4738 133.348 51.0498 133.02C51.6258 132.692 52.2938 132.528 53.0538 132.528C53.4298 132.528 53.7898 132.564 54.1338 132.636C54.4778 132.708 54.7818 132.824 55.0458 132.984L54.6978 133.68C54.4818 133.536 54.2338 133.436 53.9538 133.38C53.6738 133.316 53.3778 133.284 53.0658 133.284C52.1618 133.284 51.4378 133.572 50.8938 134.148C50.3578 134.724 50.0898 135.584 50.0898 136.728C50.0898 136.904 50.0978 137.124 50.1138 137.388C50.1378 137.644 50.1858 137.9 50.2578 138.156L49.9578 137.928C50.0458 137.512 50.2178 137.16 50.4738 136.872C50.7298 136.576 51.0498 136.352 51.4338 136.2C51.8178 136.048 52.2378 135.972 52.6938 135.972C53.2538 135.972 53.7458 136.076 54.1698 136.284C54.5938 136.492 54.9258 136.784 55.1658 137.16C55.4058 137.536 55.5258 137.98 55.5258 138.492C55.5258 139.012 55.4018 139.468 55.1538 139.86C54.9058 140.244 54.5618 140.544 54.1218 140.76C53.6898 140.968 53.2018 141.072 52.6578 141.072ZM52.6218 140.34C53.0218 140.34 53.3738 140.268 53.6778 140.124C53.9898 139.972 54.2338 139.76 54.4098 139.488C54.5858 139.208 54.6738 138.884 54.6738 138.516C54.6738 137.964 54.4818 137.524 54.0978 137.196C53.7218 136.868 53.2098 136.704 52.5618 136.704C52.1298 136.704 51.7538 136.784 51.4338 136.944C51.1138 137.104 50.8618 137.324 50.6778 137.604C50.4938 137.876 50.4018 138.188 50.4018 138.54C50.4018 138.844 50.4858 139.136 50.6538 139.416C50.8218 139.688 51.0698 139.912 51.3978 140.088C51.7338 140.256 52.1418 140.34 52.6218 140.34ZM57.9086 141L61.5326 132.984L61.7966 133.368H56.6006L57.0446 132.948V134.94H56.1926V132.6H62.3606V133.212L58.8446 141H57.9086ZM64.627 141L70.363 132.6H71.071L65.335 141H64.627ZM65.275 137.1C64.899 137.1 64.567 137.008 64.279 136.824C63.991 136.632 63.767 136.364 63.607 136.02C63.455 135.676 63.379 135.276 63.379 134.82C63.379 134.364 63.455 133.964 63.607 133.62C63.767 133.276 63.991 133.012 64.279 132.828C64.567 132.636 64.899 132.54 65.275 132.54C65.651 132.54 65.979 132.636 66.259 132.828C66.547 133.012 66.771 133.276 66.931 133.62C67.091 133.964 67.171 134.364 67.171 134.82C67.171 135.276 67.091 135.676 66.931 136.02C66.771 136.364 66.547 136.632 66.259 136.824C65.979 137.008 65.651 137.1 65.275 137.1ZM65.275 136.56C65.667 136.56 65.979 136.408 66.211 136.104C66.451 135.792 66.571 135.364 66.571 134.82C66.571 134.276 66.451 133.852 66.211 133.548C65.979 133.236 65.667 133.08 65.275 133.08C64.875 133.08 64.559 133.236 64.327 133.548C64.095 133.852 63.979 134.276 63.979 134.82C63.979 135.364 64.095 135.792 64.327 136.104C64.559 136.408 64.875 136.56 65.275 136.56ZM70.423 141.06C70.055 141.06 69.727 140.968 69.439 140.784C69.151 140.592 68.927 140.324 68.767 139.98C68.607 139.636 68.527 139.236 68.527 138.78C68.527 138.324 68.607 137.924 68.767 137.58C68.927 137.236 69.151 136.972 69.439 136.788C69.727 136.596 70.055 136.5 70.423 136.5C70.807 136.5 71.139 136.596 71.419 136.788C71.707 136.972 71.927 137.236 72.079 137.58C72.239 137.924 72.319 138.324 72.319 138.78C72.319 139.236 72.239 139.636 72.079 139.98C71.927 140.324 71.707 140.592 71.419 140.784C71.139 140.968 70.807 141.06 70.423 141.06ZM70.423 140.52C70.815 140.52 71.127 140.368 71.359 140.064C71.599 139.752 71.719 139.324 71.719 138.78C71.719 138.236 71.599 137.812 71.359 137.508C71.127 137.196 70.815 137.04 70.423 137.04C70.031 137.04 69.715 137.196 69.475 137.508C69.243 137.812 69.127 138.236 69.127 138.78C69.127 139.324 69.243 139.752 69.475 140.064C69.715 140.368 70.031 140.52 70.423 140.52Z" fill="#C70E0E"/>
<path d="M82.55 140V133H83.55V139.13H87.34V140H82.55ZM91.6375 140V138.88L91.5875 138.67V136.76C91.5875 136.353 91.4675 136.04 91.2275 135.82C90.9942 135.593 90.6408 135.48 90.1675 135.48C89.8542 135.48 89.5475 135.533 89.2475 135.64C88.9475 135.74 88.6942 135.877 88.4875 136.05L88.0875 135.33C88.3608 135.11 88.6875 134.943 89.0675 134.83C89.4542 134.71 89.8575 134.65 90.2775 134.65C91.0042 134.65 91.5642 134.827 91.9575 135.18C92.3508 135.533 92.5475 136.073 92.5475 136.8V140H91.6375ZM89.8975 140.06C89.5042 140.06 89.1575 139.993 88.8575 139.86C88.5642 139.727 88.3375 139.543 88.1775 139.31C88.0175 139.07 87.9375 138.8 87.9375 138.5C87.9375 138.213 88.0042 137.953 88.1375 137.72C88.2775 137.487 88.5008 137.3 88.8075 137.16C89.1208 137.02 89.5408 136.95 90.0675 136.95H91.7475V137.64H90.1075C89.6275 137.64 89.3042 137.72 89.1375 137.88C88.9708 138.04 88.8875 138.233 88.8875 138.46C88.8875 138.72 88.9908 138.93 89.1975 139.09C89.4042 139.243 89.6908 139.32 90.0575 139.32C90.4175 139.32 90.7308 139.24 90.9975 139.08C91.2708 138.92 91.4675 138.687 91.5875 138.38L91.7775 139.04C91.6508 139.353 91.4275 139.603 91.1075 139.79C90.7875 139.97 90.3842 140.06 89.8975 140.06ZM95.8441 140.06C95.4041 140.06 94.9841 140 94.5841 139.88C94.1907 139.76 93.8807 139.613 93.6541 139.44L94.0541 138.68C94.2807 138.833 94.5607 138.963 94.8941 139.07C95.2274 139.177 95.5674 139.23 95.9141 139.23C96.3607 139.23 96.6807 139.167 96.8741 139.04C97.0741 138.913 97.1741 138.737 97.1741 138.51C97.1741 138.343 97.1141 138.213 96.9941 138.12C96.8741 138.027 96.7141 137.957 96.5141 137.91C96.3207 137.863 96.1041 137.823 95.8641 137.79C95.6241 137.75 95.3841 137.703 95.1441 137.65C94.9041 137.59 94.6841 137.51 94.4841 137.41C94.2841 137.303 94.1241 137.16 94.0041 136.98C93.8841 136.793 93.8241 136.547 93.8241 136.24C93.8241 135.92 93.9141 135.64 94.0941 135.4C94.2741 135.16 94.5274 134.977 94.8541 134.85C95.1874 134.717 95.5807 134.65 96.0341 134.65C96.3807 134.65 96.7307 134.693 97.0841 134.78C97.4441 134.86 97.7374 134.977 97.9641 135.13L97.5541 135.89C97.3141 135.73 97.0641 135.62 96.8041 135.56C96.5441 135.5 96.2841 135.47 96.0241 135.47C95.6041 135.47 95.2907 135.54 95.0841 135.68C94.8774 135.813 94.7741 135.987 94.7741 136.2C94.7741 136.38 94.8341 136.52 94.9541 136.62C95.0807 136.713 95.2407 136.787 95.4341 136.84C95.6341 136.893 95.8541 136.94 96.0941 136.98C96.3341 137.013 96.5741 137.06 96.8141 137.12C97.0541 137.173 97.2707 137.25 97.4641 137.35C97.6641 137.45 97.8241 137.59 97.9441 137.77C98.0707 137.95 98.1341 138.19 98.1341 138.49C98.1341 138.81 98.0407 139.087 97.8541 139.32C97.6674 139.553 97.4041 139.737 97.0641 139.87C96.7241 139.997 96.3174 140.06 95.8441 140.06ZM101.154 140.06C100.62 140.06 100.207 139.917 99.9138 139.63C99.6205 139.343 99.4738 138.933 99.4738 138.4V133.54H100.434V138.36C100.434 138.647 100.504 138.867 100.644 139.02C100.79 139.173 100.997 139.25 101.264 139.25C101.564 139.25 101.814 139.167 102.014 139L102.314 139.69C102.167 139.817 101.99 139.91 101.784 139.97C101.584 140.03 101.374 140.06 101.154 140.06ZM98.5738 135.49V134.7H101.954V135.49H98.5738ZM112.79 134.65C113.217 134.65 113.593 134.733 113.92 134.9C114.247 135.067 114.5 135.32 114.68 135.66C114.867 136 114.96 136.43 114.96 136.95V140H114V137.06C114 136.547 113.88 136.16 113.64 135.9C113.4 135.64 113.063 135.51 112.63 135.51C112.31 135.51 112.03 135.577 111.79 135.71C111.55 135.843 111.363 136.04 111.23 136.3C111.103 136.56 111.04 136.883 111.04 137.27V140H110.08V137.06C110.08 136.547 109.96 136.16 109.72 135.9C109.487 135.64 109.15 135.51 108.71 135.51C108.397 135.51 108.12 135.577 107.88 135.71C107.64 135.843 107.453 136.04 107.32 136.3C107.187 136.56 107.12 136.883 107.12 137.27V140H106.16V134.7H107.08V136.11L106.93 135.75C107.097 135.403 107.353 135.133 107.7 134.94C108.047 134.747 108.45 134.65 108.91 134.65C109.417 134.65 109.853 134.777 110.22 135.03C110.587 135.277 110.827 135.653 110.94 136.16L110.55 136C110.71 135.593 110.99 135.267 111.39 135.02C111.79 134.773 112.257 134.65 112.79 134.65ZM118.996 140.06C118.463 140.06 117.99 139.943 117.576 139.71C117.163 139.477 116.836 139.157 116.596 138.75C116.356 138.337 116.236 137.87 116.236 137.35C116.236 136.823 116.356 136.357 116.596 135.95C116.836 135.543 117.163 135.227 117.576 135C117.99 134.767 118.463 134.65 118.996 134.65C119.523 134.65 119.993 134.767 120.406 135C120.826 135.227 121.153 135.543 121.386 135.95C121.626 136.35 121.746 136.817 121.746 137.35C121.746 137.877 121.626 138.343 121.386 138.75C121.153 139.157 120.826 139.477 120.406 139.71C119.993 139.943 119.523 140.06 118.996 140.06ZM118.996 139.22C119.336 139.22 119.64 139.143 119.906 138.99C120.18 138.837 120.393 138.62 120.546 138.34C120.7 138.053 120.776 137.723 120.776 137.35C120.776 136.97 120.7 136.643 120.546 136.37C120.393 136.09 120.18 135.873 119.906 135.72C119.64 135.567 119.336 135.49 118.996 135.49C118.656 135.49 118.353 135.567 118.086 135.72C117.82 135.873 117.606 136.09 117.446 136.37C117.286 136.643 117.206 136.97 117.206 137.35C117.206 137.723 117.286 138.053 117.446 138.34C117.606 138.62 117.82 138.837 118.086 138.99C118.353 139.143 118.656 139.22 118.996 139.22ZM125.904 134.65C126.337 134.65 126.717 134.733 127.044 134.9C127.377 135.067 127.637 135.32 127.824 135.66C128.011 136 128.104 136.43 128.104 136.95V140H127.144V137.06C127.144 136.547 127.017 136.16 126.764 135.9C126.517 135.64 126.167 135.51 125.714 135.51C125.374 135.51 125.077 135.577 124.824 135.71C124.571 135.843 124.374 136.04 124.234 136.3C124.101 136.56 124.034 136.883 124.034 137.27V140H123.074V134.7H123.994V136.13L123.844 135.75C124.017 135.403 124.284 135.133 124.644 134.94C125.004 134.747 125.424 134.65 125.904 134.65ZM131.701 140.06C131.167 140.06 130.754 139.917 130.461 139.63C130.167 139.343 130.021 138.933 130.021 138.4V133.54H130.981V138.36C130.981 138.647 131.051 138.867 131.191 139.02C131.337 139.173 131.544 139.25 131.811 139.25C132.111 139.25 132.361 139.167 132.561 139L132.861 139.69C132.714 139.817 132.537 139.91 132.331 139.97C132.131 140.03 131.921 140.06 131.701 140.06ZM129.121 135.49V134.7H132.501V135.49H129.121ZM136.851 134.65C137.285 134.65 137.665 134.733 137.991 134.9C138.325 135.067 138.585 135.32 138.771 135.66C138.958 136 139.051 136.43 139.051 136.95V140H138.091V137.06C138.091 136.547 137.965 136.16 137.711 135.9C137.465 135.64 137.115 135.51 136.661 135.51C136.321 135.51 136.025 135.577 135.771 135.71C135.518 135.843 135.321 136.04 135.181 136.3C135.048 136.56 134.981 136.883 134.981 137.27V140H134.021V132.58H134.981V136.13L134.791 135.75C134.965 135.403 135.231 135.133 135.591 134.94C135.951 134.747 136.371 134.65 136.851 134.65Z" fill="#859096"/>
</svg>
