<?xml version="1.0" encoding="utf-8"?>
<!-- Generator: Adobe Illustrator 23.0.1, SVG Export Plug-In . SVG Version: 6.00 Build 0)  -->
<svg version="1.1" id="Layer_1" xmlns="http://www.w3.org/2000/svg" xmlns:xlink="http://www.w3.org/1999/xlink" x="0px" y="0px"
	 viewBox="0 0 182.1 50" style="enable-background:new 0 0 182.1 50;" xml:space="preserve">
<style type="text/css">
	.st0{fill:#020000;}
</style>
<polygon class="st0" points="0,49.3 26.5,0.9 48.2,0.9 74.6,49.6 32.6,49.6 26,37.9 49.1,37.9 37.2,13.4 20.2,49.5 "/>
<path class="st0" d="M70.2,0.7L75.9,11c0,0,23.9,0,28.1,0s6.3,1.4,6.3,5s-1.6,5-5,5s-29.4,0-29.4,0v28.2h20.4V31.9c0,0,5.1,0,10.3,0
	c5.2,0,17.1-1.7,21.4-9.6c0,0-1.7,14.2,10,21.7s30.2,7.8,44.1,1.6v-13c0,0-9.6,5.7-21.6,3.9s-14.2-8.3-14.2-12.3s5.4-11.4,16-11.4
	s15.1,1.7,19.5,4.4V3.4c0,0-7.9-4.4-24.6-3.3s-24.1,8.6-27.7,16.2c0,0,0-15.8-21.3-15.8S70.2,0.7,70.2,0.7z"/>
</svg>
